%TF.GenerationSoftware,KiCad,Pcbnew,9.0.6-1.fc42*%
%TF.CreationDate,2025-11-29T12:02:27+10:30*%
%TF.ProjectId,kinsanwaswitch,6b696e73-616e-4776-9173-77697463682e,1.0*%
%TF.SameCoordinates,PX5418b59PY53ec600*%
%TF.FileFunction,Copper,L2,Bot*%
%TF.FilePolarity,Positive*%
%FSLAX46Y46*%
G04 Gerber Fmt 4.6, Leading zero omitted, Abs format (unit mm)*
G04 Created by KiCad (PCBNEW 9.0.6-1.fc42) date 2025-11-29 12:02:27*
%MOMM*%
%LPD*%
G01*
G04 APERTURE LIST*
%TA.AperFunction,ViaPad*%
%ADD10C,0.700000*%
%TD*%
G04 APERTURE END LIST*
D10*
%TO.N,GND*%
X5500000Y14000000D03*
X18000000Y10500000D03*
X21000000Y8000000D03*
X28000000Y12000000D03*
X18000000Y6000000D03*
X28500000Y2500000D03*
X16500000Y7500000D03*
X18000000Y3000000D03*
X4000000Y18500000D03*
X2500000Y4000000D03*
X23000000Y5250000D03*
X2500000Y15500000D03*
X25000000Y12000000D03*
X21000000Y2000000D03*
X12000000Y3000000D03*
X16500000Y10500000D03*
X7000000Y5500000D03*
X3000000Y7000000D03*
X28500000Y5250000D03*
X25000000Y8000000D03*
X24500000Y5250000D03*
X7000000Y10000000D03*
X12000000Y18000000D03*
X22000000Y15000000D03*
X4000000Y14000000D03*
X30000000Y5250000D03*
X2500000Y14000000D03*
X7000000Y14000000D03*
X21000000Y5000000D03*
X28000000Y8000000D03*
X2500000Y5500000D03*
X5500000Y18500000D03*
X2500000Y17000000D03*
X16000000Y15000000D03*
X12000000Y9000000D03*
X24500000Y2500000D03*
X5500000Y5500000D03*
X2500000Y2500000D03*
X4000000Y5500000D03*
X3000000Y10000000D03*
X7000000Y18500000D03*
X12000000Y11500000D03*
X7000000Y7000000D03*
X23000000Y2500000D03*
X12000000Y15000000D03*
%TD*%
%TA.AperFunction,Conductor*%
%TO.N,GND*%
G36*
X14403859Y19179498D02*
G01*
X14450352Y19125842D01*
X14459459Y19097351D01*
X14494862Y18913665D01*
X14510567Y18832179D01*
X14510571Y18832163D01*
X14620631Y18457334D01*
X14765817Y18094674D01*
X14765827Y18094652D01*
X14944836Y17747424D01*
X15090935Y17520091D01*
X15156044Y17418779D01*
X15397535Y17111698D01*
X15667122Y16828963D01*
X15962365Y16573134D01*
X16280588Y16346528D01*
X16390209Y16283239D01*
X16618908Y16151198D01*
X16974265Y15988912D01*
X16974266Y15988912D01*
X16974270Y15988910D01*
X17343446Y15861137D01*
X17723095Y15769035D01*
X18109781Y15713438D01*
X18109791Y15713438D01*
X18109795Y15713437D01*
X18499994Y15694850D01*
X18500000Y15694850D01*
X18500006Y15694850D01*
X18890203Y15713437D01*
X18890204Y15713437D01*
X18890206Y15713438D01*
X18890219Y15713438D01*
X19276905Y15769035D01*
X19656554Y15861137D01*
X20025730Y15988910D01*
X20380189Y16150786D01*
X25699500Y16150786D01*
X25699500Y15849215D01*
X25738860Y15550240D01*
X25738861Y15550234D01*
X25738862Y15550232D01*
X25816913Y15258942D01*
X25932317Y14980332D01*
X25932318Y14980331D01*
X25932323Y14980320D01*
X26083097Y14719172D01*
X26083099Y14719169D01*
X26083100Y14719168D01*
X26266681Y14479920D01*
X26266685Y14479916D01*
X26266690Y14479910D01*
X26479909Y14266691D01*
X26479914Y14266687D01*
X26479920Y14266681D01*
X26719168Y14083100D01*
X26719171Y14083098D01*
X26980319Y13932324D01*
X26980323Y13932323D01*
X26980332Y13932317D01*
X27258942Y13816913D01*
X27550232Y13738862D01*
X27550238Y13738862D01*
X27550239Y13738861D01*
X27584549Y13734345D01*
X27849217Y13699500D01*
X27849224Y13699500D01*
X28150776Y13699500D01*
X28150783Y13699500D01*
X28449768Y13738862D01*
X28741058Y13816913D01*
X29019668Y13932317D01*
X29280832Y14083100D01*
X29520080Y14266681D01*
X29733319Y14479920D01*
X29916900Y14719168D01*
X30067683Y14980332D01*
X30183087Y15258942D01*
X30261138Y15550232D01*
X30300500Y15849217D01*
X30300500Y16150783D01*
X30261138Y16449768D01*
X30183087Y16741058D01*
X30067683Y17019668D01*
X30067677Y17019677D01*
X30067676Y17019681D01*
X29916902Y17280829D01*
X29901808Y17300500D01*
X29733319Y17520080D01*
X29733313Y17520086D01*
X29733309Y17520091D01*
X29520090Y17733310D01*
X29520084Y17733315D01*
X29520080Y17733319D01*
X29280832Y17916900D01*
X29280831Y17916901D01*
X29280828Y17916903D01*
X29019680Y18067677D01*
X29019672Y18067681D01*
X29019668Y18067683D01*
X28741058Y18183087D01*
X28449768Y18261138D01*
X28449766Y18261139D01*
X28449760Y18261140D01*
X28150785Y18300500D01*
X28150783Y18300500D01*
X27849217Y18300500D01*
X27849214Y18300500D01*
X27550239Y18261140D01*
X27258942Y18183087D01*
X26980330Y18067682D01*
X26980319Y18067677D01*
X26719171Y17916903D01*
X26479920Y17733319D01*
X26479909Y17733310D01*
X26266690Y17520091D01*
X26266681Y17520080D01*
X26083097Y17280829D01*
X25932323Y17019681D01*
X25932318Y17019670D01*
X25932317Y17019668D01*
X25893313Y16925503D01*
X25816913Y16741058D01*
X25738860Y16449761D01*
X25699500Y16150786D01*
X20380189Y16150786D01*
X20381089Y16151197D01*
X20470908Y16203054D01*
X20576517Y16264027D01*
X20625256Y16292168D01*
X20719412Y16346528D01*
X21037635Y16573134D01*
X21332878Y16828963D01*
X21602465Y17111698D01*
X21843956Y17418779D01*
X22055164Y17747425D01*
X22234176Y18094659D01*
X22379370Y18457337D01*
X22489432Y18832174D01*
X22540539Y19097348D01*
X22573071Y19160450D01*
X22634556Y19195948D01*
X22664262Y19199500D01*
X31073500Y19199500D01*
X31141621Y19179498D01*
X31188114Y19125842D01*
X31199500Y19073500D01*
X31199500Y926500D01*
X31179498Y858379D01*
X31125842Y811886D01*
X31073500Y800500D01*
X926500Y800500D01*
X858379Y820502D01*
X811886Y874158D01*
X800500Y926500D01*
X800500Y4364466D01*
X7795500Y4364466D01*
X7795500Y4364463D01*
X7795500Y3235537D01*
X7820652Y3109089D01*
X7869989Y2989978D01*
X7908516Y2932319D01*
X7941616Y2882781D01*
X7941621Y2882775D01*
X8032774Y2791622D01*
X8032780Y2791617D01*
X8139978Y2719989D01*
X8259089Y2670652D01*
X8385537Y2645500D01*
X8385538Y2645500D01*
X8514462Y2645500D01*
X8514463Y2645500D01*
X8640911Y2670652D01*
X8760022Y2719989D01*
X8867220Y2791617D01*
X8958383Y2882780D01*
X9030011Y2989978D01*
X9079348Y3109089D01*
X9104500Y3235537D01*
X9104500Y4364463D01*
X9079348Y4490911D01*
X9030011Y4610022D01*
X8958383Y4717220D01*
X8958378Y4717226D01*
X8867225Y4808379D01*
X8867219Y4808384D01*
X8806108Y4849217D01*
X8760022Y4880011D01*
X8640911Y4929348D01*
X8630409Y4931437D01*
X8514465Y4954500D01*
X8514463Y4954500D01*
X8385537Y4954500D01*
X8385534Y4954500D01*
X8259088Y4929348D01*
X8259083Y4929346D01*
X8139978Y4880011D01*
X8032780Y4808384D01*
X8032774Y4808379D01*
X7941621Y4717226D01*
X7941616Y4717220D01*
X7869989Y4610022D01*
X7820654Y4490917D01*
X7820652Y4490912D01*
X7795500Y4364466D01*
X800500Y4364466D01*
X800500Y5150786D01*
X12699500Y5150786D01*
X12699500Y4849215D01*
X12738860Y4550240D01*
X12738861Y4550234D01*
X12738862Y4550232D01*
X12816913Y4258942D01*
X12932317Y3980332D01*
X12932318Y3980331D01*
X12932323Y3980320D01*
X13083097Y3719172D01*
X13083099Y3719169D01*
X13083100Y3719168D01*
X13266681Y3479920D01*
X13266685Y3479916D01*
X13266690Y3479910D01*
X13479909Y3266691D01*
X13479914Y3266687D01*
X13479920Y3266681D01*
X13685305Y3109084D01*
X13719171Y3083098D01*
X13980319Y2932324D01*
X13980323Y2932323D01*
X13980332Y2932317D01*
X14258942Y2816913D01*
X14550232Y2738862D01*
X14550238Y2738862D01*
X14550239Y2738861D01*
X14584549Y2734345D01*
X14849217Y2699500D01*
X14849224Y2699500D01*
X15150776Y2699500D01*
X15150783Y2699500D01*
X15449768Y2738862D01*
X15741058Y2816913D01*
X16019668Y2932317D01*
X16280832Y3083100D01*
X16520080Y3266681D01*
X16733319Y3479920D01*
X16916900Y3719168D01*
X17067052Y3979239D01*
X25695500Y3979239D01*
X25695500Y3820762D01*
X25715708Y3719168D01*
X25726416Y3665336D01*
X25787061Y3518926D01*
X25813124Y3479920D01*
X25875103Y3387162D01*
X25875108Y3387156D01*
X25987155Y3275109D01*
X25987161Y3275104D01*
X26118926Y3187061D01*
X26265336Y3126416D01*
X26420764Y3095500D01*
X26420765Y3095500D01*
X26579235Y3095500D01*
X26579236Y3095500D01*
X26734664Y3126416D01*
X26881074Y3187061D01*
X27012839Y3275104D01*
X27124896Y3387161D01*
X27212939Y3518926D01*
X27273584Y3665336D01*
X27304500Y3820764D01*
X27304500Y3979236D01*
X27273584Y4134664D01*
X27212939Y4281074D01*
X27124896Y4412839D01*
X27124891Y4412845D01*
X27012844Y4524892D01*
X27012838Y4524897D01*
X26965927Y4556242D01*
X26881074Y4612939D01*
X26734664Y4673584D01*
X26579238Y4704500D01*
X26579236Y4704500D01*
X26420764Y4704500D01*
X26420761Y4704500D01*
X26265335Y4673584D01*
X26265330Y4673582D01*
X26118926Y4612939D01*
X25987161Y4524897D01*
X25987155Y4524892D01*
X25875108Y4412845D01*
X25875103Y4412839D01*
X25787061Y4281074D01*
X25726418Y4134670D01*
X25726416Y4134665D01*
X25695500Y3979239D01*
X17067052Y3979239D01*
X17067683Y3980332D01*
X17183087Y4258942D01*
X17261138Y4550232D01*
X17300500Y4849217D01*
X17300500Y5150783D01*
X17261138Y5449768D01*
X17183087Y5741058D01*
X17067683Y6019668D01*
X17067677Y6019677D01*
X17067676Y6019681D01*
X16916902Y6280829D01*
X16901374Y6301065D01*
X16749541Y6498939D01*
X25495500Y6498939D01*
X25495500Y6301062D01*
X25499525Y6280829D01*
X25534103Y6106998D01*
X25609824Y5924191D01*
X25719754Y5759669D01*
X25859669Y5619754D01*
X26024191Y5509824D01*
X26206998Y5434103D01*
X26401065Y5395500D01*
X26598935Y5395500D01*
X26793002Y5434103D01*
X26975809Y5509824D01*
X27140331Y5619754D01*
X27280246Y5759669D01*
X27390176Y5924191D01*
X27465897Y6106998D01*
X27504500Y6301065D01*
X27504500Y6498935D01*
X27465897Y6693002D01*
X27390176Y6875809D01*
X27280246Y7040331D01*
X27140331Y7180246D01*
X26975809Y7290176D01*
X26950885Y7300500D01*
X26793005Y7365896D01*
X26793002Y7365897D01*
X26598938Y7404500D01*
X26598935Y7404500D01*
X26401065Y7404500D01*
X26401061Y7404500D01*
X26206997Y7365897D01*
X26206994Y7365896D01*
X26024190Y7290176D01*
X25859673Y7180249D01*
X25859666Y7180244D01*
X25719756Y7040334D01*
X25719751Y7040327D01*
X25609824Y6875810D01*
X25534104Y6693006D01*
X25534103Y6693003D01*
X25495500Y6498939D01*
X16749541Y6498939D01*
X16733319Y6520080D01*
X16733313Y6520086D01*
X16733309Y6520091D01*
X16520090Y6733310D01*
X16520084Y6733315D01*
X16520080Y6733319D01*
X16280832Y6916900D01*
X16280831Y6916901D01*
X16280828Y6916903D01*
X16019680Y7067677D01*
X16019672Y7067681D01*
X16019668Y7067683D01*
X15741058Y7183087D01*
X15449768Y7261138D01*
X15449766Y7261139D01*
X15449760Y7261140D01*
X15150785Y7300500D01*
X15150783Y7300500D01*
X14849217Y7300500D01*
X14849214Y7300500D01*
X14550239Y7261140D01*
X14258942Y7183087D01*
X13980330Y7067682D01*
X13980319Y7067677D01*
X13719171Y6916903D01*
X13479920Y6733319D01*
X13479909Y6733310D01*
X13266690Y6520091D01*
X13266681Y6520080D01*
X13083097Y6280829D01*
X12932323Y6019681D01*
X12932318Y6019670D01*
X12816913Y5741058D01*
X12738860Y5449761D01*
X12699500Y5150786D01*
X800500Y5150786D01*
X800500Y16274315D01*
X7695500Y16274315D01*
X7695500Y16274312D01*
X7695500Y16125688D01*
X7724495Y15979920D01*
X7781371Y15842610D01*
X7830532Y15769035D01*
X7863942Y15719033D01*
X7863947Y15719027D01*
X7969026Y15613948D01*
X7969032Y15613943D01*
X7969034Y15613941D01*
X8092610Y15531371D01*
X8229920Y15474495D01*
X8375688Y15445500D01*
X8375689Y15445500D01*
X8524311Y15445500D01*
X8524312Y15445500D01*
X8670080Y15474495D01*
X8807390Y15531371D01*
X8930966Y15613941D01*
X9036059Y15719034D01*
X9118629Y15842610D01*
X9175505Y15979920D01*
X9204500Y16125688D01*
X9204500Y16274312D01*
X9175505Y16420080D01*
X9118629Y16557390D01*
X9036059Y16680966D01*
X9036057Y16680968D01*
X9036052Y16680974D01*
X8930973Y16786053D01*
X8930967Y16786058D01*
X8930966Y16786059D01*
X8807390Y16868629D01*
X8670080Y16925505D01*
X8524314Y16954500D01*
X8524312Y16954500D01*
X8375688Y16954500D01*
X8375685Y16954500D01*
X8229919Y16925505D01*
X8229914Y16925503D01*
X8092610Y16868629D01*
X7969032Y16786058D01*
X7969026Y16786053D01*
X7863947Y16680974D01*
X7863942Y16680968D01*
X7781371Y16557390D01*
X7724497Y16420086D01*
X7724495Y16420081D01*
X7695500Y16274315D01*
X800500Y16274315D01*
X800500Y19073500D01*
X820502Y19141621D01*
X874158Y19188114D01*
X926500Y19199500D01*
X14335738Y19199500D01*
X14403859Y19179498D01*
G37*
%TD.AperFunction*%
%TD*%
M02*
