M48
; DRILL file {KiCad 9.0.6-1.fc42} date 2025-11-29T12:02:29+1030
; FORMAT={-:-/ absolute / metric / decimal}
; #@! TF.CreationDate,2025-11-29T12:02:29+10:30
; #@! TF.GenerationSoftware,Kicad,Pcbnew,9.0.6-1.fc42
; #@! TF.FileFunction,Plated,1,2,PTH
FMAT,2
METRIC
; #@! TA.AperFunction,Plated,PTH,ViaDrill
T1C0.400
%
G90
G05
T1
X2.5Y17.0
X2.5Y15.5
X2.5Y14.0
X2.5Y5.5
X2.5Y4.0
X2.5Y2.5
X3.0Y10.0
X3.0Y7.0
X4.0Y18.5
X4.0Y14.0
X4.0Y5.5
X5.5Y18.5
X5.5Y14.0
X5.5Y5.5
X7.0Y18.5
X7.0Y14.0
X7.0Y10.0
X7.0Y7.0
X7.0Y5.5
X12.0Y18.0
X12.0Y15.0
X12.0Y11.5
X12.0Y9.0
X12.0Y3.0
X16.0Y15.0
X16.5Y10.5
X16.5Y7.5
X18.0Y10.5
X18.0Y6.0
X18.0Y3.0
X21.0Y8.0
X21.0Y5.0
X21.0Y2.0
X22.0Y15.0
X23.0Y5.25
X23.0Y2.5
X24.5Y5.25
X24.5Y2.5
X25.0Y12.0
X25.0Y8.0
X28.0Y12.0
X28.0Y8.0
X28.5Y5.25
X28.5Y2.5
X30.0Y5.25
M30
