%TF.GenerationSoftware,KiCad,Pcbnew,9.0.6-1.fc42*%
%TF.CreationDate,2025-11-29T12:02:27+10:30*%
%TF.ProjectId,kinsanwaswitch,6b696e73-616e-4776-9173-77697463682e,1.0*%
%TF.SameCoordinates,PX5418b59PY53ec600*%
%TF.FileFunction,Legend,Bot*%
%TF.FilePolarity,Positive*%
%FSLAX46Y46*%
G04 Gerber Fmt 4.6, Leading zero omitted, Abs format (unit mm)*
G04 Created by KiCad (PCBNEW 9.0.6-1.fc42) date 2025-11-29 12:02:27*
%MOMM*%
%LPD*%
G01*
G04 APERTURE LIST*
%ADD10C,0.300000*%
%ADD11C,0.010000*%
G04 APERTURE END LIST*
D10*
X30464285Y1750243D02*
X29750000Y1750243D01*
X30607142Y1321672D02*
X30107142Y2821672D01*
X30107142Y2821672D02*
X29607142Y1321672D01*
X28892857Y1321672D02*
X29035714Y1393100D01*
X29035714Y1393100D02*
X29107143Y1535958D01*
X29107143Y1535958D02*
X29107143Y2821672D01*
X27750000Y1393100D02*
X27892857Y1321672D01*
X27892857Y1321672D02*
X28178572Y1321672D01*
X28178572Y1321672D02*
X28321429Y1393100D01*
X28321429Y1393100D02*
X28392857Y1535958D01*
X28392857Y1535958D02*
X28392857Y2107386D01*
X28392857Y2107386D02*
X28321429Y2250243D01*
X28321429Y2250243D02*
X28178572Y2321672D01*
X28178572Y2321672D02*
X27892857Y2321672D01*
X27892857Y2321672D02*
X27750000Y2250243D01*
X27750000Y2250243D02*
X27678572Y2107386D01*
X27678572Y2107386D02*
X27678572Y1964529D01*
X27678572Y1964529D02*
X28392857Y1821672D01*
X27178572Y1321672D02*
X26392858Y2321672D01*
X27178572Y2321672D02*
X26392858Y1321672D01*
X25178572Y1321672D02*
X25178572Y2107386D01*
X25178572Y2107386D02*
X25250000Y2250243D01*
X25250000Y2250243D02*
X25392857Y2321672D01*
X25392857Y2321672D02*
X25678572Y2321672D01*
X25678572Y2321672D02*
X25821429Y2250243D01*
X25178572Y1393100D02*
X25321429Y1321672D01*
X25321429Y1321672D02*
X25678572Y1321672D01*
X25678572Y1321672D02*
X25821429Y1393100D01*
X25821429Y1393100D02*
X25892857Y1535958D01*
X25892857Y1535958D02*
X25892857Y1678815D01*
X25892857Y1678815D02*
X25821429Y1821672D01*
X25821429Y1821672D02*
X25678572Y1893100D01*
X25678572Y1893100D02*
X25321429Y1893100D01*
X25321429Y1893100D02*
X25178572Y1964529D01*
X24464286Y2321672D02*
X24464286Y1321672D01*
X24464286Y2178815D02*
X24392857Y2250243D01*
X24392857Y2250243D02*
X24250000Y2321672D01*
X24250000Y2321672D02*
X24035714Y2321672D01*
X24035714Y2321672D02*
X23892857Y2250243D01*
X23892857Y2250243D02*
X23821429Y2107386D01*
X23821429Y2107386D02*
X23821429Y1321672D01*
X22464286Y1321672D02*
X22464286Y2821672D01*
X22464286Y1393100D02*
X22607143Y1321672D01*
X22607143Y1321672D02*
X22892857Y1321672D01*
X22892857Y1321672D02*
X23035714Y1393100D01*
X23035714Y1393100D02*
X23107143Y1464529D01*
X23107143Y1464529D02*
X23178571Y1607386D01*
X23178571Y1607386D02*
X23178571Y2035958D01*
X23178571Y2035958D02*
X23107143Y2178815D01*
X23107143Y2178815D02*
X23035714Y2250243D01*
X23035714Y2250243D02*
X22892857Y2321672D01*
X22892857Y2321672D02*
X22607143Y2321672D01*
X22607143Y2321672D02*
X22464286Y2250243D01*
X21178571Y1393100D02*
X21321428Y1321672D01*
X21321428Y1321672D02*
X21607143Y1321672D01*
X21607143Y1321672D02*
X21750000Y1393100D01*
X21750000Y1393100D02*
X21821428Y1535958D01*
X21821428Y1535958D02*
X21821428Y2107386D01*
X21821428Y2107386D02*
X21750000Y2250243D01*
X21750000Y2250243D02*
X21607143Y2321672D01*
X21607143Y2321672D02*
X21321428Y2321672D01*
X21321428Y2321672D02*
X21178571Y2250243D01*
X21178571Y2250243D02*
X21107143Y2107386D01*
X21107143Y2107386D02*
X21107143Y1964529D01*
X21107143Y1964529D02*
X21821428Y1821672D01*
X20464286Y1321672D02*
X20464286Y2321672D01*
X20464286Y2035958D02*
X20392857Y2178815D01*
X20392857Y2178815D02*
X20321429Y2250243D01*
X20321429Y2250243D02*
X20178571Y2321672D01*
X20178571Y2321672D02*
X20035714Y2321672D01*
X18392858Y1321672D02*
X18392858Y2821672D01*
X17535715Y1321672D02*
X18178572Y2178815D01*
X17535715Y2821672D02*
X18392858Y1964529D01*
X16892858Y2321672D02*
X16892858Y1321672D01*
X16892858Y2178815D02*
X16821429Y2250243D01*
X16821429Y2250243D02*
X16678572Y2321672D01*
X16678572Y2321672D02*
X16464286Y2321672D01*
X16464286Y2321672D02*
X16321429Y2250243D01*
X16321429Y2250243D02*
X16250001Y2107386D01*
X16250001Y2107386D02*
X16250001Y1321672D01*
X14892858Y1321672D02*
X14892858Y2107386D01*
X14892858Y2107386D02*
X14964286Y2250243D01*
X14964286Y2250243D02*
X15107143Y2321672D01*
X15107143Y2321672D02*
X15392858Y2321672D01*
X15392858Y2321672D02*
X15535715Y2250243D01*
X14892858Y1393100D02*
X15035715Y1321672D01*
X15035715Y1321672D02*
X15392858Y1321672D01*
X15392858Y1321672D02*
X15535715Y1393100D01*
X15535715Y1393100D02*
X15607143Y1535958D01*
X15607143Y1535958D02*
X15607143Y1678815D01*
X15607143Y1678815D02*
X15535715Y1821672D01*
X15535715Y1821672D02*
X15392858Y1893100D01*
X15392858Y1893100D02*
X15035715Y1893100D01*
X15035715Y1893100D02*
X14892858Y1964529D01*
X14178572Y2321672D02*
X14178572Y821672D01*
X14178572Y2250243D02*
X14035715Y2321672D01*
X14035715Y2321672D02*
X13750000Y2321672D01*
X13750000Y2321672D02*
X13607143Y2250243D01*
X13607143Y2250243D02*
X13535715Y2178815D01*
X13535715Y2178815D02*
X13464286Y2035958D01*
X13464286Y2035958D02*
X13464286Y1607386D01*
X13464286Y1607386D02*
X13535715Y1464529D01*
X13535715Y1464529D02*
X13607143Y1393100D01*
X13607143Y1393100D02*
X13750000Y1321672D01*
X13750000Y1321672D02*
X14035715Y1321672D01*
X14035715Y1321672D02*
X14178572Y1393100D01*
X12821429Y1321672D02*
X12821429Y2321672D01*
X12821429Y2821672D02*
X12892857Y2750243D01*
X12892857Y2750243D02*
X12821429Y2678815D01*
X12821429Y2678815D02*
X12750000Y2750243D01*
X12750000Y2750243D02*
X12821429Y2821672D01*
X12821429Y2821672D02*
X12821429Y2678815D01*
X12107143Y1321672D02*
X12107143Y2821672D01*
X11964286Y1893100D02*
X11535714Y1321672D01*
X11535714Y2321672D02*
X12107143Y1750243D01*
X24571429Y13236588D02*
X24571429Y14736588D01*
X23714286Y13236588D02*
X24357143Y14093731D01*
X23714286Y14736588D02*
X24571429Y13879445D01*
X23071429Y13236588D02*
X23071429Y14236588D01*
X23071429Y14736588D02*
X23142857Y14665159D01*
X23142857Y14665159D02*
X23071429Y14593731D01*
X23071429Y14593731D02*
X23000000Y14665159D01*
X23000000Y14665159D02*
X23071429Y14736588D01*
X23071429Y14736588D02*
X23071429Y14593731D01*
X22357143Y14236588D02*
X22357143Y13236588D01*
X22357143Y14093731D02*
X22285714Y14165159D01*
X22285714Y14165159D02*
X22142857Y14236588D01*
X22142857Y14236588D02*
X21928571Y14236588D01*
X21928571Y14236588D02*
X21785714Y14165159D01*
X21785714Y14165159D02*
X21714286Y14022302D01*
X21714286Y14022302D02*
X21714286Y13236588D01*
X21071428Y13308016D02*
X20857143Y13236588D01*
X20857143Y13236588D02*
X20500000Y13236588D01*
X20500000Y13236588D02*
X20357143Y13308016D01*
X20357143Y13308016D02*
X20285714Y13379445D01*
X20285714Y13379445D02*
X20214285Y13522302D01*
X20214285Y13522302D02*
X20214285Y13665159D01*
X20214285Y13665159D02*
X20285714Y13808016D01*
X20285714Y13808016D02*
X20357143Y13879445D01*
X20357143Y13879445D02*
X20500000Y13950874D01*
X20500000Y13950874D02*
X20785714Y14022302D01*
X20785714Y14022302D02*
X20928571Y14093731D01*
X20928571Y14093731D02*
X21000000Y14165159D01*
X21000000Y14165159D02*
X21071428Y14308016D01*
X21071428Y14308016D02*
X21071428Y14450874D01*
X21071428Y14450874D02*
X21000000Y14593731D01*
X21000000Y14593731D02*
X20928571Y14665159D01*
X20928571Y14665159D02*
X20785714Y14736588D01*
X20785714Y14736588D02*
X20428571Y14736588D01*
X20428571Y14736588D02*
X20214285Y14665159D01*
X18928572Y13236588D02*
X18928572Y14022302D01*
X18928572Y14022302D02*
X19000000Y14165159D01*
X19000000Y14165159D02*
X19142857Y14236588D01*
X19142857Y14236588D02*
X19428572Y14236588D01*
X19428572Y14236588D02*
X19571429Y14165159D01*
X18928572Y13308016D02*
X19071429Y13236588D01*
X19071429Y13236588D02*
X19428572Y13236588D01*
X19428572Y13236588D02*
X19571429Y13308016D01*
X19571429Y13308016D02*
X19642857Y13450874D01*
X19642857Y13450874D02*
X19642857Y13593731D01*
X19642857Y13593731D02*
X19571429Y13736588D01*
X19571429Y13736588D02*
X19428572Y13808016D01*
X19428572Y13808016D02*
X19071429Y13808016D01*
X19071429Y13808016D02*
X18928572Y13879445D01*
X18214286Y14236588D02*
X18214286Y13236588D01*
X18214286Y14093731D02*
X18142857Y14165159D01*
X18142857Y14165159D02*
X18000000Y14236588D01*
X18000000Y14236588D02*
X17785714Y14236588D01*
X17785714Y14236588D02*
X17642857Y14165159D01*
X17642857Y14165159D02*
X17571429Y14022302D01*
X17571429Y14022302D02*
X17571429Y13236588D01*
X17000000Y14236588D02*
X16714286Y13236588D01*
X16714286Y13236588D02*
X16428571Y13950874D01*
X16428571Y13950874D02*
X16142857Y13236588D01*
X16142857Y13236588D02*
X15857143Y14236588D01*
X14642857Y13236588D02*
X14642857Y14022302D01*
X14642857Y14022302D02*
X14714285Y14165159D01*
X14714285Y14165159D02*
X14857142Y14236588D01*
X14857142Y14236588D02*
X15142857Y14236588D01*
X15142857Y14236588D02*
X15285714Y14165159D01*
X14642857Y13308016D02*
X14785714Y13236588D01*
X14785714Y13236588D02*
X15142857Y13236588D01*
X15142857Y13236588D02*
X15285714Y13308016D01*
X15285714Y13308016D02*
X15357142Y13450874D01*
X15357142Y13450874D02*
X15357142Y13593731D01*
X15357142Y13593731D02*
X15285714Y13736588D01*
X15285714Y13736588D02*
X15142857Y13808016D01*
X15142857Y13808016D02*
X14785714Y13808016D01*
X14785714Y13808016D02*
X14642857Y13879445D01*
X13999999Y13308016D02*
X13785714Y13236588D01*
X13785714Y13236588D02*
X13428571Y13236588D01*
X13428571Y13236588D02*
X13285714Y13308016D01*
X13285714Y13308016D02*
X13214285Y13379445D01*
X13214285Y13379445D02*
X13142856Y13522302D01*
X13142856Y13522302D02*
X13142856Y13665159D01*
X13142856Y13665159D02*
X13214285Y13808016D01*
X13214285Y13808016D02*
X13285714Y13879445D01*
X13285714Y13879445D02*
X13428571Y13950874D01*
X13428571Y13950874D02*
X13714285Y14022302D01*
X13714285Y14022302D02*
X13857142Y14093731D01*
X13857142Y14093731D02*
X13928571Y14165159D01*
X13928571Y14165159D02*
X13999999Y14308016D01*
X13999999Y14308016D02*
X13999999Y14450874D01*
X13999999Y14450874D02*
X13928571Y14593731D01*
X13928571Y14593731D02*
X13857142Y14665159D01*
X13857142Y14665159D02*
X13714285Y14736588D01*
X13714285Y14736588D02*
X13357142Y14736588D01*
X13357142Y14736588D02*
X13142856Y14665159D01*
X12642857Y14236588D02*
X12357143Y13236588D01*
X12357143Y13236588D02*
X12071428Y13950874D01*
X12071428Y13950874D02*
X11785714Y13236588D01*
X11785714Y13236588D02*
X11500000Y14236588D01*
X10928571Y13236588D02*
X10928571Y14236588D01*
X10928571Y14736588D02*
X10999999Y14665159D01*
X10999999Y14665159D02*
X10928571Y14593731D01*
X10928571Y14593731D02*
X10857142Y14665159D01*
X10857142Y14665159D02*
X10928571Y14736588D01*
X10928571Y14736588D02*
X10928571Y14593731D01*
X10428570Y14236588D02*
X9857142Y14236588D01*
X10214285Y14736588D02*
X10214285Y13450874D01*
X10214285Y13450874D02*
X10142856Y13308016D01*
X10142856Y13308016D02*
X9999999Y13236588D01*
X9999999Y13236588D02*
X9857142Y13236588D01*
X8714285Y13308016D02*
X8857142Y13236588D01*
X8857142Y13236588D02*
X9142856Y13236588D01*
X9142856Y13236588D02*
X9285713Y13308016D01*
X9285713Y13308016D02*
X9357142Y13379445D01*
X9357142Y13379445D02*
X9428570Y13522302D01*
X9428570Y13522302D02*
X9428570Y13950874D01*
X9428570Y13950874D02*
X9357142Y14093731D01*
X9357142Y14093731D02*
X9285713Y14165159D01*
X9285713Y14165159D02*
X9142856Y14236588D01*
X9142856Y14236588D02*
X8857142Y14236588D01*
X8857142Y14236588D02*
X8714285Y14165159D01*
X8071428Y13236588D02*
X8071428Y14736588D01*
X7428571Y13236588D02*
X7428571Y14022302D01*
X7428571Y14022302D02*
X7499999Y14165159D01*
X7499999Y14165159D02*
X7642856Y14236588D01*
X7642856Y14236588D02*
X7857142Y14236588D01*
X7857142Y14236588D02*
X7999999Y14165159D01*
X7999999Y14165159D02*
X8071428Y14093731D01*
X19464285Y10821672D02*
X19964285Y11535958D01*
X20321428Y10821672D02*
X20321428Y12321672D01*
X20321428Y12321672D02*
X19749999Y12321672D01*
X19749999Y12321672D02*
X19607142Y12250243D01*
X19607142Y12250243D02*
X19535713Y12178815D01*
X19535713Y12178815D02*
X19464285Y12035958D01*
X19464285Y12035958D02*
X19464285Y11821672D01*
X19464285Y11821672D02*
X19535713Y11678815D01*
X19535713Y11678815D02*
X19607142Y11607386D01*
X19607142Y11607386D02*
X19749999Y11535958D01*
X19749999Y11535958D02*
X20321428Y11535958D01*
X18249999Y10893100D02*
X18392856Y10821672D01*
X18392856Y10821672D02*
X18678571Y10821672D01*
X18678571Y10821672D02*
X18821428Y10893100D01*
X18821428Y10893100D02*
X18892856Y11035958D01*
X18892856Y11035958D02*
X18892856Y11607386D01*
X18892856Y11607386D02*
X18821428Y11750243D01*
X18821428Y11750243D02*
X18678571Y11821672D01*
X18678571Y11821672D02*
X18392856Y11821672D01*
X18392856Y11821672D02*
X18249999Y11750243D01*
X18249999Y11750243D02*
X18178571Y11607386D01*
X18178571Y11607386D02*
X18178571Y11464529D01*
X18178571Y11464529D02*
X18892856Y11321672D01*
X17678571Y11821672D02*
X17321428Y10821672D01*
X17321428Y10821672D02*
X16964285Y11821672D01*
X16392857Y10964529D02*
X16321428Y10893100D01*
X16321428Y10893100D02*
X16392857Y10821672D01*
X16392857Y10821672D02*
X16464285Y10893100D01*
X16464285Y10893100D02*
X16392857Y10964529D01*
X16392857Y10964529D02*
X16392857Y10821672D01*
X13749999Y10821672D02*
X14607142Y10821672D01*
X14178571Y10821672D02*
X14178571Y12321672D01*
X14178571Y12321672D02*
X14321428Y12107386D01*
X14321428Y12107386D02*
X14464285Y11964529D01*
X14464285Y11964529D02*
X14607142Y11893100D01*
X13107143Y10964529D02*
X13035714Y10893100D01*
X13035714Y10893100D02*
X13107143Y10821672D01*
X13107143Y10821672D02*
X13178571Y10893100D01*
X13178571Y10893100D02*
X13107143Y10964529D01*
X13107143Y10964529D02*
X13107143Y10821672D01*
X12107142Y12321672D02*
X11964285Y12321672D01*
X11964285Y12321672D02*
X11821428Y12250243D01*
X11821428Y12250243D02*
X11750000Y12178815D01*
X11750000Y12178815D02*
X11678571Y12035958D01*
X11678571Y12035958D02*
X11607142Y11750243D01*
X11607142Y11750243D02*
X11607142Y11393100D01*
X11607142Y11393100D02*
X11678571Y11107386D01*
X11678571Y11107386D02*
X11750000Y10964529D01*
X11750000Y10964529D02*
X11821428Y10893100D01*
X11821428Y10893100D02*
X11964285Y10821672D01*
X11964285Y10821672D02*
X12107142Y10821672D01*
X12107142Y10821672D02*
X12250000Y10893100D01*
X12250000Y10893100D02*
X12321428Y10964529D01*
X12321428Y10964529D02*
X12392857Y11107386D01*
X12392857Y11107386D02*
X12464285Y11393100D01*
X12464285Y11393100D02*
X12464285Y11750243D01*
X12464285Y11750243D02*
X12392857Y12035958D01*
X12392857Y12035958D02*
X12321428Y12178815D01*
X12321428Y12178815D02*
X12250000Y12250243D01*
X12250000Y12250243D02*
X12107142Y12321672D01*
X23285712Y9763899D02*
X23214284Y9835327D01*
X23214284Y9835327D02*
X23071427Y9906756D01*
X23071427Y9906756D02*
X22714284Y9906756D01*
X22714284Y9906756D02*
X22571427Y9835327D01*
X22571427Y9835327D02*
X22499998Y9763899D01*
X22499998Y9763899D02*
X22428569Y9621042D01*
X22428569Y9621042D02*
X22428569Y9478184D01*
X22428569Y9478184D02*
X22499998Y9263899D01*
X22499998Y9263899D02*
X23357141Y8406756D01*
X23357141Y8406756D02*
X22428569Y8406756D01*
X21499998Y9906756D02*
X21357141Y9906756D01*
X21357141Y9906756D02*
X21214284Y9835327D01*
X21214284Y9835327D02*
X21142856Y9763899D01*
X21142856Y9763899D02*
X21071427Y9621042D01*
X21071427Y9621042D02*
X20999998Y9335327D01*
X20999998Y9335327D02*
X20999998Y8978184D01*
X20999998Y8978184D02*
X21071427Y8692470D01*
X21071427Y8692470D02*
X21142856Y8549613D01*
X21142856Y8549613D02*
X21214284Y8478184D01*
X21214284Y8478184D02*
X21357141Y8406756D01*
X21357141Y8406756D02*
X21499998Y8406756D01*
X21499998Y8406756D02*
X21642856Y8478184D01*
X21642856Y8478184D02*
X21714284Y8549613D01*
X21714284Y8549613D02*
X21785713Y8692470D01*
X21785713Y8692470D02*
X21857141Y8978184D01*
X21857141Y8978184D02*
X21857141Y9335327D01*
X21857141Y9335327D02*
X21785713Y9621042D01*
X21785713Y9621042D02*
X21714284Y9763899D01*
X21714284Y9763899D02*
X21642856Y9835327D01*
X21642856Y9835327D02*
X21499998Y9906756D01*
X20428570Y9763899D02*
X20357142Y9835327D01*
X20357142Y9835327D02*
X20214285Y9906756D01*
X20214285Y9906756D02*
X19857142Y9906756D01*
X19857142Y9906756D02*
X19714285Y9835327D01*
X19714285Y9835327D02*
X19642856Y9763899D01*
X19642856Y9763899D02*
X19571427Y9621042D01*
X19571427Y9621042D02*
X19571427Y9478184D01*
X19571427Y9478184D02*
X19642856Y9263899D01*
X19642856Y9263899D02*
X20499999Y8406756D01*
X20499999Y8406756D02*
X19571427Y8406756D01*
X18214285Y9906756D02*
X18928571Y9906756D01*
X18928571Y9906756D02*
X18999999Y9192470D01*
X18999999Y9192470D02*
X18928571Y9263899D01*
X18928571Y9263899D02*
X18785714Y9335327D01*
X18785714Y9335327D02*
X18428571Y9335327D01*
X18428571Y9335327D02*
X18285714Y9263899D01*
X18285714Y9263899D02*
X18214285Y9192470D01*
X18214285Y9192470D02*
X18142856Y9049613D01*
X18142856Y9049613D02*
X18142856Y8692470D01*
X18142856Y8692470D02*
X18214285Y8549613D01*
X18214285Y8549613D02*
X18285714Y8478184D01*
X18285714Y8478184D02*
X18428571Y8406756D01*
X18428571Y8406756D02*
X18785714Y8406756D01*
X18785714Y8406756D02*
X18928571Y8478184D01*
X18928571Y8478184D02*
X18999999Y8549613D01*
X17500000Y8978184D02*
X16357143Y8978184D01*
X14857142Y8406756D02*
X15714285Y8406756D01*
X15285714Y8406756D02*
X15285714Y9906756D01*
X15285714Y9906756D02*
X15428571Y9692470D01*
X15428571Y9692470D02*
X15571428Y9549613D01*
X15571428Y9549613D02*
X15714285Y9478184D01*
X13428571Y8406756D02*
X14285714Y8406756D01*
X13857143Y8406756D02*
X13857143Y9906756D01*
X13857143Y9906756D02*
X14000000Y9692470D01*
X14000000Y9692470D02*
X14142857Y9549613D01*
X14142857Y9549613D02*
X14285714Y9478184D01*
X12785715Y8978184D02*
X11642858Y8978184D01*
X11000000Y9763899D02*
X10928572Y9835327D01*
X10928572Y9835327D02*
X10785715Y9906756D01*
X10785715Y9906756D02*
X10428572Y9906756D01*
X10428572Y9906756D02*
X10285715Y9835327D01*
X10285715Y9835327D02*
X10214286Y9763899D01*
X10214286Y9763899D02*
X10142857Y9621042D01*
X10142857Y9621042D02*
X10142857Y9478184D01*
X10142857Y9478184D02*
X10214286Y9263899D01*
X10214286Y9263899D02*
X11071429Y8406756D01*
X11071429Y8406756D02*
X10142857Y8406756D01*
X9428572Y8406756D02*
X9142858Y8406756D01*
X9142858Y8406756D02*
X9000001Y8478184D01*
X9000001Y8478184D02*
X8928572Y8549613D01*
X8928572Y8549613D02*
X8785715Y8763899D01*
X8785715Y8763899D02*
X8714286Y9049613D01*
X8714286Y9049613D02*
X8714286Y9621042D01*
X8714286Y9621042D02*
X8785715Y9763899D01*
X8785715Y9763899D02*
X8857144Y9835327D01*
X8857144Y9835327D02*
X9000001Y9906756D01*
X9000001Y9906756D02*
X9285715Y9906756D01*
X9285715Y9906756D02*
X9428572Y9835327D01*
X9428572Y9835327D02*
X9500001Y9763899D01*
X9500001Y9763899D02*
X9571429Y9621042D01*
X9571429Y9621042D02*
X9571429Y9263899D01*
X9571429Y9263899D02*
X9500001Y9121042D01*
X9500001Y9121042D02*
X9428572Y9049613D01*
X9428572Y9049613D02*
X9285715Y8978184D01*
X9285715Y8978184D02*
X9000001Y8978184D01*
X9000001Y8978184D02*
X8857144Y9049613D01*
X8857144Y9049613D02*
X8785715Y9121042D01*
X8785715Y9121042D02*
X8714286Y9263899D01*
D11*
%TO.C,SYM1*%
X2287128Y2796055D02*
X2317954Y2786432D01*
X2355916Y2770437D01*
X2374296Y2761841D01*
X2387561Y2760287D01*
X2390495Y2772202D01*
X2390498Y2772539D01*
X2396709Y2783913D01*
X2418131Y2789744D01*
X2459653Y2791386D01*
X2528812Y2791386D01*
X2528812Y2187821D01*
X2390495Y2187821D01*
X2390495Y2603973D01*
X2356110Y2635839D01*
X2345368Y2644896D01*
X2313370Y2660370D01*
X2273965Y2660990D01*
X2220312Y2647336D01*
X2202225Y2646471D01*
X2181008Y2659717D01*
X2152768Y2691200D01*
X2139069Y2708615D01*
X2122868Y2733203D01*
X2120371Y2748855D01*
X2129442Y2762059D01*
X2157289Y2778755D01*
X2200540Y2791970D01*
X2247464Y2798522D01*
X2287128Y2796055D01*
G36*
X2287128Y2796055D02*
G01*
X2317954Y2786432D01*
X2355916Y2770437D01*
X2374296Y2761841D01*
X2387561Y2760287D01*
X2390495Y2772202D01*
X2390498Y2772539D01*
X2396709Y2783913D01*
X2418131Y2789744D01*
X2459653Y2791386D01*
X2528812Y2791386D01*
X2528812Y2187821D01*
X2390495Y2187821D01*
X2390495Y2603973D01*
X2356110Y2635839D01*
X2345368Y2644896D01*
X2313370Y2660370D01*
X2273965Y2660990D01*
X2220312Y2647336D01*
X2202225Y2646471D01*
X2181008Y2659717D01*
X2152768Y2691200D01*
X2139069Y2708615D01*
X2122868Y2733203D01*
X2120371Y2748855D01*
X2129442Y2762059D01*
X2157289Y2778755D01*
X2200540Y2791970D01*
X2247464Y2798522D01*
X2287128Y2796055D01*
G37*
X2470265Y1840035D02*
X2508255Y1822255D01*
X2541386Y1796194D01*
X2541386Y1822255D01*
X2542211Y1832151D01*
X2549893Y1842642D01*
X2570667Y1847275D01*
X2610544Y1848317D01*
X2679703Y1848317D01*
X2679703Y1232178D01*
X2541386Y1232178D01*
X2541386Y1432774D01*
X2541369Y1444290D01*
X2540189Y1525242D01*
X2537294Y1591183D01*
X2532888Y1638742D01*
X2527181Y1664548D01*
X2521940Y1674290D01*
X2489676Y1704844D01*
X2445730Y1718369D01*
X2397743Y1712059D01*
X2385973Y1707783D01*
X2360898Y1700224D01*
X2343762Y1702572D01*
X2326518Y1717936D01*
X2301124Y1749429D01*
X2259936Y1801432D01*
X2288886Y1824875D01*
X2316405Y1838985D01*
X2364745Y1848514D01*
X2419230Y1848826D01*
X2470265Y1840035D01*
G36*
X2470265Y1840035D02*
G01*
X2508255Y1822255D01*
X2541386Y1796194D01*
X2541386Y1822255D01*
X2542211Y1832151D01*
X2549893Y1842642D01*
X2570667Y1847275D01*
X2610544Y1848317D01*
X2679703Y1848317D01*
X2679703Y1232178D01*
X2541386Y1232178D01*
X2541386Y1432774D01*
X2541369Y1444290D01*
X2540189Y1525242D01*
X2537294Y1591183D01*
X2532888Y1638742D01*
X2527181Y1664548D01*
X2521940Y1674290D01*
X2489676Y1704844D01*
X2445730Y1718369D01*
X2397743Y1712059D01*
X2385973Y1707783D01*
X2360898Y1700224D01*
X2343762Y1702572D01*
X2326518Y1717936D01*
X2301124Y1749429D01*
X2259936Y1801432D01*
X2288886Y1824875D01*
X2316405Y1838985D01*
X2364745Y1848514D01*
X2419230Y1848826D01*
X2470265Y1840035D01*
G37*
X5093960Y1232178D02*
X4968218Y1232178D01*
X4968218Y1426260D01*
X4968078Y1471406D01*
X4966649Y1546177D01*
X4963029Y1601533D01*
X4956434Y1641298D01*
X4946079Y1669300D01*
X4931178Y1689365D01*
X4910946Y1705319D01*
X4888859Y1717208D01*
X4862705Y1720579D01*
X4825508Y1713083D01*
X4813555Y1709962D01*
X4783718Y1705265D01*
X4762383Y1711995D01*
X4737655Y1732823D01*
X4732963Y1737353D01*
X4707020Y1765374D01*
X4690291Y1788157D01*
X4687996Y1793645D01*
X4692543Y1813912D01*
X4715602Y1830116D01*
X4751995Y1841487D01*
X4796544Y1847260D01*
X4844072Y1846666D01*
X4889400Y1838937D01*
X4927351Y1823306D01*
X4939381Y1816007D01*
X4959632Y1805324D01*
X4967129Y1807770D01*
X4968218Y1823353D01*
X4968473Y1828947D01*
X4974539Y1841340D01*
X4993356Y1846980D01*
X5031089Y1848317D01*
X5093960Y1848317D01*
X5093960Y1232178D01*
G36*
X5093960Y1232178D02*
G01*
X4968218Y1232178D01*
X4968218Y1426260D01*
X4968078Y1471406D01*
X4966649Y1546177D01*
X4963029Y1601533D01*
X4956434Y1641298D01*
X4946079Y1669300D01*
X4931178Y1689365D01*
X4910946Y1705319D01*
X4888859Y1717208D01*
X4862705Y1720579D01*
X4825508Y1713083D01*
X4813555Y1709962D01*
X4783718Y1705265D01*
X4762383Y1711995D01*
X4737655Y1732823D01*
X4732963Y1737353D01*
X4707020Y1765374D01*
X4690291Y1788157D01*
X4687996Y1793645D01*
X4692543Y1813912D01*
X4715602Y1830116D01*
X4751995Y1841487D01*
X4796544Y1847260D01*
X4844072Y1846666D01*
X4889400Y1838937D01*
X4927351Y1823306D01*
X4939381Y1816007D01*
X4959632Y1805324D01*
X4967129Y1807770D01*
X4968218Y1823353D01*
X4968473Y1828947D01*
X4974539Y1841340D01*
X4993356Y1846980D01*
X5031089Y1848317D01*
X5093960Y1848317D01*
X5093960Y1232178D01*
G37*
X2780297Y2595658D02*
X2781357Y2507606D01*
X2785509Y2436490D01*
X2793921Y2384801D01*
X2807757Y2349640D01*
X2828182Y2328111D01*
X2856364Y2317318D01*
X2893465Y2314364D01*
X2928890Y2317000D01*
X2957500Y2327321D01*
X2978296Y2348228D01*
X2992442Y2382619D01*
X3001103Y2433390D01*
X3005445Y2503437D01*
X3006633Y2595658D01*
X3006633Y2791386D01*
X3132376Y2791386D01*
X3132376Y2555422D01*
X3132160Y2492439D01*
X3130484Y2410993D01*
X3126277Y2348879D01*
X3118521Y2302542D01*
X3106196Y2268427D01*
X3088285Y2242978D01*
X3063767Y2222638D01*
X3031623Y2203853D01*
X2964125Y2180072D01*
X2893681Y2178520D01*
X2827264Y2200420D01*
X2798286Y2214617D01*
X2783909Y2216739D01*
X2780297Y2206707D01*
X2774299Y2195444D01*
X2752830Y2189511D01*
X2711138Y2187821D01*
X2641980Y2187821D01*
X2641980Y2791386D01*
X2780297Y2791386D01*
X2780297Y2595658D01*
G36*
X2780297Y2595658D02*
G01*
X2781357Y2507606D01*
X2785509Y2436490D01*
X2793921Y2384801D01*
X2807757Y2349640D01*
X2828182Y2328111D01*
X2856364Y2317318D01*
X2893465Y2314364D01*
X2928890Y2317000D01*
X2957500Y2327321D01*
X2978296Y2348228D01*
X2992442Y2382619D01*
X3001103Y2433390D01*
X3005445Y2503437D01*
X3006633Y2595658D01*
X3006633Y2791386D01*
X3132376Y2791386D01*
X3132376Y2555422D01*
X3132160Y2492439D01*
X3130484Y2410993D01*
X3126277Y2348879D01*
X3118521Y2302542D01*
X3106196Y2268427D01*
X3088285Y2242978D01*
X3063767Y2222638D01*
X3031623Y2203853D01*
X2964125Y2180072D01*
X2893681Y2178520D01*
X2827264Y2200420D01*
X2798286Y2214617D01*
X2783909Y2216739D01*
X2780297Y2206707D01*
X2774299Y2195444D01*
X2752830Y2189511D01*
X2711138Y2187821D01*
X2641980Y2187821D01*
X2641980Y2791386D01*
X2780297Y2791386D01*
X2780297Y2595658D01*
G37*
X4882605Y2792576D02*
X4939926Y2774566D01*
X4965199Y2762326D01*
X4977910Y2761062D01*
X4980792Y2772202D01*
X4980795Y2772539D01*
X4987006Y2783913D01*
X5008428Y2789744D01*
X5049950Y2791386D01*
X5119109Y2791386D01*
X5119109Y2187821D01*
X4980792Y2187821D01*
X4980792Y2395868D01*
X4980697Y2466121D01*
X4980051Y2523830D01*
X4978320Y2564213D01*
X4974974Y2591385D01*
X4969481Y2609460D01*
X4961310Y2622553D01*
X4949928Y2634779D01*
X4934424Y2647783D01*
X4889843Y2665255D01*
X4843047Y2660127D01*
X4800180Y2632493D01*
X4787927Y2619632D01*
X4779132Y2606616D01*
X4773233Y2589294D01*
X4769651Y2563499D01*
X4767809Y2525061D01*
X4767128Y2469811D01*
X4767030Y2393582D01*
X4767030Y2187821D01*
X4628713Y2187821D01*
X4628989Y2411015D01*
X4629008Y2420956D01*
X4630207Y2515894D01*
X4633891Y2589642D01*
X4641006Y2645786D01*
X4652500Y2687913D01*
X4669318Y2719609D01*
X4692409Y2744459D01*
X4722717Y2766050D01*
X4754012Y2780998D01*
X4817037Y2794579D01*
X4882605Y2792576D01*
G36*
X4882605Y2792576D02*
G01*
X4939926Y2774566D01*
X4965199Y2762326D01*
X4977910Y2761062D01*
X4980792Y2772202D01*
X4980795Y2772539D01*
X4987006Y2783913D01*
X5008428Y2789744D01*
X5049950Y2791386D01*
X5119109Y2791386D01*
X5119109Y2187821D01*
X4980792Y2187821D01*
X4980792Y2395868D01*
X4980697Y2466121D01*
X4980051Y2523830D01*
X4978320Y2564213D01*
X4974974Y2591385D01*
X4969481Y2609460D01*
X4961310Y2622553D01*
X4949928Y2634779D01*
X4934424Y2647783D01*
X4889843Y2665255D01*
X4843047Y2660127D01*
X4800180Y2632493D01*
X4787927Y2619632D01*
X4779132Y2606616D01*
X4773233Y2589294D01*
X4769651Y2563499D01*
X4767809Y2525061D01*
X4767128Y2469811D01*
X4767030Y2393582D01*
X4767030Y2187821D01*
X4628713Y2187821D01*
X4628989Y2411015D01*
X4629008Y2420956D01*
X4630207Y2515894D01*
X4633891Y2589642D01*
X4641006Y2645786D01*
X4652500Y2687913D01*
X4669318Y2719609D01*
X4692409Y2744459D01*
X4722717Y2766050D01*
X4754012Y2780998D01*
X4817037Y2794579D01*
X4882605Y2792576D01*
G37*
X1933409Y2788507D02*
X2002021Y2761776D01*
X2060048Y2717649D01*
X2102907Y2657042D01*
X2105801Y2650863D01*
X2124176Y2590591D01*
X2133357Y2518593D01*
X2133285Y2443631D01*
X2123901Y2374464D01*
X2105149Y2319851D01*
X2081995Y2281788D01*
X2031030Y2227865D01*
X1967306Y2193589D01*
X1912785Y2179728D01*
X1829767Y2178215D01*
X1750326Y2199118D01*
X1679879Y2241536D01*
X1634284Y2279120D01*
X1675351Y2321490D01*
X1701296Y2346591D01*
X1724764Y2360566D01*
X1746524Y2357489D01*
X1774356Y2338713D01*
X1785454Y2331362D01*
X1832337Y2316317D01*
X1886224Y2316327D01*
X1936675Y2331832D01*
X1955672Y2344284D01*
X1983537Y2381054D01*
X1997506Y2435061D01*
X1998405Y2508669D01*
X1998403Y2508711D01*
X1988009Y2574567D01*
X1965114Y2620228D01*
X1927439Y2648472D01*
X1872708Y2662080D01*
X1838241Y2663910D01*
X1808126Y2656416D01*
X1777240Y2634705D01*
X1737272Y2601074D01*
X1686656Y2641750D01*
X1668163Y2657333D01*
X1645065Y2679660D01*
X1636039Y2692817D01*
X1639236Y2698747D01*
X1657646Y2716952D01*
X1686973Y2740105D01*
X1709920Y2755170D01*
X1782774Y2786120D01*
X1858799Y2796927D01*
X1933409Y2788507D01*
G36*
X1933409Y2788507D02*
G01*
X2002021Y2761776D01*
X2060048Y2717649D01*
X2102907Y2657042D01*
X2105801Y2650863D01*
X2124176Y2590591D01*
X2133357Y2518593D01*
X2133285Y2443631D01*
X2123901Y2374464D01*
X2105149Y2319851D01*
X2081995Y2281788D01*
X2031030Y2227865D01*
X1967306Y2193589D01*
X1912785Y2179728D01*
X1829767Y2178215D01*
X1750326Y2199118D01*
X1679879Y2241536D01*
X1634284Y2279120D01*
X1675351Y2321490D01*
X1701296Y2346591D01*
X1724764Y2360566D01*
X1746524Y2357489D01*
X1774356Y2338713D01*
X1785454Y2331362D01*
X1832337Y2316317D01*
X1886224Y2316327D01*
X1936675Y2331832D01*
X1955672Y2344284D01*
X1983537Y2381054D01*
X1997506Y2435061D01*
X1998405Y2508669D01*
X1998403Y2508711D01*
X1988009Y2574567D01*
X1965114Y2620228D01*
X1927439Y2648472D01*
X1872708Y2662080D01*
X1838241Y2663910D01*
X1808126Y2656416D01*
X1777240Y2634705D01*
X1737272Y2601074D01*
X1686656Y2641750D01*
X1668163Y2657333D01*
X1645065Y2679660D01*
X1636039Y2692817D01*
X1639236Y2698747D01*
X1657646Y2716952D01*
X1686973Y2740105D01*
X1709920Y2755170D01*
X1782774Y2786120D01*
X1858799Y2796927D01*
X1933409Y2788507D01*
G37*
X3732857Y2446229D02*
X3729349Y2406435D01*
X3713844Y2330462D01*
X3686110Y2272489D01*
X3643898Y2228700D01*
X3584960Y2195278D01*
X3562076Y2187324D01*
X3502812Y2177399D01*
X3440447Y2177669D01*
X3387823Y2188570D01*
X3386789Y2188966D01*
X3344381Y2213913D01*
X3301537Y2252532D01*
X3265986Y2296694D01*
X3245459Y2338273D01*
X3239374Y2368666D01*
X3234164Y2425571D01*
X3233291Y2476295D01*
X3359976Y2476295D01*
X3367549Y2415455D01*
X3385341Y2365462D01*
X3412296Y2332796D01*
X3422513Y2327188D01*
X3461473Y2316993D01*
X3506536Y2314896D01*
X3544448Y2321980D01*
X3559244Y2332139D01*
X3580014Y2367666D01*
X3593083Y2423268D01*
X3597624Y2496234D01*
X3597551Y2517238D01*
X3595974Y2559797D01*
X3590728Y2587561D01*
X3579723Y2608075D01*
X3560868Y2628888D01*
X3524989Y2654113D01*
X3478280Y2664427D01*
X3433151Y2654604D01*
X3395680Y2626195D01*
X3371943Y2580747D01*
X3363675Y2541503D01*
X3359976Y2476295D01*
X3233291Y2476295D01*
X3233049Y2490379D01*
X3235844Y2554884D01*
X3242366Y2610879D01*
X3252432Y2650158D01*
X3275877Y2694628D01*
X3325637Y2749308D01*
X3389238Y2783945D01*
X3464790Y2797655D01*
X3550399Y2789552D01*
X3564644Y2786101D01*
X3630982Y2756336D01*
X3680971Y2707470D01*
X3714612Y2639499D01*
X3731906Y2552420D01*
X3732410Y2496234D01*
X3732857Y2446229D01*
G36*
X3732857Y2446229D02*
G01*
X3729349Y2406435D01*
X3713844Y2330462D01*
X3686110Y2272489D01*
X3643898Y2228700D01*
X3584960Y2195278D01*
X3562076Y2187324D01*
X3502812Y2177399D01*
X3440447Y2177669D01*
X3387823Y2188570D01*
X3386789Y2188966D01*
X3344381Y2213913D01*
X3301537Y2252532D01*
X3265986Y2296694D01*
X3245459Y2338273D01*
X3239374Y2368666D01*
X3234164Y2425571D01*
X3233291Y2476295D01*
X3359976Y2476295D01*
X3367549Y2415455D01*
X3385341Y2365462D01*
X3412296Y2332796D01*
X3422513Y2327188D01*
X3461473Y2316993D01*
X3506536Y2314896D01*
X3544448Y2321980D01*
X3559244Y2332139D01*
X3580014Y2367666D01*
X3593083Y2423268D01*
X3597624Y2496234D01*
X3597551Y2517238D01*
X3595974Y2559797D01*
X3590728Y2587561D01*
X3579723Y2608075D01*
X3560868Y2628888D01*
X3524989Y2654113D01*
X3478280Y2664427D01*
X3433151Y2654604D01*
X3395680Y2626195D01*
X3371943Y2580747D01*
X3363675Y2541503D01*
X3359976Y2476295D01*
X3233291Y2476295D01*
X3233049Y2490379D01*
X3235844Y2554884D01*
X3242366Y2610879D01*
X3252432Y2650158D01*
X3275877Y2694628D01*
X3325637Y2749308D01*
X3389238Y2783945D01*
X3464790Y2797655D01*
X3550399Y2789552D01*
X3564644Y2786101D01*
X3630982Y2756336D01*
X3680971Y2707470D01*
X3714612Y2639499D01*
X3731906Y2552420D01*
X3732410Y2496234D01*
X3732857Y2446229D01*
G37*
X3832997Y1650870D02*
X3849997Y1600150D01*
X3870107Y1544003D01*
X3886899Y1501468D01*
X3898986Y1476010D01*
X3904980Y1471097D01*
X3906426Y1475370D01*
X3914254Y1501578D01*
X3926723Y1545351D01*
X3942447Y1601789D01*
X3960043Y1665990D01*
X4007914Y1842029D01*
X4081007Y1845848D01*
X4087177Y1846154D01*
X4126592Y1846559D01*
X4145533Y1842513D01*
X4147945Y1833274D01*
X4144898Y1824251D01*
X4134874Y1793368D01*
X4119180Y1744456D01*
X4098934Y1681013D01*
X4075256Y1606538D01*
X4049263Y1524529D01*
X3956736Y1232178D01*
X3840993Y1232178D01*
X3786457Y1417648D01*
X3776386Y1451706D01*
X3757775Y1513622D01*
X3741872Y1565213D01*
X3730109Y1601870D01*
X3723918Y1618982D01*
X3722154Y1620259D01*
X3713571Y1609221D01*
X3701316Y1580031D01*
X3687426Y1537250D01*
X3686692Y1534737D01*
X3668096Y1471600D01*
X3646818Y1400111D01*
X3627321Y1335266D01*
X3595705Y1230878D01*
X3537402Y1234672D01*
X3479098Y1238465D01*
X3425098Y1408218D01*
X3401390Y1482807D01*
X3374833Y1566461D01*
X3349404Y1646658D01*
X3328354Y1713143D01*
X3285609Y1848317D01*
X3428612Y1848317D01*
X3463274Y1719430D01*
X3472488Y1685375D01*
X3489915Y1621885D01*
X3506054Y1564126D01*
X3518322Y1521386D01*
X3538709Y1452227D01*
X3668745Y1842029D01*
X3718476Y1845763D01*
X3768206Y1849496D01*
X3832997Y1650870D01*
G36*
X3832997Y1650870D02*
G01*
X3849997Y1600150D01*
X3870107Y1544003D01*
X3886899Y1501468D01*
X3898986Y1476010D01*
X3904980Y1471097D01*
X3906426Y1475370D01*
X3914254Y1501578D01*
X3926723Y1545351D01*
X3942447Y1601789D01*
X3960043Y1665990D01*
X4007914Y1842029D01*
X4081007Y1845848D01*
X4087177Y1846154D01*
X4126592Y1846559D01*
X4145533Y1842513D01*
X4147945Y1833274D01*
X4144898Y1824251D01*
X4134874Y1793368D01*
X4119180Y1744456D01*
X4098934Y1681013D01*
X4075256Y1606538D01*
X4049263Y1524529D01*
X3956736Y1232178D01*
X3840993Y1232178D01*
X3786457Y1417648D01*
X3776386Y1451706D01*
X3757775Y1513622D01*
X3741872Y1565213D01*
X3730109Y1601870D01*
X3723918Y1618982D01*
X3722154Y1620259D01*
X3713571Y1609221D01*
X3701316Y1580031D01*
X3687426Y1537250D01*
X3686692Y1534737D01*
X3668096Y1471600D01*
X3646818Y1400111D01*
X3627321Y1335266D01*
X3595705Y1230878D01*
X3537402Y1234672D01*
X3479098Y1238465D01*
X3425098Y1408218D01*
X3401390Y1482807D01*
X3374833Y1566461D01*
X3349404Y1646658D01*
X3328354Y1713143D01*
X3285609Y1848317D01*
X3428612Y1848317D01*
X3463274Y1719430D01*
X3472488Y1685375D01*
X3489915Y1621885D01*
X3506054Y1564126D01*
X3518322Y1521386D01*
X3538709Y1452227D01*
X3668745Y1842029D01*
X3718476Y1845763D01*
X3768206Y1849496D01*
X3832997Y1650870D01*
G37*
X6864997Y2455069D02*
X6863373Y2415690D01*
X6859688Y2367668D01*
X6853410Y2333632D01*
X6843044Y2306662D01*
X6827092Y2279842D01*
X6826412Y2278825D01*
X6787132Y2235371D01*
X6739072Y2202228D01*
X6683185Y2182561D01*
X6609666Y2176176D01*
X6537609Y2188732D01*
X6473201Y2218989D01*
X6422627Y2265706D01*
X6408108Y2287779D01*
X6380993Y2356398D01*
X6367546Y2441061D01*
X6367776Y2462477D01*
X6502920Y2462477D01*
X6503174Y2422426D01*
X6507421Y2395687D01*
X6517096Y2375141D01*
X6533638Y2353669D01*
X6556593Y2332361D01*
X6602505Y2313347D01*
X6651802Y2316878D01*
X6698917Y2343306D01*
X6712207Y2355928D01*
X6726397Y2377535D01*
X6734266Y2407906D01*
X6738726Y2455230D01*
X6739955Y2490781D01*
X6733224Y2563380D01*
X6712567Y2615358D01*
X6677894Y2647001D01*
X6637249Y2662153D01*
X6588777Y2660877D01*
X6543845Y2635297D01*
X6533103Y2625558D01*
X6519548Y2608520D01*
X6511505Y2586228D01*
X6507043Y2552053D01*
X6504228Y2499362D01*
X6502920Y2462477D01*
X6367776Y2462477D01*
X6368583Y2537649D01*
X6369907Y2551349D01*
X6388374Y2639092D01*
X6422540Y2707207D01*
X6472479Y2755769D01*
X6538261Y2784852D01*
X6619961Y2794529D01*
X6650828Y2793621D01*
X6714128Y2782507D01*
X6765889Y2755979D01*
X6814147Y2710564D01*
X6821865Y2701449D01*
X6842681Y2670752D01*
X6856362Y2635993D01*
X6863948Y2591944D01*
X6866479Y2533379D01*
X6865672Y2490781D01*
X6864997Y2455069D01*
G36*
X6864997Y2455069D02*
G01*
X6863373Y2415690D01*
X6859688Y2367668D01*
X6853410Y2333632D01*
X6843044Y2306662D01*
X6827092Y2279842D01*
X6826412Y2278825D01*
X6787132Y2235371D01*
X6739072Y2202228D01*
X6683185Y2182561D01*
X6609666Y2176176D01*
X6537609Y2188732D01*
X6473201Y2218989D01*
X6422627Y2265706D01*
X6408108Y2287779D01*
X6380993Y2356398D01*
X6367546Y2441061D01*
X6367776Y2462477D01*
X6502920Y2462477D01*
X6503174Y2422426D01*
X6507421Y2395687D01*
X6517096Y2375141D01*
X6533638Y2353669D01*
X6556593Y2332361D01*
X6602505Y2313347D01*
X6651802Y2316878D01*
X6698917Y2343306D01*
X6712207Y2355928D01*
X6726397Y2377535D01*
X6734266Y2407906D01*
X6738726Y2455230D01*
X6739955Y2490781D01*
X6733224Y2563380D01*
X6712567Y2615358D01*
X6677894Y2647001D01*
X6637249Y2662153D01*
X6588777Y2660877D01*
X6543845Y2635297D01*
X6533103Y2625558D01*
X6519548Y2608520D01*
X6511505Y2586228D01*
X6507043Y2552053D01*
X6504228Y2499362D01*
X6502920Y2462477D01*
X6367776Y2462477D01*
X6368583Y2537649D01*
X6369907Y2551349D01*
X6388374Y2639092D01*
X6422540Y2707207D01*
X6472479Y2755769D01*
X6538261Y2784852D01*
X6619961Y2794529D01*
X6650828Y2793621D01*
X6714128Y2782507D01*
X6765889Y2755979D01*
X6814147Y2710564D01*
X6821865Y2701449D01*
X6842681Y2670752D01*
X6856362Y2635993D01*
X6863948Y2591944D01*
X6866479Y2533379D01*
X6865672Y2490781D01*
X6864997Y2455069D01*
G37*
X4690761Y1493187D02*
X4689167Y1439429D01*
X4685962Y1401982D01*
X4685413Y1398550D01*
X4663838Y1337165D01*
X4624438Y1285123D01*
X4572752Y1249865D01*
X4517248Y1235271D01*
X4448977Y1236403D01*
X4386173Y1255971D01*
X4369815Y1264229D01*
X4348779Y1273077D01*
X4340774Y1270324D01*
X4339505Y1255971D01*
X4338922Y1248814D01*
X4331394Y1238228D01*
X4310488Y1233355D01*
X4270346Y1232178D01*
X4201188Y1232178D01*
X4201188Y1534070D01*
X4339505Y1534070D01*
X4340496Y1481770D01*
X4344519Y1446950D01*
X4353108Y1423095D01*
X4367797Y1403105D01*
X4406584Y1373382D01*
X4451974Y1363418D01*
X4495989Y1375740D01*
X4533060Y1410112D01*
X4542859Y1435265D01*
X4550097Y1479806D01*
X4553279Y1533845D01*
X4552277Y1589272D01*
X4546961Y1637978D01*
X4537204Y1671852D01*
X4534087Y1677407D01*
X4504038Y1705326D01*
X4463315Y1717694D01*
X4419579Y1714817D01*
X4380491Y1697000D01*
X4353710Y1664548D01*
X4352603Y1661819D01*
X4345963Y1631366D01*
X4341278Y1585861D01*
X4339505Y1534070D01*
X4201188Y1534070D01*
X4201188Y2087227D01*
X4339505Y2087227D01*
X4339505Y1794122D01*
X4365124Y1817307D01*
X4389792Y1831718D01*
X4436480Y1843764D01*
X4491056Y1847646D01*
X4544354Y1842880D01*
X4587207Y1828986D01*
X4617878Y1809221D01*
X4649471Y1775551D01*
X4670733Y1730270D01*
X4683514Y1669019D01*
X4689664Y1587437D01*
X4690568Y1554460D01*
X4690633Y1533845D01*
X4690761Y1493187D01*
G36*
X4690761Y1493187D02*
G01*
X4689167Y1439429D01*
X4685962Y1401982D01*
X4685413Y1398550D01*
X4663838Y1337165D01*
X4624438Y1285123D01*
X4572752Y1249865D01*
X4517248Y1235271D01*
X4448977Y1236403D01*
X4386173Y1255971D01*
X4369815Y1264229D01*
X4348779Y1273077D01*
X4340774Y1270324D01*
X4339505Y1255971D01*
X4338922Y1248814D01*
X4331394Y1238228D01*
X4310488Y1233355D01*
X4270346Y1232178D01*
X4201188Y1232178D01*
X4201188Y1534070D01*
X4339505Y1534070D01*
X4340496Y1481770D01*
X4344519Y1446950D01*
X4353108Y1423095D01*
X4367797Y1403105D01*
X4406584Y1373382D01*
X4451974Y1363418D01*
X4495989Y1375740D01*
X4533060Y1410112D01*
X4542859Y1435265D01*
X4550097Y1479806D01*
X4553279Y1533845D01*
X4552277Y1589272D01*
X4546961Y1637978D01*
X4537204Y1671852D01*
X4534087Y1677407D01*
X4504038Y1705326D01*
X4463315Y1717694D01*
X4419579Y1714817D01*
X4380491Y1697000D01*
X4353710Y1664548D01*
X4352603Y1661819D01*
X4345963Y1631366D01*
X4341278Y1585861D01*
X4339505Y1534070D01*
X4201188Y1534070D01*
X4201188Y2087227D01*
X4339505Y2087227D01*
X4339505Y1794122D01*
X4365124Y1817307D01*
X4389792Y1831718D01*
X4436480Y1843764D01*
X4491056Y1847646D01*
X4544354Y1842880D01*
X4587207Y1828986D01*
X4617878Y1809221D01*
X4649471Y1775551D01*
X4670733Y1730270D01*
X4683514Y1669019D01*
X4689664Y1587437D01*
X4690568Y1554460D01*
X4690633Y1533845D01*
X4690761Y1493187D01*
G37*
X1619444Y2530122D02*
X1617825Y2433879D01*
X1617615Y2431986D01*
X1599535Y2343675D01*
X1566870Y2275014D01*
X1518601Y2224494D01*
X1453713Y2190607D01*
X1441801Y2186732D01*
X1367971Y2175312D01*
X1291614Y2181680D01*
X1220626Y2204437D01*
X1162904Y2242181D01*
X1119667Y2282128D01*
X1165625Y2318468D01*
X1211583Y2354807D01*
X1266969Y2327899D01*
X1331056Y2306095D01*
X1387632Y2305442D01*
X1433920Y2325475D01*
X1467230Y2365685D01*
X1479171Y2389778D01*
X1485837Y2410370D01*
X1481980Y2424280D01*
X1464675Y2432819D01*
X1430997Y2437296D01*
X1378021Y2439022D01*
X1302822Y2439307D01*
X1120495Y2439307D01*
X1120495Y2526508D01*
X1121857Y2564790D01*
X1250234Y2564790D01*
X1256399Y2557749D01*
X1274654Y2554084D01*
X1309352Y2552694D01*
X1364846Y2552475D01*
X1394603Y2552824D01*
X1441562Y2555133D01*
X1473416Y2559178D01*
X1485148Y2564458D01*
X1482146Y2583938D01*
X1460988Y2621214D01*
X1425731Y2651836D01*
X1383699Y2670332D01*
X1342220Y2671227D01*
X1310997Y2656396D01*
X1275618Y2622645D01*
X1253122Y2580767D01*
X1251805Y2576310D01*
X1250234Y2564790D01*
X1121857Y2564790D01*
X1122136Y2572629D01*
X1126955Y2618260D01*
X1133840Y2649107D01*
X1138859Y2660883D01*
X1175390Y2713333D01*
X1228175Y2757079D01*
X1289904Y2785721D01*
X1322102Y2793543D01*
X1398820Y2797104D01*
X1467179Y2778991D01*
X1525299Y2741221D01*
X1571302Y2685809D01*
X1603310Y2614771D01*
X1612900Y2564458D01*
X1619444Y2530122D01*
G36*
X1619444Y2530122D02*
G01*
X1617825Y2433879D01*
X1617615Y2431986D01*
X1599535Y2343675D01*
X1566870Y2275014D01*
X1518601Y2224494D01*
X1453713Y2190607D01*
X1441801Y2186732D01*
X1367971Y2175312D01*
X1291614Y2181680D01*
X1220626Y2204437D01*
X1162904Y2242181D01*
X1119667Y2282128D01*
X1165625Y2318468D01*
X1211583Y2354807D01*
X1266969Y2327899D01*
X1331056Y2306095D01*
X1387632Y2305442D01*
X1433920Y2325475D01*
X1467230Y2365685D01*
X1479171Y2389778D01*
X1485837Y2410370D01*
X1481980Y2424280D01*
X1464675Y2432819D01*
X1430997Y2437296D01*
X1378021Y2439022D01*
X1302822Y2439307D01*
X1120495Y2439307D01*
X1120495Y2526508D01*
X1121857Y2564790D01*
X1250234Y2564790D01*
X1256399Y2557749D01*
X1274654Y2554084D01*
X1309352Y2552694D01*
X1364846Y2552475D01*
X1394603Y2552824D01*
X1441562Y2555133D01*
X1473416Y2559178D01*
X1485148Y2564458D01*
X1482146Y2583938D01*
X1460988Y2621214D01*
X1425731Y2651836D01*
X1383699Y2670332D01*
X1342220Y2671227D01*
X1310997Y2656396D01*
X1275618Y2622645D01*
X1253122Y2580767D01*
X1251805Y2576310D01*
X1250234Y2564790D01*
X1121857Y2564790D01*
X1122136Y2572629D01*
X1126955Y2618260D01*
X1133840Y2649107D01*
X1138859Y2660883D01*
X1175390Y2713333D01*
X1228175Y2757079D01*
X1289904Y2785721D01*
X1322102Y2793543D01*
X1398820Y2797104D01*
X1467179Y2778991D01*
X1525299Y2741221D01*
X1571302Y2685809D01*
X1603310Y2614771D01*
X1612900Y2564458D01*
X1619444Y2530122D01*
G37*
X4098874Y2791793D02*
X4171495Y2773592D01*
X4224546Y2739856D01*
X4258329Y2690358D01*
X4273147Y2624874D01*
X4270147Y2562180D01*
X4248493Y2509301D01*
X4206967Y2470204D01*
X4144736Y2444127D01*
X4060969Y2430305D01*
X4006540Y2423060D01*
X3956860Y2407385D01*
X3931211Y2384686D01*
X3929662Y2355002D01*
X3939984Y2336493D01*
X3971951Y2314557D01*
X4017395Y2304182D01*
X4070649Y2305601D01*
X4126048Y2319048D01*
X4177928Y2344757D01*
X4229653Y2378987D01*
X4275148Y2332951D01*
X4320643Y2286916D01*
X4282921Y2256124D01*
X4268253Y2245426D01*
X4226983Y2221120D01*
X4182327Y2200175D01*
X4146984Y2188155D01*
X4095234Y2179448D01*
X4031435Y2179333D01*
X3953200Y2188919D01*
X3882722Y2213217D01*
X3832836Y2251812D01*
X3803423Y2304802D01*
X3794365Y2372282D01*
X3800921Y2431646D01*
X3821970Y2480248D01*
X3859864Y2515054D01*
X3917004Y2538202D01*
X3995785Y2551830D01*
X4004834Y2552817D01*
X4053885Y2559108D01*
X4093675Y2565691D01*
X4116312Y2571292D01*
X4123866Y2575803D01*
X4136637Y2599059D01*
X4134563Y2628829D01*
X4117495Y2654673D01*
X4108533Y2660309D01*
X4071188Y2669340D01*
X4022950Y2668733D01*
X3972650Y2659122D01*
X3929115Y2641142D01*
X3883372Y2614153D01*
X3847890Y2655616D01*
X3839280Y2666150D01*
X3819883Y2694368D01*
X3811897Y2713492D01*
X3820283Y2725219D01*
X3846226Y2743524D01*
X3883688Y2763223D01*
X3888966Y2765630D01*
X3938366Y2784518D01*
X3985983Y2793548D01*
X4045072Y2795361D01*
X4098874Y2791793D01*
G36*
X4098874Y2791793D02*
G01*
X4171495Y2773592D01*
X4224546Y2739856D01*
X4258329Y2690358D01*
X4273147Y2624874D01*
X4270147Y2562180D01*
X4248493Y2509301D01*
X4206967Y2470204D01*
X4144736Y2444127D01*
X4060969Y2430305D01*
X4006540Y2423060D01*
X3956860Y2407385D01*
X3931211Y2384686D01*
X3929662Y2355002D01*
X3939984Y2336493D01*
X3971951Y2314557D01*
X4017395Y2304182D01*
X4070649Y2305601D01*
X4126048Y2319048D01*
X4177928Y2344757D01*
X4229653Y2378987D01*
X4275148Y2332951D01*
X4320643Y2286916D01*
X4282921Y2256124D01*
X4268253Y2245426D01*
X4226983Y2221120D01*
X4182327Y2200175D01*
X4146984Y2188155D01*
X4095234Y2179448D01*
X4031435Y2179333D01*
X3953200Y2188919D01*
X3882722Y2213217D01*
X3832836Y2251812D01*
X3803423Y2304802D01*
X3794365Y2372282D01*
X3800921Y2431646D01*
X3821970Y2480248D01*
X3859864Y2515054D01*
X3917004Y2538202D01*
X3995785Y2551830D01*
X4004834Y2552817D01*
X4053885Y2559108D01*
X4093675Y2565691D01*
X4116312Y2571292D01*
X4123866Y2575803D01*
X4136637Y2599059D01*
X4134563Y2628829D01*
X4117495Y2654673D01*
X4108533Y2660309D01*
X4071188Y2669340D01*
X4022950Y2668733D01*
X3972650Y2659122D01*
X3929115Y2641142D01*
X3883372Y2614153D01*
X3847890Y2655616D01*
X3839280Y2666150D01*
X3819883Y2694368D01*
X3811897Y2713492D01*
X3820283Y2725219D01*
X3846226Y2743524D01*
X3883688Y2763223D01*
X3888966Y2765630D01*
X3938366Y2784518D01*
X3985983Y2793548D01*
X4045072Y2795361D01*
X4098874Y2791793D01*
G37*
X2264353Y1540247D02*
X2262718Y1493308D01*
X2247827Y1403541D01*
X2217185Y1332955D01*
X2170524Y1281048D01*
X2107574Y1247314D01*
X2087235Y1241353D01*
X2014612Y1233029D01*
X1937928Y1240054D01*
X1868663Y1261735D01*
X1844262Y1274041D01*
X1809275Y1295121D01*
X1788072Y1312466D01*
X1784942Y1316429D01*
X1779085Y1330923D01*
X1787524Y1346679D01*
X1813221Y1370540D01*
X1825622Y1380928D01*
X1850052Y1399937D01*
X1862861Y1407707D01*
X1866530Y1406906D01*
X1887561Y1398255D01*
X1918960Y1383069D01*
X1929197Y1378074D01*
X1989590Y1359525D01*
X2042057Y1364306D01*
X2088065Y1392500D01*
X2093419Y1397709D01*
X2119013Y1430341D01*
X2133637Y1461658D01*
X2141736Y1496237D01*
X1761782Y1496237D01*
X1761852Y1562252D01*
X1761892Y1568818D01*
X1767022Y1621782D01*
X1900099Y1621782D01*
X1901670Y1610797D01*
X1909738Y1603227D01*
X1928967Y1599025D01*
X1964019Y1597217D01*
X2019554Y1596831D01*
X2050429Y1597232D01*
X2096002Y1599571D01*
X2127348Y1603535D01*
X2139010Y1608587D01*
X2129064Y1650173D01*
X2099947Y1688987D01*
X2057952Y1715914D01*
X2009440Y1725228D01*
X1973723Y1714728D01*
X1938020Y1689060D01*
X1910879Y1655619D01*
X1900099Y1621782D01*
X1767022Y1621782D01*
X1769758Y1650035D01*
X1792655Y1716105D01*
X1832607Y1773060D01*
X1856979Y1797152D01*
X1907315Y1829403D01*
X1967419Y1845030D01*
X2043338Y1846129D01*
X2080010Y1841821D01*
X2147703Y1819451D01*
X2199530Y1778737D01*
X2235945Y1719051D01*
X2257401Y1639764D01*
X2259579Y1608587D01*
X2264353Y1540247D01*
G36*
X2264353Y1540247D02*
G01*
X2262718Y1493308D01*
X2247827Y1403541D01*
X2217185Y1332955D01*
X2170524Y1281048D01*
X2107574Y1247314D01*
X2087235Y1241353D01*
X2014612Y1233029D01*
X1937928Y1240054D01*
X1868663Y1261735D01*
X1844262Y1274041D01*
X1809275Y1295121D01*
X1788072Y1312466D01*
X1784942Y1316429D01*
X1779085Y1330923D01*
X1787524Y1346679D01*
X1813221Y1370540D01*
X1825622Y1380928D01*
X1850052Y1399937D01*
X1862861Y1407707D01*
X1866530Y1406906D01*
X1887561Y1398255D01*
X1918960Y1383069D01*
X1929197Y1378074D01*
X1989590Y1359525D01*
X2042057Y1364306D01*
X2088065Y1392500D01*
X2093419Y1397709D01*
X2119013Y1430341D01*
X2133637Y1461658D01*
X2141736Y1496237D01*
X1761782Y1496237D01*
X1761852Y1562252D01*
X1761892Y1568818D01*
X1767022Y1621782D01*
X1900099Y1621782D01*
X1901670Y1610797D01*
X1909738Y1603227D01*
X1928967Y1599025D01*
X1964019Y1597217D01*
X2019554Y1596831D01*
X2050429Y1597232D01*
X2096002Y1599571D01*
X2127348Y1603535D01*
X2139010Y1608587D01*
X2129064Y1650173D01*
X2099947Y1688987D01*
X2057952Y1715914D01*
X2009440Y1725228D01*
X1973723Y1714728D01*
X1938020Y1689060D01*
X1910879Y1655619D01*
X1900099Y1621782D01*
X1767022Y1621782D01*
X1769758Y1650035D01*
X1792655Y1716105D01*
X1832607Y1773060D01*
X1856979Y1797152D01*
X1907315Y1829403D01*
X1967419Y1845030D01*
X2043338Y1846129D01*
X2080010Y1841821D01*
X2147703Y1819451D01*
X2199530Y1778737D01*
X2235945Y1719051D01*
X2257401Y1639764D01*
X2259579Y1608587D01*
X2264353Y1540247D01*
G37*
X5707022Y2565139D02*
X5711421Y2477064D01*
X5710322Y2438629D01*
X5697926Y2354633D01*
X5670608Y2288405D01*
X5626941Y2237216D01*
X5565495Y2198337D01*
X5505888Y2180188D01*
X5431110Y2176716D01*
X5355664Y2190070D01*
X5288366Y2219575D01*
X5263428Y2235988D01*
X5235951Y2257027D01*
X5223414Y2270871D01*
X5224124Y2276583D01*
X5238158Y2296045D01*
X5264533Y2319624D01*
X5310240Y2354487D01*
X5363799Y2327738D01*
X5378282Y2321118D01*
X5420916Y2306727D01*
X5456649Y2300990D01*
X5482998Y2305718D01*
X5524347Y2328486D01*
X5559104Y2363830D01*
X5578983Y2404727D01*
X5587083Y2439307D01*
X5207129Y2439307D01*
X5207199Y2505321D01*
X5207774Y2526243D01*
X5211972Y2571138D01*
X5345445Y2571138D01*
X5345690Y2568566D01*
X5352604Y2560557D01*
X5372141Y2555636D01*
X5408467Y2553157D01*
X5465748Y2552475D01*
X5484575Y2552483D01*
X5533470Y2552935D01*
X5562863Y2554887D01*
X5577115Y2559442D01*
X5580582Y2567701D01*
X5577625Y2580767D01*
X5577173Y2582248D01*
X5551699Y2627715D01*
X5511539Y2659019D01*
X5463651Y2670673D01*
X5445949Y2669741D01*
X5413094Y2658592D01*
X5381575Y2630237D01*
X5373085Y2620211D01*
X5353336Y2591577D01*
X5345445Y2571138D01*
X5211972Y2571138D01*
X5212512Y2576909D01*
X5220459Y2618834D01*
X5229168Y2642304D01*
X5259790Y2693354D01*
X5300799Y2739717D01*
X5344168Y2771486D01*
X5356699Y2777386D01*
X5429661Y2796954D01*
X5504168Y2794891D01*
X5574217Y2772069D01*
X5633807Y2729361D01*
X5666038Y2689975D01*
X5692392Y2634490D01*
X5706482Y2567701D01*
X5707022Y2565139D01*
G36*
X5707022Y2565139D02*
G01*
X5711421Y2477064D01*
X5710322Y2438629D01*
X5697926Y2354633D01*
X5670608Y2288405D01*
X5626941Y2237216D01*
X5565495Y2198337D01*
X5505888Y2180188D01*
X5431110Y2176716D01*
X5355664Y2190070D01*
X5288366Y2219575D01*
X5263428Y2235988D01*
X5235951Y2257027D01*
X5223414Y2270871D01*
X5224124Y2276583D01*
X5238158Y2296045D01*
X5264533Y2319624D01*
X5310240Y2354487D01*
X5363799Y2327738D01*
X5378282Y2321118D01*
X5420916Y2306727D01*
X5456649Y2300990D01*
X5482998Y2305718D01*
X5524347Y2328486D01*
X5559104Y2363830D01*
X5578983Y2404727D01*
X5587083Y2439307D01*
X5207129Y2439307D01*
X5207199Y2505321D01*
X5207774Y2526243D01*
X5211972Y2571138D01*
X5345445Y2571138D01*
X5345690Y2568566D01*
X5352604Y2560557D01*
X5372141Y2555636D01*
X5408467Y2553157D01*
X5465748Y2552475D01*
X5484575Y2552483D01*
X5533470Y2552935D01*
X5562863Y2554887D01*
X5577115Y2559442D01*
X5580582Y2567701D01*
X5577625Y2580767D01*
X5577173Y2582248D01*
X5551699Y2627715D01*
X5511539Y2659019D01*
X5463651Y2670673D01*
X5445949Y2669741D01*
X5413094Y2658592D01*
X5381575Y2630237D01*
X5373085Y2620211D01*
X5353336Y2591577D01*
X5345445Y2571138D01*
X5211972Y2571138D01*
X5212512Y2576909D01*
X5220459Y2618834D01*
X5229168Y2642304D01*
X5259790Y2693354D01*
X5300799Y2739717D01*
X5344168Y2771486D01*
X5356699Y2777386D01*
X5429661Y2796954D01*
X5504168Y2794891D01*
X5574217Y2772069D01*
X5633807Y2729361D01*
X5666038Y2689975D01*
X5692392Y2634490D01*
X5706482Y2567701D01*
X5707022Y2565139D01*
G37*
X3289413Y1397667D02*
X3274244Y1340581D01*
X3241277Y1291745D01*
X3191270Y1256614D01*
X3186362Y1254479D01*
X3131646Y1239097D01*
X3069993Y1233101D01*
X3011376Y1236767D01*
X2965767Y1250371D01*
X2947549Y1259246D01*
X2934179Y1261363D01*
X2931188Y1250294D01*
X2925524Y1240058D01*
X2903607Y1233962D01*
X2861068Y1232178D01*
X2790948Y1232178D01*
X2795053Y1474232D01*
X2795492Y1496237D01*
X2931188Y1496237D01*
X2931188Y1452227D01*
X2935924Y1419334D01*
X2956336Y1383069D01*
X2963871Y1376403D01*
X2994753Y1362380D01*
X3041213Y1358772D01*
X3069090Y1360181D01*
X3121255Y1370796D01*
X3153587Y1390575D01*
X3164492Y1418176D01*
X3152374Y1452257D01*
X3145304Y1461176D01*
X3113724Y1481182D01*
X3063744Y1492605D01*
X2992487Y1496237D01*
X2931188Y1496237D01*
X2795492Y1496237D01*
X2796169Y1530206D01*
X2799106Y1614004D01*
X2804058Y1678080D01*
X2812002Y1725927D01*
X2823917Y1761038D01*
X2840780Y1786907D01*
X2863572Y1807026D01*
X2893269Y1824890D01*
X2908589Y1831710D01*
X2961589Y1844583D01*
X3025513Y1849905D01*
X3091602Y1847773D01*
X3151099Y1838286D01*
X3195247Y1821539D01*
X3210604Y1811815D01*
X3245960Y1782995D01*
X3257926Y1758863D01*
X3255020Y1754200D01*
X3236909Y1737912D01*
X3207672Y1716183D01*
X3192725Y1706013D01*
X3167270Y1691603D01*
X3150728Y1690227D01*
X3135370Y1700173D01*
X3097094Y1720316D01*
X3045590Y1728600D01*
X2992957Y1722258D01*
X2991961Y1721970D01*
X2954838Y1705842D01*
X2936463Y1680595D01*
X2931380Y1638842D01*
X2931188Y1599121D01*
X3062423Y1594832D01*
X3083331Y1594127D01*
X3136043Y1591674D01*
X3171381Y1587820D01*
X3195267Y1581122D01*
X3213624Y1570136D01*
X3232376Y1553420D01*
X3263337Y1514756D01*
X3286029Y1457544D01*
X3288254Y1418176D01*
X3289413Y1397667D01*
G36*
X3289413Y1397667D02*
G01*
X3274244Y1340581D01*
X3241277Y1291745D01*
X3191270Y1256614D01*
X3186362Y1254479D01*
X3131646Y1239097D01*
X3069993Y1233101D01*
X3011376Y1236767D01*
X2965767Y1250371D01*
X2947549Y1259246D01*
X2934179Y1261363D01*
X2931188Y1250294D01*
X2925524Y1240058D01*
X2903607Y1233962D01*
X2861068Y1232178D01*
X2790948Y1232178D01*
X2795053Y1474232D01*
X2795492Y1496237D01*
X2931188Y1496237D01*
X2931188Y1452227D01*
X2935924Y1419334D01*
X2956336Y1383069D01*
X2963871Y1376403D01*
X2994753Y1362380D01*
X3041213Y1358772D01*
X3069090Y1360181D01*
X3121255Y1370796D01*
X3153587Y1390575D01*
X3164492Y1418176D01*
X3152374Y1452257D01*
X3145304Y1461176D01*
X3113724Y1481182D01*
X3063744Y1492605D01*
X2992487Y1496237D01*
X2931188Y1496237D01*
X2795492Y1496237D01*
X2796169Y1530206D01*
X2799106Y1614004D01*
X2804058Y1678080D01*
X2812002Y1725927D01*
X2823917Y1761038D01*
X2840780Y1786907D01*
X2863572Y1807026D01*
X2893269Y1824890D01*
X2908589Y1831710D01*
X2961589Y1844583D01*
X3025513Y1849905D01*
X3091602Y1847773D01*
X3151099Y1838286D01*
X3195247Y1821539D01*
X3210604Y1811815D01*
X3245960Y1782995D01*
X3257926Y1758863D01*
X3255020Y1754200D01*
X3236909Y1737912D01*
X3207672Y1716183D01*
X3192725Y1706013D01*
X3167270Y1691603D01*
X3150728Y1690227D01*
X3135370Y1700173D01*
X3097094Y1720316D01*
X3045590Y1728600D01*
X2992957Y1722258D01*
X2991961Y1721970D01*
X2954838Y1705842D01*
X2936463Y1680595D01*
X2931380Y1638842D01*
X2931188Y1599121D01*
X3062423Y1594832D01*
X3083331Y1594127D01*
X3136043Y1591674D01*
X3171381Y1587820D01*
X3195267Y1581122D01*
X3213624Y1570136D01*
X3232376Y1553420D01*
X3263337Y1514756D01*
X3286029Y1457544D01*
X3288254Y1418176D01*
X3289413Y1397667D01*
G37*
X5707299Y1399777D02*
X5707157Y1398118D01*
X5691835Y1333521D01*
X5657753Y1284937D01*
X5603218Y1249928D01*
X5575036Y1241411D01*
X5526764Y1234772D01*
X5473978Y1233187D01*
X5426353Y1236840D01*
X5393566Y1245917D01*
X5373652Y1253187D01*
X5354155Y1245917D01*
X5347023Y1241705D01*
X5318557Y1234874D01*
X5280059Y1232178D01*
X5219703Y1232178D01*
X5219703Y1475516D01*
X5219707Y1496237D01*
X5358020Y1496237D01*
X5358020Y1447889D01*
X5362668Y1411096D01*
X5381015Y1378731D01*
X5391514Y1371726D01*
X5428988Y1360809D01*
X5475773Y1358083D01*
X5521652Y1363621D01*
X5556410Y1377495D01*
X5573726Y1395839D01*
X5584356Y1428434D01*
X5574929Y1454271D01*
X5543764Y1476737D01*
X5493667Y1491150D01*
X5427582Y1496237D01*
X5358020Y1496237D01*
X5219707Y1496237D01*
X5219707Y1496560D01*
X5219937Y1575878D01*
X5220797Y1634846D01*
X5222679Y1677384D01*
X5225974Y1707408D01*
X5231073Y1728837D01*
X5238366Y1745589D01*
X5248246Y1761581D01*
X5280023Y1799052D01*
X5325055Y1827661D01*
X5384210Y1843445D01*
X5462161Y1848297D01*
X5464695Y1848292D01*
X5518880Y1845845D01*
X5567380Y1839744D01*
X5600478Y1831191D01*
X5609552Y1826904D01*
X5638433Y1808752D01*
X5664568Y1787178D01*
X5681764Y1767764D01*
X5683825Y1756091D01*
X5679803Y1752937D01*
X5635976Y1719261D01*
X5606671Y1699400D01*
X5587294Y1691387D01*
X5573253Y1693254D01*
X5559957Y1703035D01*
X5535418Y1715244D01*
X5494064Y1723385D01*
X5447326Y1725497D01*
X5405034Y1721200D01*
X5377017Y1710113D01*
X5375543Y1708764D01*
X5362953Y1683419D01*
X5358020Y1645589D01*
X5358020Y1596831D01*
X5474331Y1596784D01*
X5527760Y1595939D01*
X5572735Y1592260D01*
X5604907Y1584691D01*
X5630899Y1572192D01*
X5636948Y1568353D01*
X5680710Y1526155D01*
X5703987Y1470353D01*
X5705955Y1428434D01*
X5707299Y1399777D01*
G36*
X5707299Y1399777D02*
G01*
X5707157Y1398118D01*
X5691835Y1333521D01*
X5657753Y1284937D01*
X5603218Y1249928D01*
X5575036Y1241411D01*
X5526764Y1234772D01*
X5473978Y1233187D01*
X5426353Y1236840D01*
X5393566Y1245917D01*
X5373652Y1253187D01*
X5354155Y1245917D01*
X5347023Y1241705D01*
X5318557Y1234874D01*
X5280059Y1232178D01*
X5219703Y1232178D01*
X5219703Y1475516D01*
X5219707Y1496237D01*
X5358020Y1496237D01*
X5358020Y1447889D01*
X5362668Y1411096D01*
X5381015Y1378731D01*
X5391514Y1371726D01*
X5428988Y1360809D01*
X5475773Y1358083D01*
X5521652Y1363621D01*
X5556410Y1377495D01*
X5573726Y1395839D01*
X5584356Y1428434D01*
X5574929Y1454271D01*
X5543764Y1476737D01*
X5493667Y1491150D01*
X5427582Y1496237D01*
X5358020Y1496237D01*
X5219707Y1496237D01*
X5219707Y1496560D01*
X5219937Y1575878D01*
X5220797Y1634846D01*
X5222679Y1677384D01*
X5225974Y1707408D01*
X5231073Y1728837D01*
X5238366Y1745589D01*
X5248246Y1761581D01*
X5280023Y1799052D01*
X5325055Y1827661D01*
X5384210Y1843445D01*
X5462161Y1848297D01*
X5464695Y1848292D01*
X5518880Y1845845D01*
X5567380Y1839744D01*
X5600478Y1831191D01*
X5609552Y1826904D01*
X5638433Y1808752D01*
X5664568Y1787178D01*
X5681764Y1767764D01*
X5683825Y1756091D01*
X5679803Y1752937D01*
X5635976Y1719261D01*
X5606671Y1699400D01*
X5587294Y1691387D01*
X5573253Y1693254D01*
X5559957Y1703035D01*
X5535418Y1715244D01*
X5494064Y1723385D01*
X5447326Y1725497D01*
X5405034Y1721200D01*
X5377017Y1710113D01*
X5375543Y1708764D01*
X5362953Y1683419D01*
X5358020Y1645589D01*
X5358020Y1596831D01*
X5474331Y1596784D01*
X5527760Y1595939D01*
X5572735Y1592260D01*
X5604907Y1584691D01*
X5630899Y1572192D01*
X5636948Y1568353D01*
X5680710Y1526155D01*
X5703987Y1470353D01*
X5705955Y1428434D01*
X5707299Y1399777D01*
G37*
X6275940Y1230864D02*
X6209926Y1234664D01*
X6143911Y1238465D01*
X6140772Y1439653D01*
X6139844Y1488575D01*
X6137208Y1562074D01*
X6132683Y1616009D01*
X6125438Y1654005D01*
X6114642Y1679687D01*
X6099462Y1696680D01*
X6079066Y1708611D01*
X6040797Y1720795D01*
X6002738Y1716060D01*
X5962549Y1690021D01*
X5923861Y1657467D01*
X5923861Y1232178D01*
X5785544Y1232178D01*
X5785544Y1462824D01*
X5785677Y1535118D01*
X5786413Y1599359D01*
X5788181Y1646382D01*
X5791411Y1680452D01*
X5796530Y1705830D01*
X5803967Y1726779D01*
X5814150Y1747564D01*
X5816564Y1751976D01*
X5848675Y1794953D01*
X5886256Y1824987D01*
X5931564Y1840757D01*
X5991561Y1847778D01*
X6051643Y1843975D01*
X6100525Y1829132D01*
X6137624Y1809948D01*
X6137624Y2225141D01*
X6086792Y2198646D01*
X6065558Y2189020D01*
X5998536Y2175408D01*
X5931930Y2184816D01*
X5870187Y2216095D01*
X5817757Y2268098D01*
X5809543Y2280320D01*
X5801649Y2298237D01*
X5796500Y2322596D01*
X5793527Y2358073D01*
X5792161Y2409344D01*
X5791915Y2462764D01*
X5924749Y2462764D01*
X5924861Y2418151D01*
X5928272Y2388399D01*
X5935937Y2367165D01*
X5948814Y2348104D01*
X5965171Y2330383D01*
X5991329Y2316972D01*
X6030742Y2313564D01*
X6065559Y2316529D01*
X6100020Y2331369D01*
X6122215Y2361431D01*
X6134097Y2409746D01*
X6137624Y2479350D01*
X6136712Y2516376D01*
X6127609Y2586272D01*
X6108828Y2633536D01*
X6080476Y2657832D01*
X6051840Y2664668D01*
X6001970Y2661463D01*
X5959833Y2641620D01*
X5949749Y2632520D01*
X5939063Y2616777D01*
X5932456Y2593342D01*
X5928532Y2556396D01*
X5925897Y2500120D01*
X5924749Y2462764D01*
X5791915Y2462764D01*
X5791831Y2481083D01*
X5791944Y2513816D01*
X5793872Y2589956D01*
X5799240Y2646834D01*
X5809406Y2688751D01*
X5825725Y2720004D01*
X5849553Y2744894D01*
X5882247Y2767718D01*
X5908759Y2780816D01*
X5971615Y2795261D01*
X6037869Y2793293D01*
X6096757Y2774567D01*
X6122030Y2762327D01*
X6134742Y2761062D01*
X6137624Y2772202D01*
X6137626Y2772539D01*
X6143838Y2783913D01*
X6165260Y2789744D01*
X6206782Y2791386D01*
X6275940Y2791386D01*
X6275940Y2479350D01*
X6275940Y1230864D01*
G36*
X6275940Y1230864D02*
G01*
X6209926Y1234664D01*
X6143911Y1238465D01*
X6140772Y1439653D01*
X6139844Y1488575D01*
X6137208Y1562074D01*
X6132683Y1616009D01*
X6125438Y1654005D01*
X6114642Y1679687D01*
X6099462Y1696680D01*
X6079066Y1708611D01*
X6040797Y1720795D01*
X6002738Y1716060D01*
X5962549Y1690021D01*
X5923861Y1657467D01*
X5923861Y1232178D01*
X5785544Y1232178D01*
X5785544Y1462824D01*
X5785677Y1535118D01*
X5786413Y1599359D01*
X5788181Y1646382D01*
X5791411Y1680452D01*
X5796530Y1705830D01*
X5803967Y1726779D01*
X5814150Y1747564D01*
X5816564Y1751976D01*
X5848675Y1794953D01*
X5886256Y1824987D01*
X5931564Y1840757D01*
X5991561Y1847778D01*
X6051643Y1843975D01*
X6100525Y1829132D01*
X6137624Y1809948D01*
X6137624Y2225141D01*
X6086792Y2198646D01*
X6065558Y2189020D01*
X5998536Y2175408D01*
X5931930Y2184816D01*
X5870187Y2216095D01*
X5817757Y2268098D01*
X5809543Y2280320D01*
X5801649Y2298237D01*
X5796500Y2322596D01*
X5793527Y2358073D01*
X5792161Y2409344D01*
X5791915Y2462764D01*
X5924749Y2462764D01*
X5924861Y2418151D01*
X5928272Y2388399D01*
X5935937Y2367165D01*
X5948814Y2348104D01*
X5965171Y2330383D01*
X5991329Y2316972D01*
X6030742Y2313564D01*
X6065559Y2316529D01*
X6100020Y2331369D01*
X6122215Y2361431D01*
X6134097Y2409746D01*
X6137624Y2479350D01*
X6136712Y2516376D01*
X6127609Y2586272D01*
X6108828Y2633536D01*
X6080476Y2657832D01*
X6051840Y2664668D01*
X6001970Y2661463D01*
X5959833Y2641620D01*
X5949749Y2632520D01*
X5939063Y2616777D01*
X5932456Y2593342D01*
X5928532Y2556396D01*
X5925897Y2500120D01*
X5924749Y2462764D01*
X5791915Y2462764D01*
X5791831Y2481083D01*
X5791944Y2513816D01*
X5793872Y2589956D01*
X5799240Y2646834D01*
X5809406Y2688751D01*
X5825725Y2720004D01*
X5849553Y2744894D01*
X5882247Y2767718D01*
X5908759Y2780816D01*
X5971615Y2795261D01*
X6037869Y2793293D01*
X6096757Y2774567D01*
X6122030Y2762327D01*
X6134742Y2761062D01*
X6137624Y2772202D01*
X6137626Y2772539D01*
X6143838Y2783913D01*
X6165260Y2789744D01*
X6206782Y2791386D01*
X6275940Y2791386D01*
X6275940Y2479350D01*
X6275940Y1230864D01*
G37*
X4364389Y6959982D02*
X4421237Y6658430D01*
X4631001Y6571959D01*
X4840764Y6485488D01*
X5092410Y6656605D01*
X5142216Y6690339D01*
X5208244Y6734619D01*
X5265410Y6772439D01*
X5310744Y6801858D01*
X5341280Y6820933D01*
X5354046Y6827722D01*
X5361887Y6822894D01*
X5385325Y6802661D01*
X5420794Y6769457D01*
X5465289Y6726330D01*
X5515805Y6676330D01*
X5569336Y6622505D01*
X5622877Y6567905D01*
X5673423Y6515577D01*
X5717968Y6468572D01*
X5753507Y6429937D01*
X5777034Y6402722D01*
X5785544Y6389976D01*
X5783565Y6384500D01*
X5769857Y6360073D01*
X5744825Y6319871D01*
X5710499Y6267048D01*
X5668907Y6204753D01*
X5622079Y6136138D01*
X5596380Y6098717D01*
X5552173Y6033568D01*
X5514272Y5976711D01*
X5484698Y5931230D01*
X5465472Y5900207D01*
X5458614Y5886726D01*
X5458726Y5885979D01*
X5464776Y5868890D01*
X5478654Y5833994D01*
X5498427Y5785849D01*
X5522160Y5729014D01*
X5547918Y5668047D01*
X5573766Y5607508D01*
X5597771Y5551953D01*
X5617998Y5505943D01*
X5632511Y5474035D01*
X5639377Y5460788D01*
X5643439Y5459613D01*
X5668121Y5454313D01*
X5712111Y5445533D01*
X5771887Y5433960D01*
X5843929Y5420279D01*
X5924716Y5405177D01*
X5967294Y5397170D01*
X6045445Y5381893D01*
X6113775Y5367785D01*
X6168551Y5355655D01*
X6206037Y5346314D01*
X6222500Y5340573D01*
X6225457Y5334881D01*
X6230362Y5307070D01*
X6234216Y5260750D01*
X6237021Y5200280D01*
X6238781Y5130017D01*
X6239499Y5054320D01*
X6239177Y4977547D01*
X6237819Y4904056D01*
X6235428Y4838206D01*
X6232006Y4784355D01*
X6227556Y4746862D01*
X6222082Y4730084D01*
X6218760Y4728191D01*
X6193987Y4720074D01*
X6151011Y4709334D01*
X6094802Y4697147D01*
X6030325Y4684690D01*
X6008570Y4680723D01*
X5908093Y4662271D01*
X5829126Y4647441D01*
X5768934Y4635620D01*
X5724778Y4626191D01*
X5693920Y4618540D01*
X5673625Y4612052D01*
X5661154Y4606112D01*
X5653771Y4600106D01*
X5652913Y4599098D01*
X5640838Y4578081D01*
X5622971Y4539624D01*
X5601042Y4488239D01*
X5576784Y4428437D01*
X5551927Y4364730D01*
X5528205Y4301629D01*
X5507347Y4243645D01*
X5491087Y4195291D01*
X5481156Y4161078D01*
X5479285Y4145517D01*
X5480536Y4143498D01*
X5493486Y4123972D01*
X5517840Y4087958D01*
X5551340Y4038772D01*
X5591727Y3979733D01*
X5636745Y3914158D01*
X5649100Y3896116D01*
X5692545Y3831401D01*
X5730091Y3773524D01*
X5759594Y3725918D01*
X5778914Y3692015D01*
X5785905Y3675248D01*
X5784398Y3670839D01*
X5768695Y3649118D01*
X5737714Y3613646D01*
X5693673Y3566812D01*
X5638790Y3511004D01*
X5575286Y3448608D01*
X5538988Y3413683D01*
X5481595Y3359289D01*
X5431361Y3312698D01*
X5390984Y3276364D01*
X5363161Y3252739D01*
X5350590Y3244276D01*
X5341952Y3247413D01*
X5315360Y3262253D01*
X5276741Y3286523D01*
X5231134Y3317148D01*
X5198707Y3339497D01*
X5133970Y3383878D01*
X5064886Y3431013D01*
X5001787Y3473845D01*
X4878178Y3557453D01*
X4774417Y3501350D01*
X4749984Y3488401D01*
X4705552Y3466251D01*
X4671191Y3450959D01*
X4652828Y3445257D01*
X4646818Y3452579D01*
X4631895Y3480459D01*
X4609852Y3526425D01*
X4581917Y3587559D01*
X4549317Y3660945D01*
X4513276Y3743665D01*
X4475023Y3832803D01*
X4435783Y3925441D01*
X4396783Y4018663D01*
X4359249Y4109550D01*
X4324409Y4195186D01*
X4293488Y4272655D01*
X4267714Y4339038D01*
X4248311Y4391418D01*
X4236508Y4426879D01*
X4233531Y4442504D01*
X4233732Y4442961D01*
X4247601Y4457405D01*
X4276611Y4480026D01*
X4314772Y4506136D01*
X4326817Y4514108D01*
X4418469Y4589744D01*
X4494323Y4679831D01*
X4552581Y4780619D01*
X4591448Y4888360D01*
X4609128Y4999303D01*
X4603826Y5109697D01*
X4582347Y5207885D01*
X4543782Y5307034D01*
X4487562Y5395488D01*
X4410410Y5479513D01*
X4380095Y5506355D01*
X4282094Y5572490D01*
X4176227Y5617030D01*
X4065561Y5640375D01*
X3953164Y5642922D01*
X3842105Y5625071D01*
X3735451Y5587220D01*
X3636270Y5529768D01*
X3547631Y5453113D01*
X3472600Y5357655D01*
X3458175Y5334015D01*
X3409143Y5225966D01*
X3383103Y5113452D01*
X3379372Y4999386D01*
X3397268Y4886682D01*
X3436109Y4778255D01*
X3495214Y4677018D01*
X3573900Y4585886D01*
X3671485Y4507772D01*
X3674654Y4505667D01*
X3712411Y4479060D01*
X3740709Y4456439D01*
X3753634Y4442504D01*
X3752003Y4431579D01*
X3741864Y4399769D01*
X3723884Y4350466D01*
X3699292Y4286587D01*
X3669311Y4211052D01*
X3635170Y4126777D01*
X3598092Y4036680D01*
X3559306Y3943679D01*
X3520036Y3850692D01*
X3481509Y3760636D01*
X3444950Y3676429D01*
X3411586Y3600990D01*
X3382643Y3537235D01*
X3359346Y3488083D01*
X3342923Y3456451D01*
X3334598Y3445257D01*
X3327674Y3446773D01*
X3300477Y3457669D01*
X3260280Y3476772D01*
X3213009Y3501350D01*
X3109248Y3557453D01*
X2985639Y3473845D01*
X2949120Y3449087D01*
X2881194Y3402829D01*
X2813475Y3356497D01*
X2756291Y3317148D01*
X2724732Y3295703D01*
X2683714Y3269061D01*
X2653301Y3250822D01*
X2638446Y3244059D01*
X2632065Y3246930D01*
X2608996Y3264515D01*
X2573433Y3295477D01*
X2528471Y3336769D01*
X2477206Y3385347D01*
X2422733Y3438165D01*
X2368148Y3492177D01*
X2316547Y3544339D01*
X2271024Y3591604D01*
X2234675Y3630928D01*
X2210595Y3659264D01*
X2201881Y3673568D01*
X2202383Y3676289D01*
X2212755Y3698440D01*
X2234912Y3736765D01*
X2266712Y3787800D01*
X2306016Y3848086D01*
X2350681Y3914158D01*
X2363207Y3932383D01*
X2407193Y3996515D01*
X2445937Y4053211D01*
X2477182Y4099156D01*
X2498669Y4131030D01*
X2508140Y4145517D01*
X2508373Y4146138D01*
X2505578Y4163861D01*
X2494903Y4199765D01*
X2478081Y4249338D01*
X2456843Y4308068D01*
X2432921Y4371444D01*
X2408046Y4434954D01*
X2383950Y4494087D01*
X2362365Y4544331D01*
X2345023Y4581174D01*
X2333655Y4600106D01*
X2332516Y4601281D01*
X2324376Y4607227D01*
X2310629Y4613224D01*
X2288537Y4619886D01*
X2255363Y4627827D01*
X2208370Y4637663D01*
X2144820Y4650009D01*
X2061976Y4665480D01*
X1957100Y4684690D01*
X1935348Y4688733D01*
X1873036Y4701231D01*
X1820619Y4713073D01*
X1783066Y4723083D01*
X1765343Y4730084D01*
X1762378Y4735925D01*
X1757435Y4763984D01*
X1753518Y4810500D01*
X1750629Y4871114D01*
X1748773Y4941468D01*
X1747952Y5017204D01*
X1748168Y5093963D01*
X1749426Y5167388D01*
X1751728Y5233120D01*
X1755076Y5286800D01*
X1759474Y5324070D01*
X1764926Y5340573D01*
X1770491Y5343011D01*
X1798178Y5350695D01*
X1844979Y5361564D01*
X1907157Y5374808D01*
X1980979Y5389616D01*
X2062710Y5405177D01*
X2107336Y5413491D01*
X2183824Y5427908D01*
X2249660Y5440533D01*
X2301323Y5450679D01*
X2335293Y5457659D01*
X2348048Y5460788D01*
X2348528Y5461432D01*
X2356651Y5477819D01*
X2372137Y5512148D01*
X2393050Y5559864D01*
X2417455Y5616414D01*
X2443416Y5677242D01*
X2468997Y5737794D01*
X2492262Y5793515D01*
X2511277Y5839850D01*
X2524105Y5872245D01*
X2528812Y5886145D01*
X2526736Y5891035D01*
X2512920Y5914308D01*
X2487860Y5953481D01*
X2453568Y6005480D01*
X2412059Y6067232D01*
X2365346Y6135664D01*
X2339718Y6173140D01*
X2295490Y6238844D01*
X2257570Y6296508D01*
X2227980Y6342986D01*
X2208743Y6375135D01*
X2201881Y6389810D01*
X2206649Y6397770D01*
X2226593Y6421554D01*
X2259313Y6457549D01*
X2301805Y6502705D01*
X2351065Y6553972D01*
X2404091Y6608299D01*
X2457877Y6662636D01*
X2509421Y6713933D01*
X2555720Y6759141D01*
X2593769Y6795208D01*
X2620565Y6819086D01*
X2633105Y6827722D01*
X2640066Y6824364D01*
X2665627Y6808790D01*
X2706874Y6782285D01*
X2760837Y6746790D01*
X2824542Y6704250D01*
X2895016Y6656605D01*
X3146662Y6485488D01*
X3566188Y6658430D01*
X3623036Y6959982D01*
X3679885Y7261534D01*
X4307540Y7261534D01*
X4364389Y6959982D01*
G36*
X4364389Y6959982D02*
G01*
X4421237Y6658430D01*
X4631001Y6571959D01*
X4840764Y6485488D01*
X5092410Y6656605D01*
X5142216Y6690339D01*
X5208244Y6734619D01*
X5265410Y6772439D01*
X5310744Y6801858D01*
X5341280Y6820933D01*
X5354046Y6827722D01*
X5361887Y6822894D01*
X5385325Y6802661D01*
X5420794Y6769457D01*
X5465289Y6726330D01*
X5515805Y6676330D01*
X5569336Y6622505D01*
X5622877Y6567905D01*
X5673423Y6515577D01*
X5717968Y6468572D01*
X5753507Y6429937D01*
X5777034Y6402722D01*
X5785544Y6389976D01*
X5783565Y6384500D01*
X5769857Y6360073D01*
X5744825Y6319871D01*
X5710499Y6267048D01*
X5668907Y6204753D01*
X5622079Y6136138D01*
X5596380Y6098717D01*
X5552173Y6033568D01*
X5514272Y5976711D01*
X5484698Y5931230D01*
X5465472Y5900207D01*
X5458614Y5886726D01*
X5458726Y5885979D01*
X5464776Y5868890D01*
X5478654Y5833994D01*
X5498427Y5785849D01*
X5522160Y5729014D01*
X5547918Y5668047D01*
X5573766Y5607508D01*
X5597771Y5551953D01*
X5617998Y5505943D01*
X5632511Y5474035D01*
X5639377Y5460788D01*
X5643439Y5459613D01*
X5668121Y5454313D01*
X5712111Y5445533D01*
X5771887Y5433960D01*
X5843929Y5420279D01*
X5924716Y5405177D01*
X5967294Y5397170D01*
X6045445Y5381893D01*
X6113775Y5367785D01*
X6168551Y5355655D01*
X6206037Y5346314D01*
X6222500Y5340573D01*
X6225457Y5334881D01*
X6230362Y5307070D01*
X6234216Y5260750D01*
X6237021Y5200280D01*
X6238781Y5130017D01*
X6239499Y5054320D01*
X6239177Y4977547D01*
X6237819Y4904056D01*
X6235428Y4838206D01*
X6232006Y4784355D01*
X6227556Y4746862D01*
X6222082Y4730084D01*
X6218760Y4728191D01*
X6193987Y4720074D01*
X6151011Y4709334D01*
X6094802Y4697147D01*
X6030325Y4684690D01*
X6008570Y4680723D01*
X5908093Y4662271D01*
X5829126Y4647441D01*
X5768934Y4635620D01*
X5724778Y4626191D01*
X5693920Y4618540D01*
X5673625Y4612052D01*
X5661154Y4606112D01*
X5653771Y4600106D01*
X5652913Y4599098D01*
X5640838Y4578081D01*
X5622971Y4539624D01*
X5601042Y4488239D01*
X5576784Y4428437D01*
X5551927Y4364730D01*
X5528205Y4301629D01*
X5507347Y4243645D01*
X5491087Y4195291D01*
X5481156Y4161078D01*
X5479285Y4145517D01*
X5480536Y4143498D01*
X5493486Y4123972D01*
X5517840Y4087958D01*
X5551340Y4038772D01*
X5591727Y3979733D01*
X5636745Y3914158D01*
X5649100Y3896116D01*
X5692545Y3831401D01*
X5730091Y3773524D01*
X5759594Y3725918D01*
X5778914Y3692015D01*
X5785905Y3675248D01*
X5784398Y3670839D01*
X5768695Y3649118D01*
X5737714Y3613646D01*
X5693673Y3566812D01*
X5638790Y3511004D01*
X5575286Y3448608D01*
X5538988Y3413683D01*
X5481595Y3359289D01*
X5431361Y3312698D01*
X5390984Y3276364D01*
X5363161Y3252739D01*
X5350590Y3244276D01*
X5341952Y3247413D01*
X5315360Y3262253D01*
X5276741Y3286523D01*
X5231134Y3317148D01*
X5198707Y3339497D01*
X5133970Y3383878D01*
X5064886Y3431013D01*
X5001787Y3473845D01*
X4878178Y3557453D01*
X4774417Y3501350D01*
X4749984Y3488401D01*
X4705552Y3466251D01*
X4671191Y3450959D01*
X4652828Y3445257D01*
X4646818Y3452579D01*
X4631895Y3480459D01*
X4609852Y3526425D01*
X4581917Y3587559D01*
X4549317Y3660945D01*
X4513276Y3743665D01*
X4475023Y3832803D01*
X4435783Y3925441D01*
X4396783Y4018663D01*
X4359249Y4109550D01*
X4324409Y4195186D01*
X4293488Y4272655D01*
X4267714Y4339038D01*
X4248311Y4391418D01*
X4236508Y4426879D01*
X4233531Y4442504D01*
X4233732Y4442961D01*
X4247601Y4457405D01*
X4276611Y4480026D01*
X4314772Y4506136D01*
X4326817Y4514108D01*
X4418469Y4589744D01*
X4494323Y4679831D01*
X4552581Y4780619D01*
X4591448Y4888360D01*
X4609128Y4999303D01*
X4603826Y5109697D01*
X4582347Y5207885D01*
X4543782Y5307034D01*
X4487562Y5395488D01*
X4410410Y5479513D01*
X4380095Y5506355D01*
X4282094Y5572490D01*
X4176227Y5617030D01*
X4065561Y5640375D01*
X3953164Y5642922D01*
X3842105Y5625071D01*
X3735451Y5587220D01*
X3636270Y5529768D01*
X3547631Y5453113D01*
X3472600Y5357655D01*
X3458175Y5334015D01*
X3409143Y5225966D01*
X3383103Y5113452D01*
X3379372Y4999386D01*
X3397268Y4886682D01*
X3436109Y4778255D01*
X3495214Y4677018D01*
X3573900Y4585886D01*
X3671485Y4507772D01*
X3674654Y4505667D01*
X3712411Y4479060D01*
X3740709Y4456439D01*
X3753634Y4442504D01*
X3752003Y4431579D01*
X3741864Y4399769D01*
X3723884Y4350466D01*
X3699292Y4286587D01*
X3669311Y4211052D01*
X3635170Y4126777D01*
X3598092Y4036680D01*
X3559306Y3943679D01*
X3520036Y3850692D01*
X3481509Y3760636D01*
X3444950Y3676429D01*
X3411586Y3600990D01*
X3382643Y3537235D01*
X3359346Y3488083D01*
X3342923Y3456451D01*
X3334598Y3445257D01*
X3327674Y3446773D01*
X3300477Y3457669D01*
X3260280Y3476772D01*
X3213009Y3501350D01*
X3109248Y3557453D01*
X2985639Y3473845D01*
X2949120Y3449087D01*
X2881194Y3402829D01*
X2813475Y3356497D01*
X2756291Y3317148D01*
X2724732Y3295703D01*
X2683714Y3269061D01*
X2653301Y3250822D01*
X2638446Y3244059D01*
X2632065Y3246930D01*
X2608996Y3264515D01*
X2573433Y3295477D01*
X2528471Y3336769D01*
X2477206Y3385347D01*
X2422733Y3438165D01*
X2368148Y3492177D01*
X2316547Y3544339D01*
X2271024Y3591604D01*
X2234675Y3630928D01*
X2210595Y3659264D01*
X2201881Y3673568D01*
X2202383Y3676289D01*
X2212755Y3698440D01*
X2234912Y3736765D01*
X2266712Y3787800D01*
X2306016Y3848086D01*
X2350681Y3914158D01*
X2363207Y3932383D01*
X2407193Y3996515D01*
X2445937Y4053211D01*
X2477182Y4099156D01*
X2498669Y4131030D01*
X2508140Y4145517D01*
X2508373Y4146138D01*
X2505578Y4163861D01*
X2494903Y4199765D01*
X2478081Y4249338D01*
X2456843Y4308068D01*
X2432921Y4371444D01*
X2408046Y4434954D01*
X2383950Y4494087D01*
X2362365Y4544331D01*
X2345023Y4581174D01*
X2333655Y4600106D01*
X2332516Y4601281D01*
X2324376Y4607227D01*
X2310629Y4613224D01*
X2288537Y4619886D01*
X2255363Y4627827D01*
X2208370Y4637663D01*
X2144820Y4650009D01*
X2061976Y4665480D01*
X1957100Y4684690D01*
X1935348Y4688733D01*
X1873036Y4701231D01*
X1820619Y4713073D01*
X1783066Y4723083D01*
X1765343Y4730084D01*
X1762378Y4735925D01*
X1757435Y4763984D01*
X1753518Y4810500D01*
X1750629Y4871114D01*
X1748773Y4941468D01*
X1747952Y5017204D01*
X1748168Y5093963D01*
X1749426Y5167388D01*
X1751728Y5233120D01*
X1755076Y5286800D01*
X1759474Y5324070D01*
X1764926Y5340573D01*
X1770491Y5343011D01*
X1798178Y5350695D01*
X1844979Y5361564D01*
X1907157Y5374808D01*
X1980979Y5389616D01*
X2062710Y5405177D01*
X2107336Y5413491D01*
X2183824Y5427908D01*
X2249660Y5440533D01*
X2301323Y5450679D01*
X2335293Y5457659D01*
X2348048Y5460788D01*
X2348528Y5461432D01*
X2356651Y5477819D01*
X2372137Y5512148D01*
X2393050Y5559864D01*
X2417455Y5616414D01*
X2443416Y5677242D01*
X2468997Y5737794D01*
X2492262Y5793515D01*
X2511277Y5839850D01*
X2524105Y5872245D01*
X2528812Y5886145D01*
X2526736Y5891035D01*
X2512920Y5914308D01*
X2487860Y5953481D01*
X2453568Y6005480D01*
X2412059Y6067232D01*
X2365346Y6135664D01*
X2339718Y6173140D01*
X2295490Y6238844D01*
X2257570Y6296508D01*
X2227980Y6342986D01*
X2208743Y6375135D01*
X2201881Y6389810D01*
X2206649Y6397770D01*
X2226593Y6421554D01*
X2259313Y6457549D01*
X2301805Y6502705D01*
X2351065Y6553972D01*
X2404091Y6608299D01*
X2457877Y6662636D01*
X2509421Y6713933D01*
X2555720Y6759141D01*
X2593769Y6795208D01*
X2620565Y6819086D01*
X2633105Y6827722D01*
X2640066Y6824364D01*
X2665627Y6808790D01*
X2706874Y6782285D01*
X2760837Y6746790D01*
X2824542Y6704250D01*
X2895016Y6656605D01*
X3146662Y6485488D01*
X3566188Y6658430D01*
X3623036Y6959982D01*
X3679885Y7261534D01*
X4307540Y7261534D01*
X4364389Y6959982D01*
G37*
%TD*%
M02*
