%TF.GenerationSoftware,KiCad,Pcbnew,9.0.6-1.fc42*%
%TF.CreationDate,2025-11-29T12:02:27+10:30*%
%TF.ProjectId,kinsanwaswitch,6b696e73-616e-4776-9173-77697463682e,1.0*%
%TF.SameCoordinates,PX5418b59PY53ec600*%
%TF.FileFunction,Copper,L1,Top*%
%TF.FilePolarity,Positive*%
%FSLAX46Y46*%
G04 Gerber Fmt 4.6, Leading zero omitted, Abs format (unit mm)*
G04 Created by KiCad (PCBNEW 9.0.6-1.fc42) date 2025-11-29 12:02:27*
%MOMM*%
%LPD*%
G01*
G04 APERTURE LIST*
G04 Aperture macros list*
%AMRoundRect*
0 Rectangle with rounded corners*
0 $1 Rounding radius*
0 $2 $3 $4 $5 $6 $7 $8 $9 X,Y pos of 4 corners*
0 Add a 4 corners polygon primitive as box body*
4,1,4,$2,$3,$4,$5,$6,$7,$8,$9,$2,$3,0*
0 Add four circle primitives for the rounded corners*
1,1,$1+$1,$2,$3*
1,1,$1+$1,$4,$5*
1,1,$1+$1,$6,$7*
1,1,$1+$1,$8,$9*
0 Add four rect primitives between the rounded corners*
20,1,$1+$1,$2,$3,$4,$5,0*
20,1,$1+$1,$4,$5,$6,$7,0*
20,1,$1+$1,$6,$7,$8,$9,0*
20,1,$1+$1,$8,$9,$2,$3,0*%
G04 Aperture macros list end*
%TA.AperFunction,SMDPad,CuDef*%
%ADD10RoundRect,0.200000X0.275000X-0.200000X0.275000X0.200000X-0.275000X0.200000X-0.275000X-0.200000X0*%
%TD*%
%TA.AperFunction,SMDPad,CuDef*%
%ADD11RoundRect,0.225000X0.225000X0.250000X-0.225000X0.250000X-0.225000X-0.250000X0.225000X-0.250000X0*%
%TD*%
%TA.AperFunction,SMDPad,CuDef*%
%ADD12C,0.500000*%
%TD*%
%TA.AperFunction,SMDPad,CuDef*%
%ADD13RoundRect,0.225000X-0.250000X0.225000X-0.250000X-0.225000X0.250000X-0.225000X0.250000X0.225000X0*%
%TD*%
%TA.AperFunction,SMDPad,CuDef*%
%ADD14RoundRect,0.200000X0.200000X0.275000X-0.200000X0.275000X-0.200000X-0.275000X0.200000X-0.275000X0*%
%TD*%
%TA.AperFunction,SMDPad,CuDef*%
%ADD15RoundRect,0.150000X-0.650000X-0.150000X0.650000X-0.150000X0.650000X0.150000X-0.650000X0.150000X0*%
%TD*%
%TA.AperFunction,SMDPad,CuDef*%
%ADD16RoundRect,0.225000X-0.375000X0.225000X-0.375000X-0.225000X0.375000X-0.225000X0.375000X0.225000X0*%
%TD*%
%TA.AperFunction,SMDPad,CuDef*%
%ADD17R,2.000000X0.750000*%
%TD*%
%TA.AperFunction,SMDPad,CuDef*%
%ADD18RoundRect,0.250000X1.100000X-0.250000X1.100000X0.250000X-1.100000X0.250000X-1.100000X-0.250000X0*%
%TD*%
%TA.AperFunction,SMDPad,CuDef*%
%ADD19RoundRect,0.236842X1.663158X-0.663158X1.663158X0.663158X-1.663158X0.663158X-1.663158X-0.663158X0*%
%TD*%
%TA.AperFunction,SMDPad,CuDef*%
%ADD20RoundRect,0.225000X-0.225000X-0.250000X0.225000X-0.250000X0.225000X0.250000X-0.225000X0.250000X0*%
%TD*%
%TA.AperFunction,ViaPad*%
%ADD21C,0.700000*%
%TD*%
%TA.AperFunction,Conductor*%
%ADD22C,0.508000*%
%TD*%
G04 APERTURE END LIST*
D10*
%TO.P,R1,1*%
%TO.N,Net-(PC1-Pad2)*%
X29250000Y8425000D03*
%TO.P,R1,2*%
%TO.N,VCC*%
X29250000Y10075000D03*
%TD*%
D11*
%TO.P,C3,1*%
%TO.N,/N.O.*%
X19250000Y8000000D03*
%TO.P,C3,2*%
%TO.N,GND*%
X17700000Y8000000D03*
%TD*%
D12*
%TO.P,FID2,*%
%TO.N,*%
X30250000Y1750000D03*
%TD*%
D13*
%TO.P,C2,1*%
%TO.N,VCC*%
X16000000Y13275000D03*
%TO.P,C2,2*%
%TO.N,GND*%
X16000000Y11725000D03*
%TD*%
D12*
%TO.P,FID1,*%
%TO.N,*%
X1750000Y18250000D03*
%TD*%
D14*
%TO.P,R3,1*%
%TO.N,Net-(R3-Pad1)*%
X20900000Y9750000D03*
%TO.P,R3,2*%
%TO.N,/N.O.*%
X19250000Y9750000D03*
%TD*%
D10*
%TO.P,R2,1*%
%TO.N,Net-(PC1-Pad3)*%
X23750000Y8425000D03*
%TO.P,R2,2*%
%TO.N,VCC*%
X23750000Y10075000D03*
%TD*%
D15*
%TO.P,U1,1,NC*%
%TO.N,unconnected-(U1-NC-Pad1)*%
X18100000Y13450000D03*
%TO.P,U1,2*%
%TO.N,Net-(PC1-Pad3)*%
X18100000Y12500000D03*
%TO.P,U1,3,GND*%
%TO.N,GND*%
X18100000Y11550000D03*
%TO.P,U1,4*%
%TO.N,Net-(R3-Pad1)*%
X20400000Y11550000D03*
%TO.P,U1,5,VCC*%
%TO.N,VCC*%
X20400000Y13450000D03*
%TD*%
D16*
%TO.P,D2,1,K*%
%TO.N,VCC*%
X13750000Y15050000D03*
%TO.P,D2,2,A*%
%TO.N,+5V*%
X13750000Y11750000D03*
%TD*%
D17*
%TO.P,PC1,1*%
%TO.N,GND*%
X29225000Y3900000D03*
%TO.P,PC1,2*%
%TO.N,Net-(PC1-Pad2)*%
X29225000Y6400000D03*
%TO.P,PC1,3*%
%TO.N,Net-(PC1-Pad3)*%
X23775000Y6400000D03*
%TO.P,PC1,4*%
%TO.N,GND*%
X23775000Y3900000D03*
%TD*%
D18*
%TO.P,J1,1,Pin_1*%
%TO.N,/LED+*%
X9650000Y14000001D03*
%TO.P,J1,2,Pin_2*%
%TO.N,/LED-*%
X9650000Y12000000D03*
%TO.P,J1,3,Pin_3*%
%TO.N,+5V*%
X9649999Y10000000D03*
%TO.P,J1,4,Pin_4*%
%TO.N,/N.O.*%
X9650000Y8000000D03*
%TO.P,J1,5,Pin_5*%
%TO.N,GND*%
X9650000Y5999999D03*
D19*
%TO.P,J1,MP,MountPin*%
X5200000Y16350000D03*
X5200000Y3650000D03*
%TD*%
D20*
%TO.P,C1,1*%
%TO.N,+5V*%
X13725000Y10000000D03*
%TO.P,C1,2*%
%TO.N,GND*%
X15275000Y10000000D03*
%TD*%
D21*
%TO.N,GND*%
X5500000Y14000000D03*
X18000000Y10500000D03*
X21000000Y8000000D03*
X28000000Y12000000D03*
X18000000Y6000000D03*
X28500000Y2500000D03*
X16500000Y7500000D03*
X18000000Y3000000D03*
X4000000Y18500000D03*
X2500000Y4000000D03*
X23000000Y5250000D03*
X2500000Y15500000D03*
X25000000Y12000000D03*
X21000000Y2000000D03*
X12000000Y3000000D03*
X16500000Y10500000D03*
X7000000Y5500000D03*
X3000000Y7000000D03*
X28500000Y5250000D03*
X25000000Y8000000D03*
X24500000Y5250000D03*
X7000000Y10000000D03*
X12000000Y18000000D03*
X22000000Y15000000D03*
X4000000Y14000000D03*
X30000000Y5250000D03*
X2500000Y14000000D03*
X7000000Y14000000D03*
X21000000Y5000000D03*
X28000000Y8000000D03*
X2500000Y5500000D03*
X5500000Y18500000D03*
X2500000Y17000000D03*
X16000000Y15000000D03*
X12000000Y9000000D03*
X24500000Y2500000D03*
X5500000Y5500000D03*
X2500000Y2500000D03*
X4000000Y5500000D03*
X3000000Y10000000D03*
X7000000Y18500000D03*
X12000000Y11500000D03*
X7000000Y7000000D03*
X23000000Y2500000D03*
X12000000Y15000000D03*
%TD*%
D22*
%TO.N,Net-(PC1-Pad2)*%
X29250000Y8425000D02*
X29250000Y6425000D01*
%TO.N,VCC*%
X17225000Y14500000D02*
X20000000Y14500000D01*
X13750000Y15050000D02*
X13750000Y14250000D01*
X20400000Y14100000D02*
X20400000Y13450000D01*
X16000000Y13275000D02*
X17225000Y14500000D01*
X14725000Y13275000D02*
X16000000Y13275000D01*
X20000000Y14500000D02*
X20400000Y14100000D01*
X23750000Y10075000D02*
X29250000Y10075000D01*
X20400000Y13450000D02*
X23050000Y13450000D01*
X23050000Y13450000D02*
X23750000Y12750000D01*
X13750000Y14250000D02*
X14725000Y13275000D01*
X23750000Y12750000D02*
X23750000Y10075000D01*
%TO.N,/N.O.*%
X19250000Y8000000D02*
X19250000Y2650000D01*
X19250000Y9750000D02*
X19250000Y8025000D01*
X2000000Y1400000D02*
X1500000Y1900000D01*
X1500000Y1900000D02*
X1500000Y7000000D01*
X1500000Y7000000D02*
X2500000Y8000000D01*
X19250000Y2650000D02*
X18000000Y1400000D01*
X18000000Y1400000D02*
X2000000Y1400000D01*
X2500000Y8000000D02*
X9650000Y8000000D01*
%TO.N,Net-(PC1-Pad3)*%
X22400000Y12100000D02*
X22400000Y8850000D01*
X22400000Y8850000D02*
X22825000Y8425000D01*
X18100000Y12500000D02*
X22000000Y12500000D01*
X22825000Y8425000D02*
X23750000Y8425000D01*
X22000000Y12500000D02*
X22400000Y12100000D01*
X23750000Y8425000D02*
X23750000Y6425000D01*
%TO.N,+5V*%
X13725000Y10000000D02*
X13725000Y11825000D01*
X9649999Y10000000D02*
X13725000Y10000000D01*
%TO.N,Net-(R3-Pad1)*%
X20400000Y11550000D02*
X20400000Y10975000D01*
X20900000Y10475000D02*
X20900000Y9750000D01*
X20400000Y10975000D02*
X20900000Y10475000D01*
%TD*%
%TA.AperFunction,Conductor*%
%TO.N,GND*%
G36*
X14403859Y19179498D02*
G01*
X14450352Y19125842D01*
X14459459Y19097351D01*
X14494862Y18913665D01*
X14510567Y18832179D01*
X14510571Y18832163D01*
X14620631Y18457334D01*
X14765817Y18094674D01*
X14765827Y18094652D01*
X14944836Y17747424D01*
X15090935Y17520091D01*
X15156044Y17418779D01*
X15397535Y17111698D01*
X15667122Y16828963D01*
X15962365Y16573134D01*
X16280588Y16346528D01*
X16390209Y16283239D01*
X16618908Y16151198D01*
X16974265Y15988912D01*
X16974266Y15988912D01*
X16974270Y15988910D01*
X17343446Y15861137D01*
X17723095Y15769035D01*
X18109781Y15713438D01*
X18109791Y15713438D01*
X18109795Y15713437D01*
X18499994Y15694850D01*
X18500000Y15694850D01*
X18500006Y15694850D01*
X18890203Y15713437D01*
X18890204Y15713437D01*
X18890206Y15713438D01*
X18890219Y15713438D01*
X19276905Y15769035D01*
X19656554Y15861137D01*
X20025730Y15988910D01*
X20380189Y16150786D01*
X25699500Y16150786D01*
X25699500Y15849215D01*
X25738860Y15550240D01*
X25738861Y15550234D01*
X25738862Y15550232D01*
X25816913Y15258942D01*
X25932317Y14980332D01*
X25932318Y14980331D01*
X25932323Y14980320D01*
X26083097Y14719172D01*
X26083099Y14719169D01*
X26083100Y14719168D01*
X26266681Y14479920D01*
X26266685Y14479916D01*
X26266690Y14479910D01*
X26479909Y14266691D01*
X26479914Y14266687D01*
X26479920Y14266681D01*
X26719168Y14083100D01*
X26719171Y14083098D01*
X26980319Y13932324D01*
X26980323Y13932323D01*
X26980332Y13932317D01*
X27258942Y13816913D01*
X27550232Y13738862D01*
X27550238Y13738862D01*
X27550239Y13738861D01*
X27584549Y13734345D01*
X27849217Y13699500D01*
X27849224Y13699500D01*
X28150776Y13699500D01*
X28150783Y13699500D01*
X28449768Y13738862D01*
X28741058Y13816913D01*
X29019668Y13932317D01*
X29280832Y14083100D01*
X29520080Y14266681D01*
X29733319Y14479920D01*
X29916900Y14719168D01*
X30067683Y14980332D01*
X30183087Y15258942D01*
X30261138Y15550232D01*
X30300500Y15849217D01*
X30300500Y16150783D01*
X30261138Y16449768D01*
X30183087Y16741058D01*
X30067683Y17019668D01*
X30067677Y17019677D01*
X30067676Y17019681D01*
X29916902Y17280829D01*
X29901808Y17300500D01*
X29733319Y17520080D01*
X29733313Y17520086D01*
X29733309Y17520091D01*
X29520090Y17733310D01*
X29520084Y17733315D01*
X29520080Y17733319D01*
X29280832Y17916900D01*
X29280831Y17916901D01*
X29280828Y17916903D01*
X29019680Y18067677D01*
X29019672Y18067681D01*
X29019668Y18067683D01*
X28741058Y18183087D01*
X28449768Y18261138D01*
X28449766Y18261139D01*
X28449760Y18261140D01*
X28150785Y18300500D01*
X28150783Y18300500D01*
X27849217Y18300500D01*
X27849214Y18300500D01*
X27550239Y18261140D01*
X27258942Y18183087D01*
X26980330Y18067682D01*
X26980319Y18067677D01*
X26719171Y17916903D01*
X26479920Y17733319D01*
X26479909Y17733310D01*
X26266690Y17520091D01*
X26266681Y17520080D01*
X26083097Y17280829D01*
X25932323Y17019681D01*
X25932318Y17019670D01*
X25932317Y17019668D01*
X25893313Y16925503D01*
X25816913Y16741058D01*
X25738860Y16449761D01*
X25699500Y16150786D01*
X20380189Y16150786D01*
X20381089Y16151197D01*
X20470908Y16203054D01*
X20576517Y16264027D01*
X20625256Y16292168D01*
X20719412Y16346528D01*
X21037635Y16573134D01*
X21332878Y16828963D01*
X21602465Y17111698D01*
X21843956Y17418779D01*
X22055164Y17747425D01*
X22234176Y18094659D01*
X22379370Y18457337D01*
X22489432Y18832174D01*
X22540539Y19097348D01*
X22573071Y19160450D01*
X22634556Y19195948D01*
X22664262Y19199500D01*
X31073500Y19199500D01*
X31141621Y19179498D01*
X31188114Y19125842D01*
X31199500Y19073500D01*
X31199500Y926500D01*
X31179498Y858379D01*
X31125842Y811886D01*
X31073500Y800500D01*
X18423819Y800500D01*
X18355698Y820502D01*
X18309205Y874158D01*
X18299101Y944432D01*
X18328595Y1009012D01*
X18334724Y1015595D01*
X19148186Y1829057D01*
X29649500Y1829057D01*
X29649500Y1670943D01*
X29661990Y1624331D01*
X29690424Y1518212D01*
X29769477Y1381288D01*
X29769485Y1381278D01*
X29881277Y1269486D01*
X29881282Y1269482D01*
X29881284Y1269480D01*
X29881285Y1269479D01*
X29881287Y1269478D01*
X30018211Y1190425D01*
X30018213Y1190425D01*
X30018216Y1190423D01*
X30170943Y1149500D01*
X30170945Y1149500D01*
X30329055Y1149500D01*
X30329057Y1149500D01*
X30481784Y1190423D01*
X30481787Y1190425D01*
X30481788Y1190425D01*
X30550250Y1229952D01*
X30618716Y1269480D01*
X30730520Y1381284D01*
X30809577Y1518216D01*
X30850500Y1670943D01*
X30850500Y1829057D01*
X30809577Y1981784D01*
X30809575Y1981787D01*
X30809575Y1981789D01*
X30730522Y2118713D01*
X30730514Y2118723D01*
X30618722Y2230515D01*
X30618712Y2230523D01*
X30481788Y2309576D01*
X30463743Y2314411D01*
X30329057Y2350500D01*
X30170943Y2350500D01*
X30077470Y2325455D01*
X30018211Y2309576D01*
X29881287Y2230523D01*
X29881277Y2230515D01*
X29769485Y2118723D01*
X29769477Y2118713D01*
X29690424Y1981789D01*
X29673141Y1917286D01*
X29649500Y1829057D01*
X19148186Y1829057D01*
X19245539Y1926410D01*
X19656895Y2337767D01*
X19656901Y2337773D01*
X19723847Y2453726D01*
X19758500Y2583055D01*
X19758500Y2716945D01*
X19758500Y4300023D01*
X22521000Y4300023D01*
X22521000Y3499987D01*
X22521001Y3499977D01*
X22535737Y3425895D01*
X22535737Y3425893D01*
X22591875Y3341876D01*
X22675893Y3285738D01*
X22675894Y3285737D01*
X22749980Y3271001D01*
X22966395Y3271001D01*
X23325604Y3271001D01*
X24224395Y3271001D01*
X24224395Y3271002D01*
X23775001Y3720396D01*
X23775000Y3720396D01*
X23325604Y3271001D01*
X22966395Y3271001D01*
X22966397Y3271002D01*
X23595396Y3900001D01*
X23954604Y3900001D01*
X23954604Y3899999D01*
X24583601Y3271002D01*
X24583603Y3271001D01*
X24800014Y3271001D01*
X24800022Y3271002D01*
X24874105Y3285738D01*
X24874107Y3285738D01*
X24958124Y3341876D01*
X25014262Y3425894D01*
X25014263Y3425895D01*
X25028999Y3499978D01*
X25028999Y3979239D01*
X25695500Y3979239D01*
X25695500Y3820762D01*
X25715708Y3719168D01*
X25726416Y3665336D01*
X25787061Y3518926D01*
X25813124Y3479920D01*
X25875103Y3387162D01*
X25875108Y3387156D01*
X25987155Y3275109D01*
X25987161Y3275104D01*
X26118926Y3187061D01*
X26265336Y3126416D01*
X26420764Y3095500D01*
X26420765Y3095500D01*
X26579235Y3095500D01*
X26579236Y3095500D01*
X26734664Y3126416D01*
X26881074Y3187061D01*
X27012839Y3275104D01*
X27124896Y3387161D01*
X27212939Y3518926D01*
X27273584Y3665336D01*
X27304500Y3820764D01*
X27304500Y3979236D01*
X27273584Y4134664D01*
X27212939Y4281074D01*
X27200278Y4300023D01*
X27971000Y4300023D01*
X27971000Y3499987D01*
X27971001Y3499977D01*
X27985737Y3425895D01*
X27985737Y3425893D01*
X28041875Y3341876D01*
X28125893Y3285738D01*
X28125894Y3285737D01*
X28199980Y3271001D01*
X28416395Y3271001D01*
X28775604Y3271001D01*
X29674395Y3271001D01*
X29674395Y3271002D01*
X29225001Y3720396D01*
X29225000Y3720396D01*
X28775604Y3271001D01*
X28416395Y3271001D01*
X28416397Y3271002D01*
X29045396Y3900001D01*
X29404604Y3900001D01*
X29404604Y3899999D01*
X30033601Y3271002D01*
X30033603Y3271001D01*
X30250014Y3271001D01*
X30250022Y3271002D01*
X30324105Y3285738D01*
X30324107Y3285738D01*
X30408124Y3341876D01*
X30464262Y3425894D01*
X30464263Y3425895D01*
X30478999Y3499978D01*
X30478999Y4300014D01*
X30478998Y4300024D01*
X30464262Y4374106D01*
X30464262Y4374108D01*
X30408124Y4458125D01*
X30324106Y4514263D01*
X30324105Y4514264D01*
X30250022Y4529000D01*
X30033603Y4529000D01*
X29404604Y3900001D01*
X29045396Y3900001D01*
X28416397Y4529000D01*
X28775603Y4529000D01*
X29224999Y4079604D01*
X29225000Y4079604D01*
X29674395Y4529000D01*
X28775603Y4529000D01*
X28416397Y4529000D01*
X28199986Y4529000D01*
X28199976Y4528999D01*
X28125894Y4514263D01*
X28125892Y4514263D01*
X28041875Y4458125D01*
X27985737Y4374107D01*
X27985736Y4374106D01*
X27971000Y4300023D01*
X27200278Y4300023D01*
X27124896Y4412839D01*
X27124891Y4412845D01*
X27012844Y4524892D01*
X27012838Y4524897D01*
X26965927Y4556242D01*
X26881074Y4612939D01*
X26734664Y4673584D01*
X26579238Y4704500D01*
X26579236Y4704500D01*
X26420764Y4704500D01*
X26420761Y4704500D01*
X26265335Y4673584D01*
X26265330Y4673582D01*
X26118926Y4612939D01*
X25987161Y4524897D01*
X25987155Y4524892D01*
X25875108Y4412845D01*
X25875103Y4412839D01*
X25787061Y4281074D01*
X25726418Y4134670D01*
X25726416Y4134665D01*
X25695500Y3979239D01*
X25028999Y3979239D01*
X25028999Y4300014D01*
X25028998Y4300024D01*
X25014262Y4374106D01*
X25014262Y4374108D01*
X24958124Y4458125D01*
X24874106Y4514263D01*
X24874105Y4514264D01*
X24800022Y4529000D01*
X24583603Y4529000D01*
X23954604Y3900001D01*
X23595396Y3900001D01*
X22966397Y4529000D01*
X23325603Y4529000D01*
X23774999Y4079604D01*
X23775000Y4079604D01*
X24224395Y4529000D01*
X23325603Y4529000D01*
X22966397Y4529000D01*
X22749986Y4529000D01*
X22749976Y4528999D01*
X22675894Y4514263D01*
X22675892Y4514263D01*
X22591875Y4458125D01*
X22535737Y4374107D01*
X22535736Y4374106D01*
X22521000Y4300023D01*
X19758500Y4300023D01*
X19758500Y7300185D01*
X19778502Y7368306D01*
X19808991Y7401053D01*
X19813595Y7404500D01*
X19817544Y7407456D01*
X19900175Y7517837D01*
X19948360Y7647027D01*
X19954500Y7704136D01*
X19954500Y8295864D01*
X19948360Y8352973D01*
X19900175Y8482163D01*
X19880459Y8508500D01*
X19817544Y8592544D01*
X19808988Y8598949D01*
X19766444Y8655784D01*
X19758500Y8699815D01*
X19758500Y9086159D01*
X19778502Y9154280D01*
X19783110Y9160966D01*
X19856369Y9260227D01*
X19901621Y9389549D01*
X19904500Y9420251D01*
X19904499Y10079748D01*
X19901621Y10110451D01*
X19856369Y10239773D01*
X19856368Y10239775D01*
X19775010Y10350011D01*
X19664774Y10431369D01*
X19664767Y10431372D01*
X19535453Y10476621D01*
X19535455Y10476621D01*
X19510889Y10478925D01*
X19504749Y10479500D01*
X19504748Y10479500D01*
X18995259Y10479500D01*
X18995244Y10479499D01*
X18964547Y10476621D01*
X18964544Y10476620D01*
X18835232Y10431372D01*
X18835225Y10431369D01*
X18724989Y10350011D01*
X18643631Y10239775D01*
X18643628Y10239768D01*
X18598379Y10110455D01*
X18595500Y10079752D01*
X18595500Y9420260D01*
X18595501Y9420245D01*
X18598379Y9389548D01*
X18598380Y9389545D01*
X18643628Y9260233D01*
X18643629Y9260230D01*
X18643630Y9260228D01*
X18643631Y9260227D01*
X18716879Y9160979D01*
X18741237Y9094293D01*
X18741500Y9086159D01*
X18741500Y8699815D01*
X18721498Y8631694D01*
X18717205Y8625437D01*
X18706087Y8610235D01*
X18682456Y8592544D01*
X18599825Y8482163D01*
X18586709Y8446998D01*
X18576438Y8432953D01*
X18561510Y8421517D01*
X18550240Y8406461D01*
X18533912Y8400372D01*
X18520080Y8389774D01*
X18501338Y8388224D01*
X18483719Y8381652D01*
X18466693Y8385357D01*
X18449326Y8383919D01*
X18432720Y8392748D01*
X18414345Y8396745D01*
X18402022Y8409068D01*
X18386638Y8417247D01*
X18377442Y8433650D01*
X18364144Y8446948D01*
X18356677Y8463299D01*
X18349731Y8481920D01*
X18267186Y8592187D01*
X18156920Y8674732D01*
X18027860Y8722869D01*
X17970832Y8729000D01*
X17827000Y8729000D01*
X17827000Y7271000D01*
X17970816Y7271000D01*
X17970832Y7271001D01*
X18027860Y7277132D01*
X18156920Y7325269D01*
X18267186Y7407814D01*
X18349732Y7518082D01*
X18356677Y7536701D01*
X18399222Y7593537D01*
X18465742Y7618349D01*
X18535117Y7603258D01*
X18576438Y7567048D01*
X18586708Y7553005D01*
X18599825Y7517837D01*
X18682456Y7407456D01*
X18706086Y7389767D01*
X18717205Y7374563D01*
X18723111Y7358170D01*
X18733556Y7344218D01*
X18738988Y7314104D01*
X18741271Y7307770D01*
X18740633Y7304989D01*
X18741500Y7300185D01*
X18741500Y2912818D01*
X18721498Y2844697D01*
X18704595Y2823723D01*
X17826277Y1945405D01*
X17763965Y1911379D01*
X17737182Y1908500D01*
X2262818Y1908500D01*
X2232897Y1917286D01*
X2202432Y1923913D01*
X2197337Y1927727D01*
X2194697Y1928502D01*
X2173722Y1945405D01*
X2045404Y2073724D01*
X2011379Y2136036D01*
X2008500Y2162819D01*
X2008500Y4360108D01*
X3046000Y4360108D01*
X3046000Y2939893D01*
X3052286Y2881434D01*
X3052286Y2881433D01*
X3101613Y2749184D01*
X3186195Y2636196D01*
X3299183Y2551614D01*
X3431433Y2502287D01*
X3489892Y2496001D01*
X3489905Y2496000D01*
X3866396Y2496000D01*
X3866397Y2496001D01*
X4225603Y2496001D01*
X4225604Y2496000D01*
X6174396Y2496000D01*
X6174396Y2496001D01*
X5200001Y3470396D01*
X5199999Y3470396D01*
X4225603Y2496001D01*
X3866397Y2496001D01*
X3985056Y2614659D01*
X5020396Y3649999D01*
X5020396Y3650001D01*
X5379604Y3650001D01*
X5379604Y3649999D01*
X6533602Y2496001D01*
X6533604Y2496000D01*
X6910095Y2496000D01*
X6910107Y2496001D01*
X6968566Y2502287D01*
X6968567Y2502287D01*
X7100816Y2551614D01*
X7213804Y2636196D01*
X7298386Y2749184D01*
X7347713Y2881433D01*
X7347713Y2881434D01*
X7353999Y2939893D01*
X7354000Y2939905D01*
X7354000Y4360096D01*
X7353999Y4360110D01*
X7353531Y4364466D01*
X7795500Y4364466D01*
X7795500Y4364463D01*
X7795500Y3235537D01*
X7820652Y3109089D01*
X7869989Y2989978D01*
X7908516Y2932319D01*
X7941616Y2882781D01*
X7941621Y2882775D01*
X8032774Y2791622D01*
X8032780Y2791617D01*
X8139978Y2719989D01*
X8259089Y2670652D01*
X8385537Y2645500D01*
X8385538Y2645500D01*
X8514462Y2645500D01*
X8514463Y2645500D01*
X8640911Y2670652D01*
X8760022Y2719989D01*
X8867220Y2791617D01*
X8958383Y2882780D01*
X9030011Y2989978D01*
X9079348Y3109089D01*
X9104500Y3235537D01*
X9104500Y4364463D01*
X9079348Y4490911D01*
X9030011Y4610022D01*
X8958383Y4717220D01*
X8958378Y4717226D01*
X8867225Y4808379D01*
X8867219Y4808384D01*
X8806108Y4849217D01*
X8760022Y4880011D01*
X8640911Y4929348D01*
X8630409Y4931437D01*
X8514465Y4954500D01*
X8514463Y4954500D01*
X8385537Y4954500D01*
X8385534Y4954500D01*
X8259088Y4929348D01*
X8259083Y4929346D01*
X8139978Y4880011D01*
X8032780Y4808384D01*
X8032774Y4808379D01*
X7941621Y4717226D01*
X7941616Y4717220D01*
X7869989Y4610022D01*
X7820654Y4490917D01*
X7820652Y4490912D01*
X7795500Y4364466D01*
X7353531Y4364466D01*
X7347713Y4418567D01*
X7347713Y4418568D01*
X7298386Y4550817D01*
X7213804Y4663805D01*
X7100816Y4748387D01*
X6968566Y4797714D01*
X6910107Y4804000D01*
X6533602Y4804000D01*
X5379604Y3650001D01*
X5020396Y3650001D01*
X3866397Y4804000D01*
X4225603Y4804000D01*
X5199999Y3829604D01*
X5200001Y3829604D01*
X6174396Y4804000D01*
X4225603Y4804000D01*
X3866397Y4804000D01*
X3489892Y4804000D01*
X3431433Y4797714D01*
X3431432Y4797714D01*
X3299183Y4748387D01*
X3186195Y4663805D01*
X3101613Y4550817D01*
X3052286Y4418568D01*
X3052286Y4418567D01*
X3046000Y4360108D01*
X2008500Y4360108D01*
X2008500Y5150786D01*
X12699500Y5150786D01*
X12699500Y4849215D01*
X12738860Y4550240D01*
X12738861Y4550234D01*
X12738862Y4550232D01*
X12816913Y4258942D01*
X12932317Y3980332D01*
X12932318Y3980331D01*
X12932323Y3980320D01*
X13083097Y3719172D01*
X13083099Y3719169D01*
X13083100Y3719168D01*
X13266681Y3479920D01*
X13266685Y3479916D01*
X13266690Y3479910D01*
X13479909Y3266691D01*
X13479914Y3266687D01*
X13479920Y3266681D01*
X13685305Y3109084D01*
X13719171Y3083098D01*
X13980319Y2932324D01*
X13980323Y2932323D01*
X13980332Y2932317D01*
X14258942Y2816913D01*
X14550232Y2738862D01*
X14550238Y2738862D01*
X14550239Y2738861D01*
X14584549Y2734345D01*
X14849217Y2699500D01*
X14849224Y2699500D01*
X15150776Y2699500D01*
X15150783Y2699500D01*
X15449768Y2738862D01*
X15741058Y2816913D01*
X16019668Y2932317D01*
X16280832Y3083100D01*
X16520080Y3266681D01*
X16733319Y3479920D01*
X16916900Y3719168D01*
X17067683Y3980332D01*
X17183087Y4258942D01*
X17261138Y4550232D01*
X17300500Y4849217D01*
X17300500Y5150783D01*
X17261138Y5449768D01*
X17183087Y5741058D01*
X17067683Y6019668D01*
X17067677Y6019677D01*
X17067676Y6019681D01*
X16916902Y6280829D01*
X16916900Y6280832D01*
X16733319Y6520080D01*
X16733313Y6520086D01*
X16733309Y6520091D01*
X16520090Y6733310D01*
X16520084Y6733315D01*
X16520080Y6733319D01*
X16280832Y6916900D01*
X16280831Y6916901D01*
X16280828Y6916903D01*
X16019680Y7067677D01*
X16019672Y7067681D01*
X16019668Y7067683D01*
X15741058Y7183087D01*
X15449768Y7261138D01*
X15449766Y7261139D01*
X15449760Y7261140D01*
X15150785Y7300500D01*
X15150783Y7300500D01*
X14849217Y7300500D01*
X14849214Y7300500D01*
X14550239Y7261140D01*
X14258942Y7183087D01*
X14027883Y7087379D01*
X13980330Y7067682D01*
X13980319Y7067677D01*
X13719171Y6916903D01*
X13479920Y6733319D01*
X13479909Y6733310D01*
X13266690Y6520091D01*
X13266681Y6520080D01*
X13083097Y6280829D01*
X12932323Y6019681D01*
X12932318Y6019670D01*
X12932317Y6019668D01*
X12858524Y5841516D01*
X12816913Y5741058D01*
X12738860Y5449761D01*
X12699500Y5150786D01*
X2008500Y5150786D01*
X2008500Y6298222D01*
X8046000Y6298222D01*
X8046000Y5701797D01*
X8046002Y5701773D01*
X8052452Y5641767D01*
X8052452Y5641765D01*
X8103100Y5505976D01*
X8189952Y5389952D01*
X8305976Y5303100D01*
X8305975Y5303100D01*
X8441761Y5252453D01*
X8441769Y5252451D01*
X8501785Y5246000D01*
X8716395Y5246000D01*
X9075604Y5246000D01*
X10224395Y5246000D01*
X10224395Y5246001D01*
X9650001Y5820395D01*
X9650000Y5820395D01*
X9075604Y5246000D01*
X8716395Y5246000D01*
X8716397Y5246001D01*
X9470396Y6000000D01*
X9829604Y6000000D01*
X9829604Y5999998D01*
X10583601Y5246001D01*
X10583603Y5246000D01*
X10798203Y5246000D01*
X10798226Y5246002D01*
X10858232Y5252452D01*
X10858234Y5252452D01*
X10913226Y5272963D01*
X10994024Y5303100D01*
X11110047Y5389952D01*
X11196899Y5505976D01*
X11247546Y5641761D01*
X11247548Y5641769D01*
X11253999Y5701777D01*
X11253999Y6298202D01*
X11253997Y6298226D01*
X11247547Y6358232D01*
X11247547Y6358234D01*
X11196899Y6494023D01*
X11110047Y6610047D01*
X10994023Y6696899D01*
X10994024Y6696899D01*
X10858238Y6747546D01*
X10858230Y6747548D01*
X10798222Y6753999D01*
X10583603Y6753999D01*
X9829604Y6000000D01*
X9470396Y6000000D01*
X8716397Y6753999D01*
X9075603Y6753999D01*
X9649999Y6179603D01*
X9650000Y6179603D01*
X10224395Y6753999D01*
X9075603Y6753999D01*
X8716397Y6753999D01*
X8501797Y6753999D01*
X8501773Y6753997D01*
X8441767Y6747547D01*
X8441765Y6747547D01*
X8305976Y6696899D01*
X8189952Y6610047D01*
X8103100Y6494023D01*
X8052453Y6358238D01*
X8052451Y6358230D01*
X8046000Y6298222D01*
X2008500Y6298222D01*
X2008500Y6737183D01*
X2028502Y6805304D01*
X2045405Y6826278D01*
X2673722Y7454595D01*
X2736034Y7488621D01*
X2762817Y7491500D01*
X8050241Y7491500D01*
X8118362Y7471498D01*
X8151110Y7441008D01*
X8181019Y7401053D01*
X8189596Y7389596D01*
X8305733Y7302658D01*
X8441658Y7251960D01*
X8501745Y7245500D01*
X10798254Y7245501D01*
X10858342Y7251960D01*
X10994267Y7302658D01*
X11110404Y7389596D01*
X11197342Y7505733D01*
X11248040Y7641658D01*
X11254500Y7701745D01*
X11254500Y7704168D01*
X16996000Y7704168D01*
X17002131Y7647140D01*
X17050268Y7518080D01*
X17132813Y7407814D01*
X17243079Y7325269D01*
X17372139Y7277132D01*
X17429167Y7271001D01*
X17429184Y7271000D01*
X17573000Y7271000D01*
X17573000Y7873000D01*
X16996000Y7873000D01*
X16996000Y7704168D01*
X11254500Y7704168D01*
X11254499Y8010226D01*
X11254499Y8295833D01*
X16996000Y8295833D01*
X16996000Y8127000D01*
X17573000Y8127000D01*
X17573000Y8729000D01*
X17429167Y8729000D01*
X17372139Y8722869D01*
X17243079Y8674732D01*
X17132813Y8592187D01*
X17050268Y8481921D01*
X17002131Y8352861D01*
X16996000Y8295833D01*
X11254499Y8295833D01*
X11254499Y8298247D01*
X11254499Y8298254D01*
X11248040Y8358342D01*
X11197342Y8494267D01*
X11110404Y8610404D01*
X10994267Y8697342D01*
X10994265Y8697343D01*
X10994266Y8697343D01*
X10858349Y8748038D01*
X10858344Y8748040D01*
X10858342Y8748040D01*
X10828298Y8751270D01*
X10798256Y8754500D01*
X8501753Y8754500D01*
X8501729Y8754498D01*
X8441660Y8748041D01*
X8441658Y8748041D01*
X8305733Y8697343D01*
X8189595Y8610404D01*
X8151110Y8558992D01*
X8094274Y8516445D01*
X8050241Y8508500D01*
X2433055Y8508500D01*
X2346835Y8485398D01*
X2303725Y8473847D01*
X2303724Y8473847D01*
X2250470Y8443099D01*
X2187775Y8406902D01*
X2187767Y8406896D01*
X1093104Y7312234D01*
X1093098Y7312227D01*
X1054574Y7245500D01*
X1054573Y7245501D01*
X1035619Y7212670D01*
X984237Y7163677D01*
X914523Y7150241D01*
X848612Y7176627D01*
X807430Y7234459D01*
X800500Y7275670D01*
X800500Y10298263D01*
X8045499Y10298263D01*
X8045499Y9701754D01*
X8045501Y9701730D01*
X8051958Y9641661D01*
X8051958Y9641659D01*
X8102656Y9505734D01*
X8119259Y9483555D01*
X8189595Y9389596D01*
X8305732Y9302658D01*
X8441657Y9251960D01*
X8501744Y9245500D01*
X10798253Y9245501D01*
X10858341Y9251960D01*
X10994266Y9302658D01*
X11110403Y9389596D01*
X11148890Y9441009D01*
X11205725Y9483555D01*
X11249758Y9491500D01*
X13031470Y9491500D01*
X13099591Y9471498D01*
X13132338Y9441009D01*
X13157453Y9407460D01*
X13157456Y9407456D01*
X13267832Y9324828D01*
X13267833Y9324827D01*
X13267835Y9324827D01*
X13267837Y9324825D01*
X13397027Y9276640D01*
X13454136Y9270500D01*
X13454141Y9270500D01*
X13995859Y9270500D01*
X13995864Y9270500D01*
X14052973Y9276640D01*
X14182163Y9324825D01*
X14292544Y9407456D01*
X14375175Y9517837D01*
X14382211Y9536704D01*
X14424755Y9593536D01*
X14491274Y9618349D01*
X14560649Y9603259D01*
X14610852Y9553058D01*
X14618321Y9536705D01*
X14625267Y9518081D01*
X14707813Y9407814D01*
X14818079Y9325269D01*
X14947139Y9277132D01*
X15004167Y9271001D01*
X15004184Y9271000D01*
X15148000Y9271000D01*
X15402000Y9271000D01*
X15545816Y9271000D01*
X15545832Y9271001D01*
X15602860Y9277132D01*
X15731920Y9325269D01*
X15842186Y9407814D01*
X15924731Y9518080D01*
X15972868Y9647140D01*
X15978999Y9704168D01*
X15979000Y9704185D01*
X15979000Y9873000D01*
X15402000Y9873000D01*
X15402000Y9271000D01*
X15148000Y9271000D01*
X15148000Y10127000D01*
X15402000Y10127000D01*
X15979000Y10127000D01*
X15979000Y10295816D01*
X15978999Y10295833D01*
X15972868Y10352861D01*
X15924731Y10481921D01*
X15842186Y10592187D01*
X15731920Y10674732D01*
X15602860Y10722869D01*
X15545832Y10729000D01*
X15402000Y10729000D01*
X15402000Y10127000D01*
X15148000Y10127000D01*
X15148000Y10729000D01*
X15004167Y10729000D01*
X14947139Y10722869D01*
X14818079Y10674732D01*
X14707813Y10592187D01*
X14625266Y10481918D01*
X14618320Y10463295D01*
X14575772Y10406461D01*
X14509251Y10381652D01*
X14439877Y10396745D01*
X14398561Y10432953D01*
X14388291Y10446996D01*
X14375175Y10482163D01*
X14292544Y10592544D01*
X14268912Y10610235D01*
X14257795Y10625437D01*
X14251887Y10641833D01*
X14241444Y10655784D01*
X14236011Y10685896D01*
X14233729Y10692230D01*
X14234366Y10695012D01*
X14233500Y10699815D01*
X14233500Y10966218D01*
X14253502Y11034339D01*
X14307158Y11080832D01*
X14315469Y11084274D01*
X14357163Y11099825D01*
X14357166Y11099827D01*
X14467544Y11182456D01*
X14550175Y11292837D01*
X14598360Y11422027D01*
X14601816Y11454168D01*
X15271000Y11454168D01*
X15277131Y11397140D01*
X15325268Y11268080D01*
X15407813Y11157814D01*
X15518079Y11075269D01*
X15647139Y11027132D01*
X15704167Y11021001D01*
X15704184Y11021000D01*
X15873000Y11021000D01*
X16127000Y11021000D01*
X16295816Y11021000D01*
X16295832Y11021001D01*
X16352860Y11027132D01*
X16481920Y11075269D01*
X16592186Y11157814D01*
X16674731Y11268080D01*
X16712077Y11368208D01*
X17046001Y11368208D01*
X17060983Y11273603D01*
X17119082Y11159576D01*
X17209575Y11069083D01*
X17323599Y11010985D01*
X17418208Y10996001D01*
X17973000Y10996001D01*
X17973000Y11423000D01*
X17046001Y11423000D01*
X17046001Y11368208D01*
X16712077Y11368208D01*
X16722868Y11397140D01*
X16728999Y11454168D01*
X16729000Y11454185D01*
X16729000Y11598000D01*
X16127000Y11598000D01*
X16127000Y11021000D01*
X15873000Y11021000D01*
X15873000Y11598000D01*
X15271000Y11598000D01*
X15271000Y11454168D01*
X14601816Y11454168D01*
X14604500Y11479136D01*
X14604500Y12020864D01*
X14598360Y12077973D01*
X14550175Y12207163D01*
X14550173Y12207165D01*
X14550173Y12207167D01*
X14550172Y12207168D01*
X14486526Y12292187D01*
X14467544Y12317544D01*
X14420137Y12353033D01*
X14357167Y12400173D01*
X14357166Y12400174D01*
X14324845Y12412229D01*
X14227973Y12448360D01*
X14220834Y12449128D01*
X14170871Y12454500D01*
X14170864Y12454500D01*
X13329136Y12454500D01*
X13329128Y12454500D01*
X13272027Y12448360D01*
X13142833Y12400174D01*
X13142832Y12400173D01*
X13032456Y12317544D01*
X12949827Y12207168D01*
X12949826Y12207167D01*
X12901640Y12077973D01*
X12895500Y12020872D01*
X12895500Y11479129D01*
X12898184Y11454168D01*
X12901640Y11422027D01*
X12913736Y11389597D01*
X12949826Y11292834D01*
X12949827Y11292833D01*
X12985261Y11245500D01*
X13032456Y11182456D01*
X13065374Y11157814D01*
X13142833Y11099827D01*
X13150745Y11095507D01*
X13148889Y11092110D01*
X13191141Y11060678D01*
X13216151Y10994233D01*
X13216500Y10984867D01*
X13216500Y10699815D01*
X13196498Y10631694D01*
X13183979Y10615331D01*
X13175787Y10606267D01*
X13157456Y10592544D01*
X13128855Y10554339D01*
X13124949Y10550016D01*
X13099451Y10534373D01*
X13075502Y10516444D01*
X13068033Y10515097D01*
X13064434Y10512888D01*
X13056689Y10513050D01*
X13031470Y10508500D01*
X11249758Y10508500D01*
X11181637Y10528502D01*
X11148889Y10558992D01*
X11110403Y10610404D01*
X11084522Y10629778D01*
X10994266Y10697342D01*
X10994264Y10697343D01*
X10994265Y10697343D01*
X10858348Y10748038D01*
X10858343Y10748040D01*
X10858341Y10748040D01*
X10828297Y10751270D01*
X10798255Y10754500D01*
X8501752Y10754500D01*
X8501728Y10754498D01*
X8441659Y10748041D01*
X8441657Y10748041D01*
X8305732Y10697343D01*
X8189595Y10610404D01*
X8102656Y10494266D01*
X8051961Y10358350D01*
X8051959Y10358342D01*
X8045499Y10298263D01*
X800500Y10298263D01*
X800500Y12298263D01*
X8045500Y12298263D01*
X8045500Y11701754D01*
X8045502Y11701730D01*
X8051959Y11641661D01*
X8051959Y11641659D01*
X8102657Y11505734D01*
X8102658Y11505733D01*
X8189596Y11389596D01*
X8305733Y11302658D01*
X8441658Y11251960D01*
X8501745Y11245500D01*
X10798254Y11245501D01*
X10858342Y11251960D01*
X10994267Y11302658D01*
X11110404Y11389596D01*
X11197342Y11505733D01*
X11248040Y11641658D01*
X11254500Y11701745D01*
X11254499Y12298254D01*
X11248040Y12358342D01*
X11197342Y12494267D01*
X11110404Y12610404D01*
X10994267Y12697342D01*
X10994265Y12697343D01*
X10994266Y12697343D01*
X10858349Y12748038D01*
X10858344Y12748040D01*
X10858342Y12748040D01*
X10828298Y12751270D01*
X10798256Y12754500D01*
X8501753Y12754500D01*
X8501729Y12754498D01*
X8441660Y12748041D01*
X8441658Y12748041D01*
X8305733Y12697343D01*
X8189596Y12610404D01*
X8102657Y12494266D01*
X8051962Y12358350D01*
X8051960Y12358342D01*
X8045500Y12298263D01*
X800500Y12298263D01*
X800500Y14298264D01*
X8045500Y14298264D01*
X8045500Y13701755D01*
X8045502Y13701731D01*
X8051959Y13641662D01*
X8051959Y13641660D01*
X8102657Y13505735D01*
X8102658Y13505734D01*
X8189596Y13389597D01*
X8305733Y13302659D01*
X8441658Y13251961D01*
X8501745Y13245501D01*
X10798254Y13245502D01*
X10858342Y13251961D01*
X10994267Y13302659D01*
X11110404Y13389597D01*
X11197342Y13505734D01*
X11248040Y13641659D01*
X11254500Y13701746D01*
X11254499Y14298255D01*
X11248040Y14358343D01*
X11197342Y14494268D01*
X11110404Y14610405D01*
X10994267Y14697343D01*
X10994265Y14697344D01*
X10994266Y14697344D01*
X10858349Y14748039D01*
X10858344Y14748041D01*
X10858342Y14748041D01*
X10828298Y14751271D01*
X10798256Y14754501D01*
X8501753Y14754501D01*
X8501729Y14754499D01*
X8441660Y14748042D01*
X8441658Y14748042D01*
X8305733Y14697344D01*
X8189596Y14610405D01*
X8102657Y14494267D01*
X8051962Y14358351D01*
X8051960Y14358343D01*
X8045500Y14298264D01*
X800500Y14298264D01*
X800500Y17060108D01*
X3046000Y17060108D01*
X3046000Y15639893D01*
X3052286Y15581434D01*
X3052286Y15581433D01*
X3101613Y15449184D01*
X3186195Y15336196D01*
X3299183Y15251614D01*
X3431433Y15202287D01*
X3489892Y15196001D01*
X3489905Y15196000D01*
X3866396Y15196000D01*
X3866397Y15196001D01*
X4225603Y15196001D01*
X4225604Y15196000D01*
X6174396Y15196000D01*
X6174396Y15196001D01*
X5200001Y16170396D01*
X5199999Y16170396D01*
X4225603Y15196001D01*
X3866397Y15196001D01*
X3985056Y15314659D01*
X5020396Y16349999D01*
X5020396Y16350001D01*
X5379604Y16350001D01*
X5379604Y16349999D01*
X6533602Y15196001D01*
X6533604Y15196000D01*
X6910095Y15196000D01*
X6910107Y15196001D01*
X6968566Y15202287D01*
X6968567Y15202287D01*
X7100816Y15251614D01*
X7193334Y15320872D01*
X12895500Y15320872D01*
X12895500Y14779129D01*
X12898843Y14748042D01*
X12901640Y14722027D01*
X12910846Y14697344D01*
X12949826Y14592834D01*
X12949827Y14592833D01*
X12996967Y14529863D01*
X13032456Y14482456D01*
X13095781Y14435051D01*
X13142832Y14399828D01*
X13142835Y14399826D01*
X13142836Y14399826D01*
X13142837Y14399825D01*
X13159532Y14393599D01*
X13216367Y14351053D01*
X13241179Y14284533D01*
X13241500Y14275543D01*
X13241500Y14183055D01*
X13276153Y14053726D01*
X13276154Y14053724D01*
X13276155Y14053722D01*
X13343096Y13937777D01*
X13343104Y13937767D01*
X14412766Y12868105D01*
X14412771Y12868101D01*
X14412773Y12868099D01*
X14412774Y12868098D01*
X14412776Y12868097D01*
X14509547Y12812226D01*
X14509549Y12812225D01*
X14528722Y12801155D01*
X14528726Y12801153D01*
X14658055Y12766500D01*
X15300185Y12766500D01*
X15368306Y12746498D01*
X15374563Y12742205D01*
X15389766Y12731087D01*
X15407456Y12707456D01*
X15517837Y12624825D01*
X15553004Y12611709D01*
X15567047Y12601439D01*
X15578483Y12586512D01*
X15593536Y12575244D01*
X15599625Y12558918D01*
X15610226Y12545082D01*
X15611776Y12526342D01*
X15618348Y12508724D01*
X15614643Y12491696D01*
X15616081Y12474327D01*
X15607253Y12457723D01*
X15603257Y12439350D01*
X15590935Y12427028D01*
X15582754Y12411639D01*
X15566352Y12402444D01*
X15553056Y12389147D01*
X15536705Y12381680D01*
X15518082Y12374734D01*
X15407813Y12292187D01*
X15325268Y12181921D01*
X15277131Y12052861D01*
X15271000Y11995833D01*
X15271000Y11852000D01*
X16729000Y11852000D01*
X16729000Y11995816D01*
X16728999Y11995833D01*
X16722868Y12052861D01*
X16674731Y12181921D01*
X16592186Y12292187D01*
X16481919Y12374733D01*
X16463295Y12381679D01*
X16406461Y12424227D01*
X16381651Y12490747D01*
X16396743Y12560121D01*
X16446947Y12610323D01*
X16463282Y12617783D01*
X16482163Y12624825D01*
X16592544Y12707456D01*
X16675175Y12817837D01*
X16723360Y12947027D01*
X16729500Y13004136D01*
X16729500Y13233183D01*
X16738283Y13263099D01*
X16744912Y13293568D01*
X16748726Y13298664D01*
X16749502Y13301304D01*
X16766405Y13322278D01*
X16830405Y13386278D01*
X16892717Y13420304D01*
X16963532Y13415239D01*
X17020368Y13372692D01*
X17045179Y13306172D01*
X17045500Y13297183D01*
X17045500Y13268166D01*
X17048067Y13251961D01*
X17060501Y13173447D01*
X17118673Y13059277D01*
X17124501Y13051257D01*
X17121898Y13049366D01*
X17147881Y13001783D01*
X17142816Y12930968D01*
X17122868Y12899930D01*
X17124501Y12898743D01*
X17118673Y12890724D01*
X17060501Y12776554D01*
X17045500Y12681833D01*
X17045500Y12318168D01*
X17060501Y12223447D01*
X17118673Y12109277D01*
X17124501Y12101257D01*
X17122012Y12099450D01*
X17148234Y12051430D01*
X17143169Y11980615D01*
X17123269Y11949643D01*
X17124912Y11948449D01*
X17119085Y11940430D01*
X17060984Y11826401D01*
X17046000Y11731792D01*
X17046000Y11677000D01*
X17974000Y11677000D01*
X17982825Y11674409D01*
X17991932Y11675718D01*
X18016357Y11664563D01*
X18042121Y11656998D01*
X18048145Y11650045D01*
X18056512Y11646224D01*
X18071026Y11623639D01*
X18088614Y11603342D01*
X18090938Y11592656D01*
X18094896Y11586498D01*
X18100000Y11551000D01*
X18100000Y11550000D01*
X18101000Y11550000D01*
X18169121Y11529998D01*
X18215614Y11476342D01*
X18227000Y11424000D01*
X18227000Y10996001D01*
X18781792Y10996001D01*
X18876397Y11010984D01*
X18990424Y11069083D01*
X19080915Y11159574D01*
X19080918Y11159579D01*
X19137452Y11270532D01*
X19186200Y11322148D01*
X19255115Y11339214D01*
X19322316Y11316314D01*
X19361985Y11270534D01*
X19363236Y11268080D01*
X19418673Y11159277D01*
X19509276Y11068674D01*
X19566361Y11039588D01*
X19623445Y11010502D01*
X19718166Y10995500D01*
X19771386Y10995500D01*
X19839507Y10975498D01*
X19886000Y10921842D01*
X19893093Y10902111D01*
X19926152Y10778729D01*
X19926155Y10778722D01*
X19993096Y10662777D01*
X19993104Y10662767D01*
X20270220Y10385651D01*
X20304246Y10323339D01*
X20299181Y10252524D01*
X20294223Y10241469D01*
X20248379Y10110455D01*
X20245500Y10079752D01*
X20245500Y9420260D01*
X20245501Y9420245D01*
X20248379Y9389548D01*
X20248380Y9389545D01*
X20293628Y9260233D01*
X20293631Y9260226D01*
X20374989Y9149990D01*
X20485225Y9068632D01*
X20485232Y9068629D01*
X20614546Y9023380D01*
X20614549Y9023379D01*
X20645251Y9020500D01*
X20927308Y9020501D01*
X20995428Y9000499D01*
X20996047Y9000000D01*
X21000000Y9000000D01*
X21765500Y9000000D01*
X21833621Y8979998D01*
X21880114Y8926342D01*
X21891500Y8874000D01*
X21891500Y8783055D01*
X21926153Y8653726D01*
X21926154Y8653724D01*
X21926155Y8653722D01*
X21993096Y8537777D01*
X21993098Y8537775D01*
X21993099Y8537773D01*
X22418099Y8112774D01*
X22512774Y8018099D01*
X22628726Y7951153D01*
X22758055Y7916500D01*
X23086159Y7916500D01*
X23107348Y7910279D01*
X23129386Y7908853D01*
X23150097Y7897727D01*
X23154280Y7896498D01*
X23160974Y7891883D01*
X23190321Y7870225D01*
X23233253Y7813682D01*
X23241500Y7768846D01*
X23241500Y7155500D01*
X23221498Y7087379D01*
X23167842Y7040886D01*
X23115500Y7029500D01*
X22749936Y7029500D01*
X22749926Y7029499D01*
X22675699Y7014735D01*
X22591515Y6958484D01*
X22535266Y6874303D01*
X22520500Y6800070D01*
X22520500Y5999937D01*
X22520501Y5999927D01*
X22535265Y5925700D01*
X22591516Y5841516D01*
X22675697Y5785267D01*
X22675699Y5785266D01*
X22749933Y5770500D01*
X24800066Y5770501D01*
X24800069Y5770502D01*
X24800073Y5770502D01*
X24849326Y5780299D01*
X24874301Y5785266D01*
X24958484Y5841516D01*
X25014734Y5925699D01*
X25029500Y5999933D01*
X25029499Y6498939D01*
X25495500Y6498939D01*
X25495500Y6301062D01*
X25534103Y6106998D01*
X25534104Y6106995D01*
X25578453Y5999927D01*
X25609824Y5924191D01*
X25719754Y5759669D01*
X25859669Y5619754D01*
X26024191Y5509824D01*
X26206998Y5434103D01*
X26401065Y5395500D01*
X26598935Y5395500D01*
X26793002Y5434103D01*
X26975809Y5509824D01*
X27140331Y5619754D01*
X27280246Y5759669D01*
X27390176Y5924191D01*
X27465897Y6106998D01*
X27504500Y6301065D01*
X27504500Y6498935D01*
X27465897Y6693002D01*
X27421548Y6800070D01*
X27970500Y6800070D01*
X27970500Y5999937D01*
X27970501Y5999927D01*
X27985265Y5925700D01*
X28041516Y5841516D01*
X28125697Y5785267D01*
X28125699Y5785266D01*
X28199933Y5770500D01*
X30250066Y5770501D01*
X30250069Y5770502D01*
X30250073Y5770502D01*
X30299326Y5780299D01*
X30324301Y5785266D01*
X30408484Y5841516D01*
X30464734Y5925699D01*
X30479500Y5999933D01*
X30479499Y6800066D01*
X30479498Y6800070D01*
X30479498Y6800074D01*
X30464734Y6874301D01*
X30408483Y6958485D01*
X30324302Y7014734D01*
X30250069Y7029500D01*
X30250067Y7029500D01*
X29884500Y7029500D01*
X29816379Y7049502D01*
X29769886Y7103158D01*
X29758500Y7155500D01*
X29758500Y7768846D01*
X29778502Y7836967D01*
X29809674Y7870222D01*
X29850010Y7899990D01*
X29931369Y8010227D01*
X29976621Y8139549D01*
X29979500Y8170251D01*
X29979499Y8679748D01*
X29976621Y8710451D01*
X29931369Y8839773D01*
X29931368Y8839775D01*
X29850010Y8950011D01*
X29739774Y9031369D01*
X29739767Y9031372D01*
X29610453Y9076621D01*
X29610455Y9076621D01*
X29585889Y9078925D01*
X29579749Y9079500D01*
X29579748Y9079500D01*
X28920259Y9079500D01*
X28920244Y9079499D01*
X28889547Y9076621D01*
X28889544Y9076620D01*
X28760232Y9031372D01*
X28760225Y9031369D01*
X28649989Y8950011D01*
X28568631Y8839775D01*
X28568628Y8839768D01*
X28523379Y8710455D01*
X28520500Y8679752D01*
X28520500Y8170260D01*
X28520501Y8170245D01*
X28523379Y8139548D01*
X28523380Y8139545D01*
X28568628Y8010233D01*
X28568631Y8010226D01*
X28649986Y7899995D01*
X28649990Y7899990D01*
X28690323Y7870223D01*
X28733253Y7813681D01*
X28741500Y7768846D01*
X28741500Y7155500D01*
X28721498Y7087379D01*
X28667842Y7040886D01*
X28615500Y7029500D01*
X28199936Y7029500D01*
X28199926Y7029499D01*
X28125699Y7014735D01*
X28041515Y6958484D01*
X27985266Y6874303D01*
X27970500Y6800070D01*
X27421548Y6800070D01*
X27390176Y6875809D01*
X27280246Y7040331D01*
X27140331Y7180246D01*
X26975809Y7290176D01*
X26811657Y7358170D01*
X26793005Y7365896D01*
X26793002Y7365897D01*
X26598938Y7404500D01*
X26598935Y7404500D01*
X26401065Y7404500D01*
X26401061Y7404500D01*
X26206997Y7365897D01*
X26206994Y7365896D01*
X26024190Y7290176D01*
X25859673Y7180249D01*
X25859666Y7180244D01*
X25719756Y7040334D01*
X25719751Y7040327D01*
X25609824Y6875810D01*
X25534104Y6693006D01*
X25534103Y6693003D01*
X25495500Y6498939D01*
X25029499Y6498939D01*
X25029499Y6800066D01*
X25029498Y6800070D01*
X25029498Y6800074D01*
X25014734Y6874301D01*
X24958483Y6958485D01*
X24874302Y7014734D01*
X24800069Y7029500D01*
X24800067Y7029500D01*
X24384500Y7029500D01*
X24316379Y7049502D01*
X24269886Y7103158D01*
X24258500Y7155500D01*
X24258500Y7768846D01*
X24278502Y7836967D01*
X24309674Y7870222D01*
X24350010Y7899990D01*
X24431369Y8010227D01*
X24476621Y8139549D01*
X24479500Y8170251D01*
X24479499Y8679748D01*
X24476621Y8710451D01*
X24431369Y8839773D01*
X24431368Y8839775D01*
X24350010Y8950011D01*
X24239774Y9031369D01*
X24239767Y9031372D01*
X24110453Y9076621D01*
X24110455Y9076621D01*
X24085889Y9078925D01*
X24079749Y9079500D01*
X24079748Y9079500D01*
X23420259Y9079500D01*
X23420244Y9079499D01*
X23389547Y9076621D01*
X23389544Y9076620D01*
X23260232Y9031372D01*
X23260225Y9031369D01*
X23161934Y8958826D01*
X23129027Y8946807D01*
X23096101Y8934526D01*
X23095665Y8934621D01*
X23095247Y8934468D01*
X23061036Y8942155D01*
X23026727Y8949618D01*
X23026260Y8949968D01*
X23025977Y8950031D01*
X22998017Y8971110D01*
X22945404Y9023724D01*
X22911379Y9086037D01*
X22908500Y9112819D01*
X22908500Y9494288D01*
X22928502Y9562409D01*
X22982158Y9608902D01*
X23052432Y9619006D01*
X23117012Y9589512D01*
X23135879Y9569109D01*
X23149989Y9549990D01*
X23260225Y9468632D01*
X23260232Y9468629D01*
X23389546Y9423380D01*
X23389549Y9423379D01*
X23420251Y9420500D01*
X24079748Y9420501D01*
X24110451Y9423379D01*
X24239773Y9468631D01*
X24290046Y9505734D01*
X24339021Y9541879D01*
X24405708Y9566237D01*
X24413842Y9566500D01*
X28586158Y9566500D01*
X28654279Y9546498D01*
X28660979Y9541879D01*
X28760225Y9468632D01*
X28760232Y9468629D01*
X28889546Y9423380D01*
X28889549Y9423379D01*
X28920251Y9420500D01*
X29579748Y9420501D01*
X29610451Y9423379D01*
X29739773Y9468631D01*
X29850010Y9549990D01*
X29931369Y9660227D01*
X29976621Y9789549D01*
X29979500Y9820251D01*
X29979499Y10329748D01*
X29976621Y10360451D01*
X29940634Y10463295D01*
X29931371Y10489768D01*
X29931368Y10489775D01*
X29850010Y10600011D01*
X29739774Y10681369D01*
X29739767Y10681372D01*
X29610453Y10726621D01*
X29610455Y10726621D01*
X29585081Y10729000D01*
X29579749Y10729500D01*
X29579748Y10729500D01*
X28920259Y10729500D01*
X28920244Y10729499D01*
X28889547Y10726621D01*
X28889544Y10726620D01*
X28760232Y10681372D01*
X28760225Y10681369D01*
X28660979Y10608121D01*
X28594292Y10583763D01*
X28586158Y10583500D01*
X24413842Y10583500D01*
X24392651Y10589722D01*
X24370612Y10591148D01*
X24349904Y10602274D01*
X24345721Y10603502D01*
X24339019Y10608122D01*
X24309677Y10629778D01*
X24266746Y10686323D01*
X24258500Y10731156D01*
X24258500Y12816944D01*
X24244794Y12868097D01*
X24223847Y12946274D01*
X24223412Y12947027D01*
X24210915Y12968672D01*
X24210913Y12968675D01*
X24207261Y12975000D01*
X24156901Y13062227D01*
X24156899Y13062229D01*
X24156895Y13062234D01*
X23362233Y13856896D01*
X23362223Y13856904D01*
X23246278Y13923845D01*
X23246276Y13923846D01*
X23246274Y13923847D01*
X23116945Y13958500D01*
X23116943Y13958500D01*
X21267642Y13958500D01*
X21243252Y13960883D01*
X21226055Y13964277D01*
X21176555Y13989498D01*
X21081834Y14004500D01*
X21022188Y14004500D01*
X21010110Y14006883D01*
X20989104Y14017830D01*
X20966379Y14024502D01*
X20958211Y14033929D01*
X20947149Y14039693D01*
X20935396Y14060258D01*
X20919886Y14078158D01*
X20916640Y14093078D01*
X20911922Y14101334D01*
X20912486Y14112176D01*
X20908500Y14130500D01*
X20908500Y14166944D01*
X20904183Y14183055D01*
X20873847Y14296274D01*
X20869544Y14303727D01*
X20842220Y14351053D01*
X20806903Y14412224D01*
X20806895Y14412234D01*
X20312233Y14906896D01*
X20312223Y14906904D01*
X20196278Y14973845D01*
X20196276Y14973846D01*
X20196274Y14973847D01*
X20066945Y15008500D01*
X17158055Y15008500D01*
X17028726Y14973847D01*
X17028724Y14973846D01*
X17028721Y14973845D01*
X16912775Y14906903D01*
X16022276Y14016404D01*
X15959964Y13982379D01*
X15933181Y13979500D01*
X15704128Y13979500D01*
X15647027Y13973360D01*
X15517833Y13925174D01*
X15517832Y13925173D01*
X15407456Y13842545D01*
X15407453Y13842541D01*
X15401053Y13833991D01*
X15344218Y13791444D01*
X15300185Y13783500D01*
X14987818Y13783500D01*
X14919697Y13803502D01*
X14898723Y13820405D01*
X14438332Y14280796D01*
X14404306Y14343108D01*
X14409371Y14413923D01*
X14451914Y14470756D01*
X14467544Y14482456D01*
X14550175Y14592837D01*
X14598360Y14722027D01*
X14604500Y14779136D01*
X14604500Y15320864D01*
X14598360Y15377973D01*
X14550175Y15507163D01*
X14550173Y15507165D01*
X14550173Y15507167D01*
X14550172Y15507168D01*
X14513435Y15556242D01*
X14467544Y15617544D01*
X14420137Y15653033D01*
X14357167Y15700173D01*
X14357166Y15700174D01*
X14306602Y15719033D01*
X14227973Y15748360D01*
X14220834Y15749128D01*
X14170871Y15754500D01*
X14170864Y15754500D01*
X13329136Y15754500D01*
X13329128Y15754500D01*
X13272027Y15748360D01*
X13142833Y15700174D01*
X13142832Y15700173D01*
X13032456Y15617544D01*
X12949827Y15507168D01*
X12949826Y15507167D01*
X12901640Y15377973D01*
X12895500Y15320872D01*
X7193334Y15320872D01*
X7213804Y15336196D01*
X7298386Y15449184D01*
X7347713Y15581433D01*
X7347713Y15581434D01*
X7353999Y15639893D01*
X7354000Y15639905D01*
X7354000Y16274315D01*
X7695500Y16274315D01*
X7695500Y16274312D01*
X7695500Y16125688D01*
X7724495Y15979920D01*
X7781371Y15842610D01*
X7863941Y15719034D01*
X7863942Y15719033D01*
X7863947Y15719027D01*
X7969026Y15613948D01*
X7969032Y15613943D01*
X7969034Y15613941D01*
X8092610Y15531371D01*
X8229920Y15474495D01*
X8375688Y15445500D01*
X8375689Y15445500D01*
X8524311Y15445500D01*
X8524312Y15445500D01*
X8534028Y15447433D01*
X8535966Y15447818D01*
X8550345Y15450679D01*
X8670080Y15474495D01*
X8807390Y15531371D01*
X8930966Y15613941D01*
X9036059Y15719034D01*
X9118629Y15842610D01*
X9175505Y15979920D01*
X9204500Y16125688D01*
X9204500Y16274312D01*
X9175505Y16420080D01*
X9118629Y16557390D01*
X9036059Y16680966D01*
X9036057Y16680968D01*
X9036052Y16680974D01*
X8930973Y16786053D01*
X8930967Y16786058D01*
X8930966Y16786059D01*
X8807390Y16868629D01*
X8670080Y16925505D01*
X8524314Y16954500D01*
X8524312Y16954500D01*
X8375688Y16954500D01*
X8375685Y16954500D01*
X8229919Y16925505D01*
X8229914Y16925503D01*
X8092610Y16868629D01*
X7969032Y16786058D01*
X7969026Y16786053D01*
X7863947Y16680974D01*
X7863942Y16680968D01*
X7781371Y16557390D01*
X7724497Y16420086D01*
X7724495Y16420081D01*
X7695500Y16274315D01*
X7354000Y16274315D01*
X7354000Y17060096D01*
X7353999Y17060108D01*
X7347713Y17118567D01*
X7347713Y17118568D01*
X7298386Y17250817D01*
X7213804Y17363805D01*
X7100816Y17448387D01*
X6968566Y17497714D01*
X6910107Y17504000D01*
X6533602Y17504000D01*
X5379604Y16350001D01*
X5020396Y16350001D01*
X3866397Y17504000D01*
X4225603Y17504000D01*
X5199999Y16529604D01*
X5200001Y16529604D01*
X6174396Y17504000D01*
X4225603Y17504000D01*
X3866397Y17504000D01*
X3489892Y17504000D01*
X3431433Y17497714D01*
X3431432Y17497714D01*
X3299183Y17448387D01*
X3186195Y17363805D01*
X3101613Y17250817D01*
X3052286Y17118568D01*
X3052286Y17118567D01*
X3046000Y17060108D01*
X800500Y17060108D01*
X800500Y18329057D01*
X1149500Y18329057D01*
X1149500Y18170943D01*
X1177169Y18067682D01*
X1190424Y18018212D01*
X1269477Y17881288D01*
X1269485Y17881278D01*
X1381277Y17769486D01*
X1381282Y17769482D01*
X1381284Y17769480D01*
X1381285Y17769479D01*
X1381287Y17769478D01*
X1518211Y17690425D01*
X1518213Y17690425D01*
X1518216Y17690423D01*
X1670943Y17649500D01*
X1670945Y17649500D01*
X1829055Y17649500D01*
X1829057Y17649500D01*
X1981784Y17690423D01*
X1981787Y17690425D01*
X1981788Y17690425D01*
X2072768Y17742952D01*
X2118716Y17769480D01*
X2230520Y17881284D01*
X2309577Y18018216D01*
X2350500Y18170943D01*
X2350500Y18329057D01*
X2309577Y18481784D01*
X2309575Y18481787D01*
X2309575Y18481789D01*
X2230522Y18618713D01*
X2230514Y18618723D01*
X2118722Y18730515D01*
X2118712Y18730523D01*
X1981788Y18809576D01*
X1963743Y18814411D01*
X1829057Y18850500D01*
X1670943Y18850500D01*
X1577470Y18825455D01*
X1518211Y18809576D01*
X1381287Y18730523D01*
X1381277Y18730515D01*
X1269485Y18618723D01*
X1269477Y18618713D01*
X1190424Y18481789D01*
X1167544Y18396401D01*
X1149500Y18329057D01*
X800500Y18329057D01*
X800500Y19073500D01*
X820502Y19141621D01*
X874158Y19188114D01*
X926500Y19199500D01*
X14335738Y19199500D01*
X14403859Y19179498D01*
G37*
%TD.AperFunction*%
%TD*%
M02*
