%TF.GenerationSoftware,KiCad,Pcbnew,9.0.6-1.fc42*%
%TF.CreationDate,2025-11-29T12:02:27+10:30*%
%TF.ProjectId,kinsanwaswitch,6b696e73-616e-4776-9173-77697463682e,1.0*%
%TF.SameCoordinates,PX5418b59PY53ec600*%
%TF.FileFunction,Other,Comment*%
%FSLAX46Y46*%
G04 Gerber Fmt 4.6, Leading zero omitted, Abs format (unit mm)*
G04 Created by KiCad (PCBNEW 9.0.6-1.fc42) date 2025-11-29 12:02:27*
%MOMM*%
%LPD*%
G01*
G04 APERTURE LIST*
%ADD10C,0.200000*%
%ADD11C,0.400000*%
G04 APERTURE END LIST*
D10*
X58281573Y46530972D02*
X58424430Y46530972D01*
X58424430Y46530972D02*
X58567287Y46459543D01*
X58567287Y46459543D02*
X58638716Y46388115D01*
X58638716Y46388115D02*
X58710144Y46245258D01*
X58710144Y46245258D02*
X58781573Y45959543D01*
X58781573Y45959543D02*
X58781573Y45602400D01*
X58781573Y45602400D02*
X58710144Y45316686D01*
X58710144Y45316686D02*
X58638716Y45173829D01*
X58638716Y45173829D02*
X58567287Y45102400D01*
X58567287Y45102400D02*
X58424430Y45030972D01*
X58424430Y45030972D02*
X58281573Y45030972D01*
X58281573Y45030972D02*
X58138716Y45102400D01*
X58138716Y45102400D02*
X58067287Y45173829D01*
X58067287Y45173829D02*
X57995858Y45316686D01*
X57995858Y45316686D02*
X57924430Y45602400D01*
X57924430Y45602400D02*
X57924430Y45959543D01*
X57924430Y45959543D02*
X57995858Y46245258D01*
X57995858Y46245258D02*
X58067287Y46388115D01*
X58067287Y46388115D02*
X58138716Y46459543D01*
X58138716Y46459543D02*
X58281573Y46530972D01*
X59424429Y45173829D02*
X59495858Y45102400D01*
X59495858Y45102400D02*
X59424429Y45030972D01*
X59424429Y45030972D02*
X59353001Y45102400D01*
X59353001Y45102400D02*
X59424429Y45173829D01*
X59424429Y45173829D02*
X59424429Y45030972D01*
X60781573Y46030972D02*
X60781573Y45030972D01*
X60424430Y46602400D02*
X60067287Y45530972D01*
X60067287Y45530972D02*
X60995858Y45530972D01*
X61853001Y46530972D02*
X61995858Y46530972D01*
X61995858Y46530972D02*
X62138715Y46459543D01*
X62138715Y46459543D02*
X62210144Y46388115D01*
X62210144Y46388115D02*
X62281572Y46245258D01*
X62281572Y46245258D02*
X62353001Y45959543D01*
X62353001Y45959543D02*
X62353001Y45602400D01*
X62353001Y45602400D02*
X62281572Y45316686D01*
X62281572Y45316686D02*
X62210144Y45173829D01*
X62210144Y45173829D02*
X62138715Y45102400D01*
X62138715Y45102400D02*
X61995858Y45030972D01*
X61995858Y45030972D02*
X61853001Y45030972D01*
X61853001Y45030972D02*
X61710144Y45102400D01*
X61710144Y45102400D02*
X61638715Y45173829D01*
X61638715Y45173829D02*
X61567286Y45316686D01*
X61567286Y45316686D02*
X61495858Y45602400D01*
X61495858Y45602400D02*
X61495858Y45959543D01*
X61495858Y45959543D02*
X61567286Y46245258D01*
X61567286Y46245258D02*
X61638715Y46388115D01*
X61638715Y46388115D02*
X61710144Y46459543D01*
X61710144Y46459543D02*
X61853001Y46530972D01*
X63281572Y46530972D02*
X63424429Y46530972D01*
X63424429Y46530972D02*
X63567286Y46459543D01*
X63567286Y46459543D02*
X63638715Y46388115D01*
X63638715Y46388115D02*
X63710143Y46245258D01*
X63710143Y46245258D02*
X63781572Y45959543D01*
X63781572Y45959543D02*
X63781572Y45602400D01*
X63781572Y45602400D02*
X63710143Y45316686D01*
X63710143Y45316686D02*
X63638715Y45173829D01*
X63638715Y45173829D02*
X63567286Y45102400D01*
X63567286Y45102400D02*
X63424429Y45030972D01*
X63424429Y45030972D02*
X63281572Y45030972D01*
X63281572Y45030972D02*
X63138715Y45102400D01*
X63138715Y45102400D02*
X63067286Y45173829D01*
X63067286Y45173829D02*
X62995857Y45316686D01*
X62995857Y45316686D02*
X62924429Y45602400D01*
X62924429Y45602400D02*
X62924429Y45959543D01*
X62924429Y45959543D02*
X62995857Y46245258D01*
X62995857Y46245258D02*
X63067286Y46388115D01*
X63067286Y46388115D02*
X63138715Y46459543D01*
X63138715Y46459543D02*
X63281572Y46530972D01*
X64710143Y46530972D02*
X64853000Y46530972D01*
X64853000Y46530972D02*
X64995857Y46459543D01*
X64995857Y46459543D02*
X65067286Y46388115D01*
X65067286Y46388115D02*
X65138714Y46245258D01*
X65138714Y46245258D02*
X65210143Y45959543D01*
X65210143Y45959543D02*
X65210143Y45602400D01*
X65210143Y45602400D02*
X65138714Y45316686D01*
X65138714Y45316686D02*
X65067286Y45173829D01*
X65067286Y45173829D02*
X64995857Y45102400D01*
X64995857Y45102400D02*
X64853000Y45030972D01*
X64853000Y45030972D02*
X64710143Y45030972D01*
X64710143Y45030972D02*
X64567286Y45102400D01*
X64567286Y45102400D02*
X64495857Y45173829D01*
X64495857Y45173829D02*
X64424428Y45316686D01*
X64424428Y45316686D02*
X64353000Y45602400D01*
X64353000Y45602400D02*
X64353000Y45959543D01*
X64353000Y45959543D02*
X64424428Y46245258D01*
X64424428Y46245258D02*
X64495857Y46388115D01*
X64495857Y46388115D02*
X64567286Y46459543D01*
X64567286Y46459543D02*
X64710143Y46530972D01*
X66995856Y45030972D02*
X66995856Y46030972D01*
X66995856Y45888115D02*
X67067285Y45959543D01*
X67067285Y45959543D02*
X67210142Y46030972D01*
X67210142Y46030972D02*
X67424428Y46030972D01*
X67424428Y46030972D02*
X67567285Y45959543D01*
X67567285Y45959543D02*
X67638714Y45816686D01*
X67638714Y45816686D02*
X67638714Y45030972D01*
X67638714Y45816686D02*
X67710142Y45959543D01*
X67710142Y45959543D02*
X67852999Y46030972D01*
X67852999Y46030972D02*
X68067285Y46030972D01*
X68067285Y46030972D02*
X68210142Y45959543D01*
X68210142Y45959543D02*
X68281571Y45816686D01*
X68281571Y45816686D02*
X68281571Y45030972D01*
X68995856Y45030972D02*
X68995856Y46030972D01*
X68995856Y45888115D02*
X69067285Y45959543D01*
X69067285Y45959543D02*
X69210142Y46030972D01*
X69210142Y46030972D02*
X69424428Y46030972D01*
X69424428Y46030972D02*
X69567285Y45959543D01*
X69567285Y45959543D02*
X69638714Y45816686D01*
X69638714Y45816686D02*
X69638714Y45030972D01*
X69638714Y45816686D02*
X69710142Y45959543D01*
X69710142Y45959543D02*
X69852999Y46030972D01*
X69852999Y46030972D02*
X70067285Y46030972D01*
X70067285Y46030972D02*
X70210142Y45959543D01*
X70210142Y45959543D02*
X70281571Y45816686D01*
X70281571Y45816686D02*
X70281571Y45030972D01*
D11*
X-33593986Y58973181D02*
X-33308272Y58877943D01*
X-33308272Y58877943D02*
X-33213034Y58782705D01*
X-33213034Y58782705D02*
X-33117796Y58592229D01*
X-33117796Y58592229D02*
X-33117796Y58306515D01*
X-33117796Y58306515D02*
X-33213034Y58116039D01*
X-33213034Y58116039D02*
X-33308272Y58020800D01*
X-33308272Y58020800D02*
X-33498748Y57925562D01*
X-33498748Y57925562D02*
X-34260653Y57925562D01*
X-34260653Y57925562D02*
X-34260653Y59925562D01*
X-34260653Y59925562D02*
X-33593986Y59925562D01*
X-33593986Y59925562D02*
X-33403510Y59830324D01*
X-33403510Y59830324D02*
X-33308272Y59735086D01*
X-33308272Y59735086D02*
X-33213034Y59544610D01*
X-33213034Y59544610D02*
X-33213034Y59354134D01*
X-33213034Y59354134D02*
X-33308272Y59163658D01*
X-33308272Y59163658D02*
X-33403510Y59068420D01*
X-33403510Y59068420D02*
X-33593986Y58973181D01*
X-33593986Y58973181D02*
X-34260653Y58973181D01*
X-31879701Y59925562D02*
X-31498748Y59925562D01*
X-31498748Y59925562D02*
X-31308272Y59830324D01*
X-31308272Y59830324D02*
X-31117796Y59639848D01*
X-31117796Y59639848D02*
X-31022558Y59258896D01*
X-31022558Y59258896D02*
X-31022558Y58592229D01*
X-31022558Y58592229D02*
X-31117796Y58211277D01*
X-31117796Y58211277D02*
X-31308272Y58020800D01*
X-31308272Y58020800D02*
X-31498748Y57925562D01*
X-31498748Y57925562D02*
X-31879701Y57925562D01*
X-31879701Y57925562D02*
X-32070177Y58020800D01*
X-32070177Y58020800D02*
X-32260653Y58211277D01*
X-32260653Y58211277D02*
X-32355891Y58592229D01*
X-32355891Y58592229D02*
X-32355891Y59258896D01*
X-32355891Y59258896D02*
X-32260653Y59639848D01*
X-32260653Y59639848D02*
X-32070177Y59830324D01*
X-32070177Y59830324D02*
X-31879701Y59925562D01*
X-30260653Y58496991D02*
X-29308272Y58496991D01*
X-30451129Y57925562D02*
X-29784463Y59925562D01*
X-29784463Y59925562D02*
X-29117796Y57925562D01*
X-27308272Y57925562D02*
X-27974939Y58877943D01*
X-28451129Y57925562D02*
X-28451129Y59925562D01*
X-28451129Y59925562D02*
X-27689224Y59925562D01*
X-27689224Y59925562D02*
X-27498748Y59830324D01*
X-27498748Y59830324D02*
X-27403510Y59735086D01*
X-27403510Y59735086D02*
X-27308272Y59544610D01*
X-27308272Y59544610D02*
X-27308272Y59258896D01*
X-27308272Y59258896D02*
X-27403510Y59068420D01*
X-27403510Y59068420D02*
X-27498748Y58973181D01*
X-27498748Y58973181D02*
X-27689224Y58877943D01*
X-27689224Y58877943D02*
X-28451129Y58877943D01*
X-26451129Y57925562D02*
X-26451129Y59925562D01*
X-26451129Y59925562D02*
X-25974939Y59925562D01*
X-25974939Y59925562D02*
X-25689224Y59830324D01*
X-25689224Y59830324D02*
X-25498748Y59639848D01*
X-25498748Y59639848D02*
X-25403510Y59449372D01*
X-25403510Y59449372D02*
X-25308272Y59068420D01*
X-25308272Y59068420D02*
X-25308272Y58782705D01*
X-25308272Y58782705D02*
X-25403510Y58401753D01*
X-25403510Y58401753D02*
X-25498748Y58211277D01*
X-25498748Y58211277D02*
X-25689224Y58020800D01*
X-25689224Y58020800D02*
X-25974939Y57925562D01*
X-25974939Y57925562D02*
X-26451129Y57925562D01*
X-21784462Y58116039D02*
X-21879700Y58020800D01*
X-21879700Y58020800D02*
X-22165414Y57925562D01*
X-22165414Y57925562D02*
X-22355890Y57925562D01*
X-22355890Y57925562D02*
X-22641605Y58020800D01*
X-22641605Y58020800D02*
X-22832081Y58211277D01*
X-22832081Y58211277D02*
X-22927319Y58401753D01*
X-22927319Y58401753D02*
X-23022557Y58782705D01*
X-23022557Y58782705D02*
X-23022557Y59068420D01*
X-23022557Y59068420D02*
X-22927319Y59449372D01*
X-22927319Y59449372D02*
X-22832081Y59639848D01*
X-22832081Y59639848D02*
X-22641605Y59830324D01*
X-22641605Y59830324D02*
X-22355890Y59925562D01*
X-22355890Y59925562D02*
X-22165414Y59925562D01*
X-22165414Y59925562D02*
X-21879700Y59830324D01*
X-21879700Y59830324D02*
X-21784462Y59735086D01*
X-20927319Y57925562D02*
X-20927319Y59925562D01*
X-20927319Y58973181D02*
X-19784462Y58973181D01*
X-19784462Y57925562D02*
X-19784462Y59925562D01*
X-18927319Y58496991D02*
X-17974938Y58496991D01*
X-19117795Y57925562D02*
X-18451129Y59925562D01*
X-18451129Y59925562D02*
X-17784462Y57925562D01*
X-15974938Y57925562D02*
X-16641605Y58877943D01*
X-17117795Y57925562D02*
X-17117795Y59925562D01*
X-17117795Y59925562D02*
X-16355890Y59925562D01*
X-16355890Y59925562D02*
X-16165414Y59830324D01*
X-16165414Y59830324D02*
X-16070176Y59735086D01*
X-16070176Y59735086D02*
X-15974938Y59544610D01*
X-15974938Y59544610D02*
X-15974938Y59258896D01*
X-15974938Y59258896D02*
X-16070176Y59068420D01*
X-16070176Y59068420D02*
X-16165414Y58973181D01*
X-16165414Y58973181D02*
X-16355890Y58877943D01*
X-16355890Y58877943D02*
X-17117795Y58877943D01*
X-15213033Y58496991D02*
X-14260652Y58496991D01*
X-15403509Y57925562D02*
X-14736843Y59925562D01*
X-14736843Y59925562D02*
X-14070176Y57925562D01*
X-12260652Y58116039D02*
X-12355890Y58020800D01*
X-12355890Y58020800D02*
X-12641604Y57925562D01*
X-12641604Y57925562D02*
X-12832080Y57925562D01*
X-12832080Y57925562D02*
X-13117795Y58020800D01*
X-13117795Y58020800D02*
X-13308271Y58211277D01*
X-13308271Y58211277D02*
X-13403509Y58401753D01*
X-13403509Y58401753D02*
X-13498747Y58782705D01*
X-13498747Y58782705D02*
X-13498747Y59068420D01*
X-13498747Y59068420D02*
X-13403509Y59449372D01*
X-13403509Y59449372D02*
X-13308271Y59639848D01*
X-13308271Y59639848D02*
X-13117795Y59830324D01*
X-13117795Y59830324D02*
X-12832080Y59925562D01*
X-12832080Y59925562D02*
X-12641604Y59925562D01*
X-12641604Y59925562D02*
X-12355890Y59830324D01*
X-12355890Y59830324D02*
X-12260652Y59735086D01*
X-11689223Y59925562D02*
X-10546366Y59925562D01*
X-11117795Y57925562D02*
X-11117795Y59925562D01*
X-9879699Y58973181D02*
X-9213032Y58973181D01*
X-8927318Y57925562D02*
X-9879699Y57925562D01*
X-9879699Y57925562D02*
X-9879699Y59925562D01*
X-9879699Y59925562D02*
X-8927318Y59925562D01*
X-6927318Y57925562D02*
X-7593985Y58877943D01*
X-8070175Y57925562D02*
X-8070175Y59925562D01*
X-8070175Y59925562D02*
X-7308270Y59925562D01*
X-7308270Y59925562D02*
X-7117794Y59830324D01*
X-7117794Y59830324D02*
X-7022556Y59735086D01*
X-7022556Y59735086D02*
X-6927318Y59544610D01*
X-6927318Y59544610D02*
X-6927318Y59258896D01*
X-6927318Y59258896D02*
X-7022556Y59068420D01*
X-7022556Y59068420D02*
X-7117794Y58973181D01*
X-7117794Y58973181D02*
X-7308270Y58877943D01*
X-7308270Y58877943D02*
X-8070175Y58877943D01*
X-6070175Y57925562D02*
X-6070175Y59925562D01*
X-5213032Y58020800D02*
X-4927318Y57925562D01*
X-4927318Y57925562D02*
X-4451127Y57925562D01*
X-4451127Y57925562D02*
X-4260651Y58020800D01*
X-4260651Y58020800D02*
X-4165413Y58116039D01*
X-4165413Y58116039D02*
X-4070175Y58306515D01*
X-4070175Y58306515D02*
X-4070175Y58496991D01*
X-4070175Y58496991D02*
X-4165413Y58687467D01*
X-4165413Y58687467D02*
X-4260651Y58782705D01*
X-4260651Y58782705D02*
X-4451127Y58877943D01*
X-4451127Y58877943D02*
X-4832080Y58973181D01*
X-4832080Y58973181D02*
X-5022556Y59068420D01*
X-5022556Y59068420D02*
X-5117794Y59163658D01*
X-5117794Y59163658D02*
X-5213032Y59354134D01*
X-5213032Y59354134D02*
X-5213032Y59544610D01*
X-5213032Y59544610D02*
X-5117794Y59735086D01*
X-5117794Y59735086D02*
X-5022556Y59830324D01*
X-5022556Y59830324D02*
X-4832080Y59925562D01*
X-4832080Y59925562D02*
X-4355889Y59925562D01*
X-4355889Y59925562D02*
X-4070175Y59830324D01*
X-3498746Y59925562D02*
X-2355889Y59925562D01*
X-2927318Y57925562D02*
X-2927318Y59925562D01*
X-1689222Y57925562D02*
X-1689222Y59925562D01*
X406016Y58116039D02*
X310778Y58020800D01*
X310778Y58020800D02*
X25064Y57925562D01*
X25064Y57925562D02*
X-165412Y57925562D01*
X-165412Y57925562D02*
X-451127Y58020800D01*
X-451127Y58020800D02*
X-641603Y58211277D01*
X-641603Y58211277D02*
X-736841Y58401753D01*
X-736841Y58401753D02*
X-832079Y58782705D01*
X-832079Y58782705D02*
X-832079Y59068420D01*
X-832079Y59068420D02*
X-736841Y59449372D01*
X-736841Y59449372D02*
X-641603Y59639848D01*
X-641603Y59639848D02*
X-451127Y59830324D01*
X-451127Y59830324D02*
X-165412Y59925562D01*
X-165412Y59925562D02*
X25064Y59925562D01*
X25064Y59925562D02*
X310778Y59830324D01*
X310778Y59830324D02*
X406016Y59735086D01*
X1167921Y58020800D02*
X1453635Y57925562D01*
X1453635Y57925562D02*
X1929826Y57925562D01*
X1929826Y57925562D02*
X2120302Y58020800D01*
X2120302Y58020800D02*
X2215540Y58116039D01*
X2215540Y58116039D02*
X2310778Y58306515D01*
X2310778Y58306515D02*
X2310778Y58496991D01*
X2310778Y58496991D02*
X2215540Y58687467D01*
X2215540Y58687467D02*
X2120302Y58782705D01*
X2120302Y58782705D02*
X1929826Y58877943D01*
X1929826Y58877943D02*
X1548873Y58973181D01*
X1548873Y58973181D02*
X1358397Y59068420D01*
X1358397Y59068420D02*
X1263159Y59163658D01*
X1263159Y59163658D02*
X1167921Y59354134D01*
X1167921Y59354134D02*
X1167921Y59544610D01*
X1167921Y59544610D02*
X1263159Y59735086D01*
X1263159Y59735086D02*
X1358397Y59830324D01*
X1358397Y59830324D02*
X1548873Y59925562D01*
X1548873Y59925562D02*
X2025064Y59925562D01*
X2025064Y59925562D02*
X2310778Y59830324D01*
D10*
X33053001Y37116972D02*
X33053001Y38616972D01*
X33053001Y38616972D02*
X33624430Y38616972D01*
X33624430Y38616972D02*
X33767287Y38545543D01*
X33767287Y38545543D02*
X33838716Y38474115D01*
X33838716Y38474115D02*
X33910144Y38331258D01*
X33910144Y38331258D02*
X33910144Y38116972D01*
X33910144Y38116972D02*
X33838716Y37974115D01*
X33838716Y37974115D02*
X33767287Y37902686D01*
X33767287Y37902686D02*
X33624430Y37831258D01*
X33624430Y37831258D02*
X33053001Y37831258D01*
X34767287Y37116972D02*
X34624430Y37188400D01*
X34624430Y37188400D02*
X34553001Y37331258D01*
X34553001Y37331258D02*
X34553001Y38616972D01*
X35981573Y37116972D02*
X35981573Y37902686D01*
X35981573Y37902686D02*
X35910144Y38045543D01*
X35910144Y38045543D02*
X35767287Y38116972D01*
X35767287Y38116972D02*
X35481573Y38116972D01*
X35481573Y38116972D02*
X35338715Y38045543D01*
X35981573Y37188400D02*
X35838715Y37116972D01*
X35838715Y37116972D02*
X35481573Y37116972D01*
X35481573Y37116972D02*
X35338715Y37188400D01*
X35338715Y37188400D02*
X35267287Y37331258D01*
X35267287Y37331258D02*
X35267287Y37474115D01*
X35267287Y37474115D02*
X35338715Y37616972D01*
X35338715Y37616972D02*
X35481573Y37688400D01*
X35481573Y37688400D02*
X35838715Y37688400D01*
X35838715Y37688400D02*
X35981573Y37759829D01*
X36481573Y38116972D02*
X37053001Y38116972D01*
X36695858Y38616972D02*
X36695858Y37331258D01*
X36695858Y37331258D02*
X36767287Y37188400D01*
X36767287Y37188400D02*
X36910144Y37116972D01*
X36910144Y37116972D02*
X37053001Y37116972D01*
X38124430Y37188400D02*
X37981573Y37116972D01*
X37981573Y37116972D02*
X37695859Y37116972D01*
X37695859Y37116972D02*
X37553001Y37188400D01*
X37553001Y37188400D02*
X37481573Y37331258D01*
X37481573Y37331258D02*
X37481573Y37902686D01*
X37481573Y37902686D02*
X37553001Y38045543D01*
X37553001Y38045543D02*
X37695859Y38116972D01*
X37695859Y38116972D02*
X37981573Y38116972D01*
X37981573Y38116972D02*
X38124430Y38045543D01*
X38124430Y38045543D02*
X38195859Y37902686D01*
X38195859Y37902686D02*
X38195859Y37759829D01*
X38195859Y37759829D02*
X37481573Y37616972D01*
X39481573Y37116972D02*
X39481573Y38616972D01*
X39481573Y37188400D02*
X39338715Y37116972D01*
X39338715Y37116972D02*
X39053001Y37116972D01*
X39053001Y37116972D02*
X38910144Y37188400D01*
X38910144Y37188400D02*
X38838715Y37259829D01*
X38838715Y37259829D02*
X38767287Y37402686D01*
X38767287Y37402686D02*
X38767287Y37831258D01*
X38767287Y37831258D02*
X38838715Y37974115D01*
X38838715Y37974115D02*
X38910144Y38045543D01*
X38910144Y38045543D02*
X39053001Y38116972D01*
X39053001Y38116972D02*
X39338715Y38116972D01*
X39338715Y38116972D02*
X39481573Y38045543D01*
X41838715Y37902686D02*
X42053001Y37831258D01*
X42053001Y37831258D02*
X42124430Y37759829D01*
X42124430Y37759829D02*
X42195858Y37616972D01*
X42195858Y37616972D02*
X42195858Y37402686D01*
X42195858Y37402686D02*
X42124430Y37259829D01*
X42124430Y37259829D02*
X42053001Y37188400D01*
X42053001Y37188400D02*
X41910144Y37116972D01*
X41910144Y37116972D02*
X41338715Y37116972D01*
X41338715Y37116972D02*
X41338715Y38616972D01*
X41338715Y38616972D02*
X41838715Y38616972D01*
X41838715Y38616972D02*
X41981573Y38545543D01*
X41981573Y38545543D02*
X42053001Y38474115D01*
X42053001Y38474115D02*
X42124430Y38331258D01*
X42124430Y38331258D02*
X42124430Y38188400D01*
X42124430Y38188400D02*
X42053001Y38045543D01*
X42053001Y38045543D02*
X41981573Y37974115D01*
X41981573Y37974115D02*
X41838715Y37902686D01*
X41838715Y37902686D02*
X41338715Y37902686D01*
X43053001Y37116972D02*
X42910144Y37188400D01*
X42910144Y37188400D02*
X42838715Y37259829D01*
X42838715Y37259829D02*
X42767287Y37402686D01*
X42767287Y37402686D02*
X42767287Y37831258D01*
X42767287Y37831258D02*
X42838715Y37974115D01*
X42838715Y37974115D02*
X42910144Y38045543D01*
X42910144Y38045543D02*
X43053001Y38116972D01*
X43053001Y38116972D02*
X43267287Y38116972D01*
X43267287Y38116972D02*
X43410144Y38045543D01*
X43410144Y38045543D02*
X43481573Y37974115D01*
X43481573Y37974115D02*
X43553001Y37831258D01*
X43553001Y37831258D02*
X43553001Y37402686D01*
X43553001Y37402686D02*
X43481573Y37259829D01*
X43481573Y37259829D02*
X43410144Y37188400D01*
X43410144Y37188400D02*
X43267287Y37116972D01*
X43267287Y37116972D02*
X43053001Y37116972D01*
X44838716Y37116972D02*
X44838716Y37902686D01*
X44838716Y37902686D02*
X44767287Y38045543D01*
X44767287Y38045543D02*
X44624430Y38116972D01*
X44624430Y38116972D02*
X44338716Y38116972D01*
X44338716Y38116972D02*
X44195858Y38045543D01*
X44838716Y37188400D02*
X44695858Y37116972D01*
X44695858Y37116972D02*
X44338716Y37116972D01*
X44338716Y37116972D02*
X44195858Y37188400D01*
X44195858Y37188400D02*
X44124430Y37331258D01*
X44124430Y37331258D02*
X44124430Y37474115D01*
X44124430Y37474115D02*
X44195858Y37616972D01*
X44195858Y37616972D02*
X44338716Y37688400D01*
X44338716Y37688400D02*
X44695858Y37688400D01*
X44695858Y37688400D02*
X44838716Y37759829D01*
X45553001Y37116972D02*
X45553001Y38116972D01*
X45553001Y37831258D02*
X45624430Y37974115D01*
X45624430Y37974115D02*
X45695859Y38045543D01*
X45695859Y38045543D02*
X45838716Y38116972D01*
X45838716Y38116972D02*
X45981573Y38116972D01*
X47124430Y37116972D02*
X47124430Y38616972D01*
X47124430Y37188400D02*
X46981572Y37116972D01*
X46981572Y37116972D02*
X46695858Y37116972D01*
X46695858Y37116972D02*
X46553001Y37188400D01*
X46553001Y37188400D02*
X46481572Y37259829D01*
X46481572Y37259829D02*
X46410144Y37402686D01*
X46410144Y37402686D02*
X46410144Y37831258D01*
X46410144Y37831258D02*
X46481572Y37974115D01*
X46481572Y37974115D02*
X46553001Y38045543D01*
X46553001Y38045543D02*
X46695858Y38116972D01*
X46695858Y38116972D02*
X46981572Y38116972D01*
X46981572Y38116972D02*
X47124430Y38045543D01*
X48981572Y37902686D02*
X49481572Y37902686D01*
X49695858Y37116972D02*
X48981572Y37116972D01*
X48981572Y37116972D02*
X48981572Y38616972D01*
X48981572Y38616972D02*
X49695858Y38616972D01*
X50981573Y37116972D02*
X50981573Y38616972D01*
X50981573Y37188400D02*
X50838715Y37116972D01*
X50838715Y37116972D02*
X50553001Y37116972D01*
X50553001Y37116972D02*
X50410144Y37188400D01*
X50410144Y37188400D02*
X50338715Y37259829D01*
X50338715Y37259829D02*
X50267287Y37402686D01*
X50267287Y37402686D02*
X50267287Y37831258D01*
X50267287Y37831258D02*
X50338715Y37974115D01*
X50338715Y37974115D02*
X50410144Y38045543D01*
X50410144Y38045543D02*
X50553001Y38116972D01*
X50553001Y38116972D02*
X50838715Y38116972D01*
X50838715Y38116972D02*
X50981573Y38045543D01*
X52338716Y38116972D02*
X52338716Y36902686D01*
X52338716Y36902686D02*
X52267287Y36759829D01*
X52267287Y36759829D02*
X52195858Y36688400D01*
X52195858Y36688400D02*
X52053001Y36616972D01*
X52053001Y36616972D02*
X51838716Y36616972D01*
X51838716Y36616972D02*
X51695858Y36688400D01*
X52338716Y37188400D02*
X52195858Y37116972D01*
X52195858Y37116972D02*
X51910144Y37116972D01*
X51910144Y37116972D02*
X51767287Y37188400D01*
X51767287Y37188400D02*
X51695858Y37259829D01*
X51695858Y37259829D02*
X51624430Y37402686D01*
X51624430Y37402686D02*
X51624430Y37831258D01*
X51624430Y37831258D02*
X51695858Y37974115D01*
X51695858Y37974115D02*
X51767287Y38045543D01*
X51767287Y38045543D02*
X51910144Y38116972D01*
X51910144Y38116972D02*
X52195858Y38116972D01*
X52195858Y38116972D02*
X52338716Y38045543D01*
X53624430Y37188400D02*
X53481573Y37116972D01*
X53481573Y37116972D02*
X53195859Y37116972D01*
X53195859Y37116972D02*
X53053001Y37188400D01*
X53053001Y37188400D02*
X52981573Y37331258D01*
X52981573Y37331258D02*
X52981573Y37902686D01*
X52981573Y37902686D02*
X53053001Y38045543D01*
X53053001Y38045543D02*
X53195859Y38116972D01*
X53195859Y38116972D02*
X53481573Y38116972D01*
X53481573Y38116972D02*
X53624430Y38045543D01*
X53624430Y38045543D02*
X53695859Y37902686D01*
X53695859Y37902686D02*
X53695859Y37759829D01*
X53695859Y37759829D02*
X52981573Y37616972D01*
X54338715Y37259829D02*
X54410144Y37188400D01*
X54410144Y37188400D02*
X54338715Y37116972D01*
X54338715Y37116972D02*
X54267287Y37188400D01*
X54267287Y37188400D02*
X54338715Y37259829D01*
X54338715Y37259829D02*
X54338715Y37116972D01*
X54338715Y38045543D02*
X54410144Y37974115D01*
X54410144Y37974115D02*
X54338715Y37902686D01*
X54338715Y37902686D02*
X54267287Y37974115D01*
X54267287Y37974115D02*
X54338715Y38045543D01*
X54338715Y38045543D02*
X54338715Y37902686D01*
X58281573Y54444972D02*
X58424430Y54444972D01*
X58424430Y54444972D02*
X58567287Y54373543D01*
X58567287Y54373543D02*
X58638716Y54302115D01*
X58638716Y54302115D02*
X58710144Y54159258D01*
X58710144Y54159258D02*
X58781573Y53873543D01*
X58781573Y53873543D02*
X58781573Y53516400D01*
X58781573Y53516400D02*
X58710144Y53230686D01*
X58710144Y53230686D02*
X58638716Y53087829D01*
X58638716Y53087829D02*
X58567287Y53016400D01*
X58567287Y53016400D02*
X58424430Y52944972D01*
X58424430Y52944972D02*
X58281573Y52944972D01*
X58281573Y52944972D02*
X58138716Y53016400D01*
X58138716Y53016400D02*
X58067287Y53087829D01*
X58067287Y53087829D02*
X57995858Y53230686D01*
X57995858Y53230686D02*
X57924430Y53516400D01*
X57924430Y53516400D02*
X57924430Y53873543D01*
X57924430Y53873543D02*
X57995858Y54159258D01*
X57995858Y54159258D02*
X58067287Y54302115D01*
X58067287Y54302115D02*
X58138716Y54373543D01*
X58138716Y54373543D02*
X58281573Y54444972D01*
X59424429Y53087829D02*
X59495858Y53016400D01*
X59495858Y53016400D02*
X59424429Y52944972D01*
X59424429Y52944972D02*
X59353001Y53016400D01*
X59353001Y53016400D02*
X59424429Y53087829D01*
X59424429Y53087829D02*
X59424429Y52944972D01*
X60353001Y53802115D02*
X60210144Y53873543D01*
X60210144Y53873543D02*
X60138715Y53944972D01*
X60138715Y53944972D02*
X60067287Y54087829D01*
X60067287Y54087829D02*
X60067287Y54159258D01*
X60067287Y54159258D02*
X60138715Y54302115D01*
X60138715Y54302115D02*
X60210144Y54373543D01*
X60210144Y54373543D02*
X60353001Y54444972D01*
X60353001Y54444972D02*
X60638715Y54444972D01*
X60638715Y54444972D02*
X60781573Y54373543D01*
X60781573Y54373543D02*
X60853001Y54302115D01*
X60853001Y54302115D02*
X60924430Y54159258D01*
X60924430Y54159258D02*
X60924430Y54087829D01*
X60924430Y54087829D02*
X60853001Y53944972D01*
X60853001Y53944972D02*
X60781573Y53873543D01*
X60781573Y53873543D02*
X60638715Y53802115D01*
X60638715Y53802115D02*
X60353001Y53802115D01*
X60353001Y53802115D02*
X60210144Y53730686D01*
X60210144Y53730686D02*
X60138715Y53659258D01*
X60138715Y53659258D02*
X60067287Y53516400D01*
X60067287Y53516400D02*
X60067287Y53230686D01*
X60067287Y53230686D02*
X60138715Y53087829D01*
X60138715Y53087829D02*
X60210144Y53016400D01*
X60210144Y53016400D02*
X60353001Y52944972D01*
X60353001Y52944972D02*
X60638715Y52944972D01*
X60638715Y52944972D02*
X60781573Y53016400D01*
X60781573Y53016400D02*
X60853001Y53087829D01*
X60853001Y53087829D02*
X60924430Y53230686D01*
X60924430Y53230686D02*
X60924430Y53516400D01*
X60924430Y53516400D02*
X60853001Y53659258D01*
X60853001Y53659258D02*
X60781573Y53730686D01*
X60781573Y53730686D02*
X60638715Y53802115D01*
X61853001Y54444972D02*
X61995858Y54444972D01*
X61995858Y54444972D02*
X62138715Y54373543D01*
X62138715Y54373543D02*
X62210144Y54302115D01*
X62210144Y54302115D02*
X62281572Y54159258D01*
X62281572Y54159258D02*
X62353001Y53873543D01*
X62353001Y53873543D02*
X62353001Y53516400D01*
X62353001Y53516400D02*
X62281572Y53230686D01*
X62281572Y53230686D02*
X62210144Y53087829D01*
X62210144Y53087829D02*
X62138715Y53016400D01*
X62138715Y53016400D02*
X61995858Y52944972D01*
X61995858Y52944972D02*
X61853001Y52944972D01*
X61853001Y52944972D02*
X61710144Y53016400D01*
X61710144Y53016400D02*
X61638715Y53087829D01*
X61638715Y53087829D02*
X61567286Y53230686D01*
X61567286Y53230686D02*
X61495858Y53516400D01*
X61495858Y53516400D02*
X61495858Y53873543D01*
X61495858Y53873543D02*
X61567286Y54159258D01*
X61567286Y54159258D02*
X61638715Y54302115D01*
X61638715Y54302115D02*
X61710144Y54373543D01*
X61710144Y54373543D02*
X61853001Y54444972D01*
X63281572Y54444972D02*
X63424429Y54444972D01*
X63424429Y54444972D02*
X63567286Y54373543D01*
X63567286Y54373543D02*
X63638715Y54302115D01*
X63638715Y54302115D02*
X63710143Y54159258D01*
X63710143Y54159258D02*
X63781572Y53873543D01*
X63781572Y53873543D02*
X63781572Y53516400D01*
X63781572Y53516400D02*
X63710143Y53230686D01*
X63710143Y53230686D02*
X63638715Y53087829D01*
X63638715Y53087829D02*
X63567286Y53016400D01*
X63567286Y53016400D02*
X63424429Y52944972D01*
X63424429Y52944972D02*
X63281572Y52944972D01*
X63281572Y52944972D02*
X63138715Y53016400D01*
X63138715Y53016400D02*
X63067286Y53087829D01*
X63067286Y53087829D02*
X62995857Y53230686D01*
X62995857Y53230686D02*
X62924429Y53516400D01*
X62924429Y53516400D02*
X62924429Y53873543D01*
X62924429Y53873543D02*
X62995857Y54159258D01*
X62995857Y54159258D02*
X63067286Y54302115D01*
X63067286Y54302115D02*
X63138715Y54373543D01*
X63138715Y54373543D02*
X63281572Y54444972D01*
X64710143Y54444972D02*
X64853000Y54444972D01*
X64853000Y54444972D02*
X64995857Y54373543D01*
X64995857Y54373543D02*
X65067286Y54302115D01*
X65067286Y54302115D02*
X65138714Y54159258D01*
X65138714Y54159258D02*
X65210143Y53873543D01*
X65210143Y53873543D02*
X65210143Y53516400D01*
X65210143Y53516400D02*
X65138714Y53230686D01*
X65138714Y53230686D02*
X65067286Y53087829D01*
X65067286Y53087829D02*
X64995857Y53016400D01*
X64995857Y53016400D02*
X64853000Y52944972D01*
X64853000Y52944972D02*
X64710143Y52944972D01*
X64710143Y52944972D02*
X64567286Y53016400D01*
X64567286Y53016400D02*
X64495857Y53087829D01*
X64495857Y53087829D02*
X64424428Y53230686D01*
X64424428Y53230686D02*
X64353000Y53516400D01*
X64353000Y53516400D02*
X64353000Y53873543D01*
X64353000Y53873543D02*
X64424428Y54159258D01*
X64424428Y54159258D02*
X64495857Y54302115D01*
X64495857Y54302115D02*
X64567286Y54373543D01*
X64567286Y54373543D02*
X64710143Y54444972D01*
X66995856Y52944972D02*
X66995856Y53944972D01*
X66995856Y53802115D02*
X67067285Y53873543D01*
X67067285Y53873543D02*
X67210142Y53944972D01*
X67210142Y53944972D02*
X67424428Y53944972D01*
X67424428Y53944972D02*
X67567285Y53873543D01*
X67567285Y53873543D02*
X67638714Y53730686D01*
X67638714Y53730686D02*
X67638714Y52944972D01*
X67638714Y53730686D02*
X67710142Y53873543D01*
X67710142Y53873543D02*
X67852999Y53944972D01*
X67852999Y53944972D02*
X68067285Y53944972D01*
X68067285Y53944972D02*
X68210142Y53873543D01*
X68210142Y53873543D02*
X68281571Y53730686D01*
X68281571Y53730686D02*
X68281571Y52944972D01*
X68995856Y52944972D02*
X68995856Y53944972D01*
X68995856Y53802115D02*
X69067285Y53873543D01*
X69067285Y53873543D02*
X69210142Y53944972D01*
X69210142Y53944972D02*
X69424428Y53944972D01*
X69424428Y53944972D02*
X69567285Y53873543D01*
X69567285Y53873543D02*
X69638714Y53730686D01*
X69638714Y53730686D02*
X69638714Y52944972D01*
X69638714Y53730686D02*
X69710142Y53873543D01*
X69710142Y53873543D02*
X69852999Y53944972D01*
X69852999Y53944972D02*
X70067285Y53944972D01*
X70067285Y53944972D02*
X70210142Y53873543D01*
X70210142Y53873543D02*
X70281571Y53730686D01*
X70281571Y53730686D02*
X70281571Y52944972D01*
X-33761280Y33945686D02*
X-33261280Y33945686D01*
X-33046994Y33159972D02*
X-33761280Y33159972D01*
X-33761280Y33159972D02*
X-33761280Y34659972D01*
X-33761280Y34659972D02*
X-33046994Y34659972D01*
X-31761279Y33159972D02*
X-31761279Y34659972D01*
X-31761279Y33231400D02*
X-31904137Y33159972D01*
X-31904137Y33159972D02*
X-32189851Y33159972D01*
X-32189851Y33159972D02*
X-32332708Y33231400D01*
X-32332708Y33231400D02*
X-32404137Y33302829D01*
X-32404137Y33302829D02*
X-32475565Y33445686D01*
X-32475565Y33445686D02*
X-32475565Y33874258D01*
X-32475565Y33874258D02*
X-32404137Y34017115D01*
X-32404137Y34017115D02*
X-32332708Y34088543D01*
X-32332708Y34088543D02*
X-32189851Y34159972D01*
X-32189851Y34159972D02*
X-31904137Y34159972D01*
X-31904137Y34159972D02*
X-31761279Y34088543D01*
X-30404136Y34159972D02*
X-30404136Y32945686D01*
X-30404136Y32945686D02*
X-30475565Y32802829D01*
X-30475565Y32802829D02*
X-30546994Y32731400D01*
X-30546994Y32731400D02*
X-30689851Y32659972D01*
X-30689851Y32659972D02*
X-30904136Y32659972D01*
X-30904136Y32659972D02*
X-31046994Y32731400D01*
X-30404136Y33231400D02*
X-30546994Y33159972D01*
X-30546994Y33159972D02*
X-30832708Y33159972D01*
X-30832708Y33159972D02*
X-30975565Y33231400D01*
X-30975565Y33231400D02*
X-31046994Y33302829D01*
X-31046994Y33302829D02*
X-31118422Y33445686D01*
X-31118422Y33445686D02*
X-31118422Y33874258D01*
X-31118422Y33874258D02*
X-31046994Y34017115D01*
X-31046994Y34017115D02*
X-30975565Y34088543D01*
X-30975565Y34088543D02*
X-30832708Y34159972D01*
X-30832708Y34159972D02*
X-30546994Y34159972D01*
X-30546994Y34159972D02*
X-30404136Y34088543D01*
X-29118422Y33231400D02*
X-29261279Y33159972D01*
X-29261279Y33159972D02*
X-29546993Y33159972D01*
X-29546993Y33159972D02*
X-29689851Y33231400D01*
X-29689851Y33231400D02*
X-29761279Y33374258D01*
X-29761279Y33374258D02*
X-29761279Y33945686D01*
X-29761279Y33945686D02*
X-29689851Y34088543D01*
X-29689851Y34088543D02*
X-29546993Y34159972D01*
X-29546993Y34159972D02*
X-29261279Y34159972D01*
X-29261279Y34159972D02*
X-29118422Y34088543D01*
X-29118422Y34088543D02*
X-29046993Y33945686D01*
X-29046993Y33945686D02*
X-29046993Y33802829D01*
X-29046993Y33802829D02*
X-29761279Y33659972D01*
X-26618422Y33231400D02*
X-26761280Y33159972D01*
X-26761280Y33159972D02*
X-27046994Y33159972D01*
X-27046994Y33159972D02*
X-27189851Y33231400D01*
X-27189851Y33231400D02*
X-27261280Y33302829D01*
X-27261280Y33302829D02*
X-27332708Y33445686D01*
X-27332708Y33445686D02*
X-27332708Y33874258D01*
X-27332708Y33874258D02*
X-27261280Y34017115D01*
X-27261280Y34017115D02*
X-27189851Y34088543D01*
X-27189851Y34088543D02*
X-27046994Y34159972D01*
X-27046994Y34159972D02*
X-26761280Y34159972D01*
X-26761280Y34159972D02*
X-26618422Y34088543D01*
X-25332708Y33159972D02*
X-25332708Y33945686D01*
X-25332708Y33945686D02*
X-25404137Y34088543D01*
X-25404137Y34088543D02*
X-25546994Y34159972D01*
X-25546994Y34159972D02*
X-25832708Y34159972D01*
X-25832708Y34159972D02*
X-25975566Y34088543D01*
X-25332708Y33231400D02*
X-25475566Y33159972D01*
X-25475566Y33159972D02*
X-25832708Y33159972D01*
X-25832708Y33159972D02*
X-25975566Y33231400D01*
X-25975566Y33231400D02*
X-26046994Y33374258D01*
X-26046994Y33374258D02*
X-26046994Y33517115D01*
X-26046994Y33517115D02*
X-25975566Y33659972D01*
X-25975566Y33659972D02*
X-25832708Y33731400D01*
X-25832708Y33731400D02*
X-25475566Y33731400D01*
X-25475566Y33731400D02*
X-25332708Y33802829D01*
X-24618423Y33159972D02*
X-24618423Y34159972D01*
X-24618423Y33874258D02*
X-24546994Y34017115D01*
X-24546994Y34017115D02*
X-24475565Y34088543D01*
X-24475565Y34088543D02*
X-24332708Y34159972D01*
X-24332708Y34159972D02*
X-24189851Y34159972D01*
X-23046994Y33159972D02*
X-23046994Y34659972D01*
X-23046994Y33231400D02*
X-23189852Y33159972D01*
X-23189852Y33159972D02*
X-23475566Y33159972D01*
X-23475566Y33159972D02*
X-23618423Y33231400D01*
X-23618423Y33231400D02*
X-23689852Y33302829D01*
X-23689852Y33302829D02*
X-23761280Y33445686D01*
X-23761280Y33445686D02*
X-23761280Y33874258D01*
X-23761280Y33874258D02*
X-23689852Y34017115D01*
X-23689852Y34017115D02*
X-23618423Y34088543D01*
X-23618423Y34088543D02*
X-23475566Y34159972D01*
X-23475566Y34159972D02*
X-23189852Y34159972D01*
X-23189852Y34159972D02*
X-23046994Y34088543D01*
X-20546994Y33231400D02*
X-20689852Y33159972D01*
X-20689852Y33159972D02*
X-20975566Y33159972D01*
X-20975566Y33159972D02*
X-21118423Y33231400D01*
X-21118423Y33231400D02*
X-21189852Y33302829D01*
X-21189852Y33302829D02*
X-21261280Y33445686D01*
X-21261280Y33445686D02*
X-21261280Y33874258D01*
X-21261280Y33874258D02*
X-21189852Y34017115D01*
X-21189852Y34017115D02*
X-21118423Y34088543D01*
X-21118423Y34088543D02*
X-20975566Y34159972D01*
X-20975566Y34159972D02*
X-20689852Y34159972D01*
X-20689852Y34159972D02*
X-20546994Y34088543D01*
X-19689852Y33159972D02*
X-19832709Y33231400D01*
X-19832709Y33231400D02*
X-19904138Y33302829D01*
X-19904138Y33302829D02*
X-19975566Y33445686D01*
X-19975566Y33445686D02*
X-19975566Y33874258D01*
X-19975566Y33874258D02*
X-19904138Y34017115D01*
X-19904138Y34017115D02*
X-19832709Y34088543D01*
X-19832709Y34088543D02*
X-19689852Y34159972D01*
X-19689852Y34159972D02*
X-19475566Y34159972D01*
X-19475566Y34159972D02*
X-19332709Y34088543D01*
X-19332709Y34088543D02*
X-19261280Y34017115D01*
X-19261280Y34017115D02*
X-19189852Y33874258D01*
X-19189852Y33874258D02*
X-19189852Y33445686D01*
X-19189852Y33445686D02*
X-19261280Y33302829D01*
X-19261280Y33302829D02*
X-19332709Y33231400D01*
X-19332709Y33231400D02*
X-19475566Y33159972D01*
X-19475566Y33159972D02*
X-19689852Y33159972D01*
X-18546995Y34159972D02*
X-18546995Y33159972D01*
X-18546995Y34017115D02*
X-18475566Y34088543D01*
X-18475566Y34088543D02*
X-18332709Y34159972D01*
X-18332709Y34159972D02*
X-18118423Y34159972D01*
X-18118423Y34159972D02*
X-17975566Y34088543D01*
X-17975566Y34088543D02*
X-17904137Y33945686D01*
X-17904137Y33945686D02*
X-17904137Y33159972D01*
X-17189852Y34159972D02*
X-17189852Y33159972D01*
X-17189852Y34017115D02*
X-17118423Y34088543D01*
X-17118423Y34088543D02*
X-16975566Y34159972D01*
X-16975566Y34159972D02*
X-16761280Y34159972D01*
X-16761280Y34159972D02*
X-16618423Y34088543D01*
X-16618423Y34088543D02*
X-16546994Y33945686D01*
X-16546994Y33945686D02*
X-16546994Y33159972D01*
X-15261280Y33231400D02*
X-15404137Y33159972D01*
X-15404137Y33159972D02*
X-15689851Y33159972D01*
X-15689851Y33159972D02*
X-15832709Y33231400D01*
X-15832709Y33231400D02*
X-15904137Y33374258D01*
X-15904137Y33374258D02*
X-15904137Y33945686D01*
X-15904137Y33945686D02*
X-15832709Y34088543D01*
X-15832709Y34088543D02*
X-15689851Y34159972D01*
X-15689851Y34159972D02*
X-15404137Y34159972D01*
X-15404137Y34159972D02*
X-15261280Y34088543D01*
X-15261280Y34088543D02*
X-15189851Y33945686D01*
X-15189851Y33945686D02*
X-15189851Y33802829D01*
X-15189851Y33802829D02*
X-15904137Y33659972D01*
X-13904137Y33231400D02*
X-14046995Y33159972D01*
X-14046995Y33159972D02*
X-14332709Y33159972D01*
X-14332709Y33159972D02*
X-14475566Y33231400D01*
X-14475566Y33231400D02*
X-14546995Y33302829D01*
X-14546995Y33302829D02*
X-14618423Y33445686D01*
X-14618423Y33445686D02*
X-14618423Y33874258D01*
X-14618423Y33874258D02*
X-14546995Y34017115D01*
X-14546995Y34017115D02*
X-14475566Y34088543D01*
X-14475566Y34088543D02*
X-14332709Y34159972D01*
X-14332709Y34159972D02*
X-14046995Y34159972D01*
X-14046995Y34159972D02*
X-13904137Y34088543D01*
X-13475566Y34159972D02*
X-12904138Y34159972D01*
X-13261281Y34659972D02*
X-13261281Y33374258D01*
X-13261281Y33374258D02*
X-13189852Y33231400D01*
X-13189852Y33231400D02*
X-13046995Y33159972D01*
X-13046995Y33159972D02*
X-12904138Y33159972D01*
X-12189852Y33159972D02*
X-12332709Y33231400D01*
X-12332709Y33231400D02*
X-12404138Y33302829D01*
X-12404138Y33302829D02*
X-12475566Y33445686D01*
X-12475566Y33445686D02*
X-12475566Y33874258D01*
X-12475566Y33874258D02*
X-12404138Y34017115D01*
X-12404138Y34017115D02*
X-12332709Y34088543D01*
X-12332709Y34088543D02*
X-12189852Y34159972D01*
X-12189852Y34159972D02*
X-11975566Y34159972D01*
X-11975566Y34159972D02*
X-11832709Y34088543D01*
X-11832709Y34088543D02*
X-11761280Y34017115D01*
X-11761280Y34017115D02*
X-11689852Y33874258D01*
X-11689852Y33874258D02*
X-11689852Y33445686D01*
X-11689852Y33445686D02*
X-11761280Y33302829D01*
X-11761280Y33302829D02*
X-11832709Y33231400D01*
X-11832709Y33231400D02*
X-11975566Y33159972D01*
X-11975566Y33159972D02*
X-12189852Y33159972D01*
X-11046995Y33159972D02*
X-11046995Y34159972D01*
X-11046995Y33874258D02*
X-10975566Y34017115D01*
X-10975566Y34017115D02*
X-10904137Y34088543D01*
X-10904137Y34088543D02*
X-10761280Y34159972D01*
X-10761280Y34159972D02*
X-10618423Y34159972D01*
X-10189852Y33231400D02*
X-10046995Y33159972D01*
X-10046995Y33159972D02*
X-9761281Y33159972D01*
X-9761281Y33159972D02*
X-9618424Y33231400D01*
X-9618424Y33231400D02*
X-9546995Y33374258D01*
X-9546995Y33374258D02*
X-9546995Y33445686D01*
X-9546995Y33445686D02*
X-9618424Y33588543D01*
X-9618424Y33588543D02*
X-9761281Y33659972D01*
X-9761281Y33659972D02*
X-9975566Y33659972D01*
X-9975566Y33659972D02*
X-10118424Y33731400D01*
X-10118424Y33731400D02*
X-10189852Y33874258D01*
X-10189852Y33874258D02*
X-10189852Y33945686D01*
X-10189852Y33945686D02*
X-10118424Y34088543D01*
X-10118424Y34088543D02*
X-9975566Y34159972D01*
X-9975566Y34159972D02*
X-9761281Y34159972D01*
X-9761281Y34159972D02*
X-9618424Y34088543D01*
X-8904138Y33302829D02*
X-8832709Y33231400D01*
X-8832709Y33231400D02*
X-8904138Y33159972D01*
X-8904138Y33159972D02*
X-8975566Y33231400D01*
X-8975566Y33231400D02*
X-8904138Y33302829D01*
X-8904138Y33302829D02*
X-8904138Y33159972D01*
X-8904138Y34088543D02*
X-8832709Y34017115D01*
X-8832709Y34017115D02*
X-8904138Y33945686D01*
X-8904138Y33945686D02*
X-8975566Y34017115D01*
X-8975566Y34017115D02*
X-8904138Y34088543D01*
X-8904138Y34088543D02*
X-8904138Y33945686D01*
X-1104137Y37116972D02*
X-1104137Y38616972D01*
X-1104137Y38616972D02*
X-246994Y37116972D01*
X-246994Y37116972D02*
X-246994Y38616972D01*
X681578Y37116972D02*
X538721Y37188400D01*
X538721Y37188400D02*
X467292Y37259829D01*
X467292Y37259829D02*
X395864Y37402686D01*
X395864Y37402686D02*
X395864Y37831258D01*
X395864Y37831258D02*
X467292Y37974115D01*
X467292Y37974115D02*
X538721Y38045543D01*
X538721Y38045543D02*
X681578Y38116972D01*
X681578Y38116972D02*
X895864Y38116972D01*
X895864Y38116972D02*
X1038721Y38045543D01*
X1038721Y38045543D02*
X1110150Y37974115D01*
X1110150Y37974115D02*
X1181578Y37831258D01*
X1181578Y37831258D02*
X1181578Y37402686D01*
X1181578Y37402686D02*
X1110150Y37259829D01*
X1110150Y37259829D02*
X1038721Y37188400D01*
X1038721Y37188400D02*
X895864Y37116972D01*
X895864Y37116972D02*
X681578Y37116972D01*
X33053001Y41073972D02*
X33053001Y42573972D01*
X33767287Y41073972D02*
X33767287Y42073972D01*
X33767287Y41931115D02*
X33838716Y42002543D01*
X33838716Y42002543D02*
X33981573Y42073972D01*
X33981573Y42073972D02*
X34195859Y42073972D01*
X34195859Y42073972D02*
X34338716Y42002543D01*
X34338716Y42002543D02*
X34410145Y41859686D01*
X34410145Y41859686D02*
X34410145Y41073972D01*
X34410145Y41859686D02*
X34481573Y42002543D01*
X34481573Y42002543D02*
X34624430Y42073972D01*
X34624430Y42073972D02*
X34838716Y42073972D01*
X34838716Y42073972D02*
X34981573Y42002543D01*
X34981573Y42002543D02*
X35053002Y41859686D01*
X35053002Y41859686D02*
X35053002Y41073972D01*
X35767287Y42073972D02*
X35767287Y40573972D01*
X35767287Y42002543D02*
X35910145Y42073972D01*
X35910145Y42073972D02*
X36195859Y42073972D01*
X36195859Y42073972D02*
X36338716Y42002543D01*
X36338716Y42002543D02*
X36410145Y41931115D01*
X36410145Y41931115D02*
X36481573Y41788258D01*
X36481573Y41788258D02*
X36481573Y41359686D01*
X36481573Y41359686D02*
X36410145Y41216829D01*
X36410145Y41216829D02*
X36338716Y41145400D01*
X36338716Y41145400D02*
X36195859Y41073972D01*
X36195859Y41073972D02*
X35910145Y41073972D01*
X35910145Y41073972D02*
X35767287Y41145400D01*
X37695859Y41145400D02*
X37553002Y41073972D01*
X37553002Y41073972D02*
X37267288Y41073972D01*
X37267288Y41073972D02*
X37124430Y41145400D01*
X37124430Y41145400D02*
X37053002Y41288258D01*
X37053002Y41288258D02*
X37053002Y41859686D01*
X37053002Y41859686D02*
X37124430Y42002543D01*
X37124430Y42002543D02*
X37267288Y42073972D01*
X37267288Y42073972D02*
X37553002Y42073972D01*
X37553002Y42073972D02*
X37695859Y42002543D01*
X37695859Y42002543D02*
X37767288Y41859686D01*
X37767288Y41859686D02*
X37767288Y41716829D01*
X37767288Y41716829D02*
X37053002Y41573972D01*
X39053002Y41073972D02*
X39053002Y42573972D01*
X39053002Y41145400D02*
X38910144Y41073972D01*
X38910144Y41073972D02*
X38624430Y41073972D01*
X38624430Y41073972D02*
X38481573Y41145400D01*
X38481573Y41145400D02*
X38410144Y41216829D01*
X38410144Y41216829D02*
X38338716Y41359686D01*
X38338716Y41359686D02*
X38338716Y41788258D01*
X38338716Y41788258D02*
X38410144Y41931115D01*
X38410144Y41931115D02*
X38481573Y42002543D01*
X38481573Y42002543D02*
X38624430Y42073972D01*
X38624430Y42073972D02*
X38910144Y42073972D01*
X38910144Y42073972D02*
X39053002Y42002543D01*
X40410145Y41073972D02*
X40410145Y41859686D01*
X40410145Y41859686D02*
X40338716Y42002543D01*
X40338716Y42002543D02*
X40195859Y42073972D01*
X40195859Y42073972D02*
X39910145Y42073972D01*
X39910145Y42073972D02*
X39767287Y42002543D01*
X40410145Y41145400D02*
X40267287Y41073972D01*
X40267287Y41073972D02*
X39910145Y41073972D01*
X39910145Y41073972D02*
X39767287Y41145400D01*
X39767287Y41145400D02*
X39695859Y41288258D01*
X39695859Y41288258D02*
X39695859Y41431115D01*
X39695859Y41431115D02*
X39767287Y41573972D01*
X39767287Y41573972D02*
X39910145Y41645400D01*
X39910145Y41645400D02*
X40267287Y41645400D01*
X40267287Y41645400D02*
X40410145Y41716829D01*
X41124430Y42073972D02*
X41124430Y41073972D01*
X41124430Y41931115D02*
X41195859Y42002543D01*
X41195859Y42002543D02*
X41338716Y42073972D01*
X41338716Y42073972D02*
X41553002Y42073972D01*
X41553002Y42073972D02*
X41695859Y42002543D01*
X41695859Y42002543D02*
X41767288Y41859686D01*
X41767288Y41859686D02*
X41767288Y41073972D01*
X43124431Y41145400D02*
X42981573Y41073972D01*
X42981573Y41073972D02*
X42695859Y41073972D01*
X42695859Y41073972D02*
X42553002Y41145400D01*
X42553002Y41145400D02*
X42481573Y41216829D01*
X42481573Y41216829D02*
X42410145Y41359686D01*
X42410145Y41359686D02*
X42410145Y41788258D01*
X42410145Y41788258D02*
X42481573Y41931115D01*
X42481573Y41931115D02*
X42553002Y42002543D01*
X42553002Y42002543D02*
X42695859Y42073972D01*
X42695859Y42073972D02*
X42981573Y42073972D01*
X42981573Y42073972D02*
X43124431Y42002543D01*
X44338716Y41145400D02*
X44195859Y41073972D01*
X44195859Y41073972D02*
X43910145Y41073972D01*
X43910145Y41073972D02*
X43767287Y41145400D01*
X43767287Y41145400D02*
X43695859Y41288258D01*
X43695859Y41288258D02*
X43695859Y41859686D01*
X43695859Y41859686D02*
X43767287Y42002543D01*
X43767287Y42002543D02*
X43910145Y42073972D01*
X43910145Y42073972D02*
X44195859Y42073972D01*
X44195859Y42073972D02*
X44338716Y42002543D01*
X44338716Y42002543D02*
X44410145Y41859686D01*
X44410145Y41859686D02*
X44410145Y41716829D01*
X44410145Y41716829D02*
X43695859Y41573972D01*
X47053001Y41216829D02*
X46981573Y41145400D01*
X46981573Y41145400D02*
X46767287Y41073972D01*
X46767287Y41073972D02*
X46624430Y41073972D01*
X46624430Y41073972D02*
X46410144Y41145400D01*
X46410144Y41145400D02*
X46267287Y41288258D01*
X46267287Y41288258D02*
X46195858Y41431115D01*
X46195858Y41431115D02*
X46124430Y41716829D01*
X46124430Y41716829D02*
X46124430Y41931115D01*
X46124430Y41931115D02*
X46195858Y42216829D01*
X46195858Y42216829D02*
X46267287Y42359686D01*
X46267287Y42359686D02*
X46410144Y42502543D01*
X46410144Y42502543D02*
X46624430Y42573972D01*
X46624430Y42573972D02*
X46767287Y42573972D01*
X46767287Y42573972D02*
X46981573Y42502543D01*
X46981573Y42502543D02*
X47053001Y42431115D01*
X47910144Y41073972D02*
X47767287Y41145400D01*
X47767287Y41145400D02*
X47695858Y41216829D01*
X47695858Y41216829D02*
X47624430Y41359686D01*
X47624430Y41359686D02*
X47624430Y41788258D01*
X47624430Y41788258D02*
X47695858Y41931115D01*
X47695858Y41931115D02*
X47767287Y42002543D01*
X47767287Y42002543D02*
X47910144Y42073972D01*
X47910144Y42073972D02*
X48124430Y42073972D01*
X48124430Y42073972D02*
X48267287Y42002543D01*
X48267287Y42002543D02*
X48338716Y41931115D01*
X48338716Y41931115D02*
X48410144Y41788258D01*
X48410144Y41788258D02*
X48410144Y41359686D01*
X48410144Y41359686D02*
X48338716Y41216829D01*
X48338716Y41216829D02*
X48267287Y41145400D01*
X48267287Y41145400D02*
X48124430Y41073972D01*
X48124430Y41073972D02*
X47910144Y41073972D01*
X49053001Y42073972D02*
X49053001Y41073972D01*
X49053001Y41931115D02*
X49124430Y42002543D01*
X49124430Y42002543D02*
X49267287Y42073972D01*
X49267287Y42073972D02*
X49481573Y42073972D01*
X49481573Y42073972D02*
X49624430Y42002543D01*
X49624430Y42002543D02*
X49695859Y41859686D01*
X49695859Y41859686D02*
X49695859Y41073972D01*
X50195859Y42073972D02*
X50767287Y42073972D01*
X50410144Y42573972D02*
X50410144Y41288258D01*
X50410144Y41288258D02*
X50481573Y41145400D01*
X50481573Y41145400D02*
X50624430Y41073972D01*
X50624430Y41073972D02*
X50767287Y41073972D01*
X51267287Y41073972D02*
X51267287Y42073972D01*
X51267287Y41788258D02*
X51338716Y41931115D01*
X51338716Y41931115D02*
X51410145Y42002543D01*
X51410145Y42002543D02*
X51553002Y42073972D01*
X51553002Y42073972D02*
X51695859Y42073972D01*
X52410144Y41073972D02*
X52267287Y41145400D01*
X52267287Y41145400D02*
X52195858Y41216829D01*
X52195858Y41216829D02*
X52124430Y41359686D01*
X52124430Y41359686D02*
X52124430Y41788258D01*
X52124430Y41788258D02*
X52195858Y41931115D01*
X52195858Y41931115D02*
X52267287Y42002543D01*
X52267287Y42002543D02*
X52410144Y42073972D01*
X52410144Y42073972D02*
X52624430Y42073972D01*
X52624430Y42073972D02*
X52767287Y42002543D01*
X52767287Y42002543D02*
X52838716Y41931115D01*
X52838716Y41931115D02*
X52910144Y41788258D01*
X52910144Y41788258D02*
X52910144Y41359686D01*
X52910144Y41359686D02*
X52838716Y41216829D01*
X52838716Y41216829D02*
X52767287Y41145400D01*
X52767287Y41145400D02*
X52624430Y41073972D01*
X52624430Y41073972D02*
X52410144Y41073972D01*
X53767287Y41073972D02*
X53624430Y41145400D01*
X53624430Y41145400D02*
X53553001Y41288258D01*
X53553001Y41288258D02*
X53553001Y42573972D01*
X54338715Y41216829D02*
X54410144Y41145400D01*
X54410144Y41145400D02*
X54338715Y41073972D01*
X54338715Y41073972D02*
X54267287Y41145400D01*
X54267287Y41145400D02*
X54338715Y41216829D01*
X54338715Y41216829D02*
X54338715Y41073972D01*
X54338715Y42002543D02*
X54410144Y41931115D01*
X54410144Y41931115D02*
X54338715Y41859686D01*
X54338715Y41859686D02*
X54267287Y41931115D01*
X54267287Y41931115D02*
X54338715Y42002543D01*
X54338715Y42002543D02*
X54338715Y41859686D01*
X-32904137Y37259829D02*
X-32975565Y37188400D01*
X-32975565Y37188400D02*
X-33189851Y37116972D01*
X-33189851Y37116972D02*
X-33332708Y37116972D01*
X-33332708Y37116972D02*
X-33546994Y37188400D01*
X-33546994Y37188400D02*
X-33689851Y37331258D01*
X-33689851Y37331258D02*
X-33761280Y37474115D01*
X-33761280Y37474115D02*
X-33832708Y37759829D01*
X-33832708Y37759829D02*
X-33832708Y37974115D01*
X-33832708Y37974115D02*
X-33761280Y38259829D01*
X-33761280Y38259829D02*
X-33689851Y38402686D01*
X-33689851Y38402686D02*
X-33546994Y38545543D01*
X-33546994Y38545543D02*
X-33332708Y38616972D01*
X-33332708Y38616972D02*
X-33189851Y38616972D01*
X-33189851Y38616972D02*
X-32975565Y38545543D01*
X-32975565Y38545543D02*
X-32904137Y38474115D01*
X-31618422Y37116972D02*
X-31618422Y37902686D01*
X-31618422Y37902686D02*
X-31689851Y38045543D01*
X-31689851Y38045543D02*
X-31832708Y38116972D01*
X-31832708Y38116972D02*
X-32118422Y38116972D01*
X-32118422Y38116972D02*
X-32261280Y38045543D01*
X-31618422Y37188400D02*
X-31761280Y37116972D01*
X-31761280Y37116972D02*
X-32118422Y37116972D01*
X-32118422Y37116972D02*
X-32261280Y37188400D01*
X-32261280Y37188400D02*
X-32332708Y37331258D01*
X-32332708Y37331258D02*
X-32332708Y37474115D01*
X-32332708Y37474115D02*
X-32261280Y37616972D01*
X-32261280Y37616972D02*
X-32118422Y37688400D01*
X-32118422Y37688400D02*
X-31761280Y37688400D01*
X-31761280Y37688400D02*
X-31618422Y37759829D01*
X-30975565Y37188400D02*
X-30832708Y37116972D01*
X-30832708Y37116972D02*
X-30546994Y37116972D01*
X-30546994Y37116972D02*
X-30404137Y37188400D01*
X-30404137Y37188400D02*
X-30332708Y37331258D01*
X-30332708Y37331258D02*
X-30332708Y37402686D01*
X-30332708Y37402686D02*
X-30404137Y37545543D01*
X-30404137Y37545543D02*
X-30546994Y37616972D01*
X-30546994Y37616972D02*
X-30761279Y37616972D01*
X-30761279Y37616972D02*
X-30904137Y37688400D01*
X-30904137Y37688400D02*
X-30975565Y37831258D01*
X-30975565Y37831258D02*
X-30975565Y37902686D01*
X-30975565Y37902686D02*
X-30904137Y38045543D01*
X-30904137Y38045543D02*
X-30761279Y38116972D01*
X-30761279Y38116972D02*
X-30546994Y38116972D01*
X-30546994Y38116972D02*
X-30404137Y38045543D01*
X-29904136Y38116972D02*
X-29332708Y38116972D01*
X-29689851Y38616972D02*
X-29689851Y37331258D01*
X-29689851Y37331258D02*
X-29618422Y37188400D01*
X-29618422Y37188400D02*
X-29475565Y37116972D01*
X-29475565Y37116972D02*
X-29332708Y37116972D01*
X-28261279Y37188400D02*
X-28404136Y37116972D01*
X-28404136Y37116972D02*
X-28689850Y37116972D01*
X-28689850Y37116972D02*
X-28832708Y37188400D01*
X-28832708Y37188400D02*
X-28904136Y37331258D01*
X-28904136Y37331258D02*
X-28904136Y37902686D01*
X-28904136Y37902686D02*
X-28832708Y38045543D01*
X-28832708Y38045543D02*
X-28689850Y38116972D01*
X-28689850Y38116972D02*
X-28404136Y38116972D01*
X-28404136Y38116972D02*
X-28261279Y38045543D01*
X-28261279Y38045543D02*
X-28189850Y37902686D01*
X-28189850Y37902686D02*
X-28189850Y37759829D01*
X-28189850Y37759829D02*
X-28904136Y37616972D01*
X-27332708Y37116972D02*
X-27475565Y37188400D01*
X-27475565Y37188400D02*
X-27546994Y37331258D01*
X-27546994Y37331258D02*
X-27546994Y38616972D01*
X-26546994Y37116972D02*
X-26689851Y37188400D01*
X-26689851Y37188400D02*
X-26761280Y37331258D01*
X-26761280Y37331258D02*
X-26761280Y38616972D01*
X-25332708Y37116972D02*
X-25332708Y37902686D01*
X-25332708Y37902686D02*
X-25404137Y38045543D01*
X-25404137Y38045543D02*
X-25546994Y38116972D01*
X-25546994Y38116972D02*
X-25832708Y38116972D01*
X-25832708Y38116972D02*
X-25975566Y38045543D01*
X-25332708Y37188400D02*
X-25475566Y37116972D01*
X-25475566Y37116972D02*
X-25832708Y37116972D01*
X-25832708Y37116972D02*
X-25975566Y37188400D01*
X-25975566Y37188400D02*
X-26046994Y37331258D01*
X-26046994Y37331258D02*
X-26046994Y37474115D01*
X-26046994Y37474115D02*
X-25975566Y37616972D01*
X-25975566Y37616972D02*
X-25832708Y37688400D01*
X-25832708Y37688400D02*
X-25475566Y37688400D01*
X-25475566Y37688400D02*
X-25332708Y37759829D01*
X-24832708Y38116972D02*
X-24261280Y38116972D01*
X-24618423Y38616972D02*
X-24618423Y37331258D01*
X-24618423Y37331258D02*
X-24546994Y37188400D01*
X-24546994Y37188400D02*
X-24404137Y37116972D01*
X-24404137Y37116972D02*
X-24261280Y37116972D01*
X-23189851Y37188400D02*
X-23332708Y37116972D01*
X-23332708Y37116972D02*
X-23618422Y37116972D01*
X-23618422Y37116972D02*
X-23761280Y37188400D01*
X-23761280Y37188400D02*
X-23832708Y37331258D01*
X-23832708Y37331258D02*
X-23832708Y37902686D01*
X-23832708Y37902686D02*
X-23761280Y38045543D01*
X-23761280Y38045543D02*
X-23618422Y38116972D01*
X-23618422Y38116972D02*
X-23332708Y38116972D01*
X-23332708Y38116972D02*
X-23189851Y38045543D01*
X-23189851Y38045543D02*
X-23118422Y37902686D01*
X-23118422Y37902686D02*
X-23118422Y37759829D01*
X-23118422Y37759829D02*
X-23832708Y37616972D01*
X-21832708Y37116972D02*
X-21832708Y38616972D01*
X-21832708Y37188400D02*
X-21975566Y37116972D01*
X-21975566Y37116972D02*
X-22261280Y37116972D01*
X-22261280Y37116972D02*
X-22404137Y37188400D01*
X-22404137Y37188400D02*
X-22475566Y37259829D01*
X-22475566Y37259829D02*
X-22546994Y37402686D01*
X-22546994Y37402686D02*
X-22546994Y37831258D01*
X-22546994Y37831258D02*
X-22475566Y37974115D01*
X-22475566Y37974115D02*
X-22404137Y38045543D01*
X-22404137Y38045543D02*
X-22261280Y38116972D01*
X-22261280Y38116972D02*
X-21975566Y38116972D01*
X-21975566Y38116972D02*
X-21832708Y38045543D01*
X-19975566Y38116972D02*
X-19975566Y36616972D01*
X-19975566Y38045543D02*
X-19832708Y38116972D01*
X-19832708Y38116972D02*
X-19546994Y38116972D01*
X-19546994Y38116972D02*
X-19404137Y38045543D01*
X-19404137Y38045543D02*
X-19332708Y37974115D01*
X-19332708Y37974115D02*
X-19261280Y37831258D01*
X-19261280Y37831258D02*
X-19261280Y37402686D01*
X-19261280Y37402686D02*
X-19332708Y37259829D01*
X-19332708Y37259829D02*
X-19404137Y37188400D01*
X-19404137Y37188400D02*
X-19546994Y37116972D01*
X-19546994Y37116972D02*
X-19832708Y37116972D01*
X-19832708Y37116972D02*
X-19975566Y37188400D01*
X-17975565Y37116972D02*
X-17975565Y37902686D01*
X-17975565Y37902686D02*
X-18046994Y38045543D01*
X-18046994Y38045543D02*
X-18189851Y38116972D01*
X-18189851Y38116972D02*
X-18475565Y38116972D01*
X-18475565Y38116972D02*
X-18618423Y38045543D01*
X-17975565Y37188400D02*
X-18118423Y37116972D01*
X-18118423Y37116972D02*
X-18475565Y37116972D01*
X-18475565Y37116972D02*
X-18618423Y37188400D01*
X-18618423Y37188400D02*
X-18689851Y37331258D01*
X-18689851Y37331258D02*
X-18689851Y37474115D01*
X-18689851Y37474115D02*
X-18618423Y37616972D01*
X-18618423Y37616972D02*
X-18475565Y37688400D01*
X-18475565Y37688400D02*
X-18118423Y37688400D01*
X-18118423Y37688400D02*
X-17975565Y37759829D01*
X-16618422Y37116972D02*
X-16618422Y38616972D01*
X-16618422Y37188400D02*
X-16761280Y37116972D01*
X-16761280Y37116972D02*
X-17046994Y37116972D01*
X-17046994Y37116972D02*
X-17189851Y37188400D01*
X-17189851Y37188400D02*
X-17261280Y37259829D01*
X-17261280Y37259829D02*
X-17332708Y37402686D01*
X-17332708Y37402686D02*
X-17332708Y37831258D01*
X-17332708Y37831258D02*
X-17261280Y37974115D01*
X-17261280Y37974115D02*
X-17189851Y38045543D01*
X-17189851Y38045543D02*
X-17046994Y38116972D01*
X-17046994Y38116972D02*
X-16761280Y38116972D01*
X-16761280Y38116972D02*
X-16618422Y38045543D01*
X-15975565Y37188400D02*
X-15832708Y37116972D01*
X-15832708Y37116972D02*
X-15546994Y37116972D01*
X-15546994Y37116972D02*
X-15404137Y37188400D01*
X-15404137Y37188400D02*
X-15332708Y37331258D01*
X-15332708Y37331258D02*
X-15332708Y37402686D01*
X-15332708Y37402686D02*
X-15404137Y37545543D01*
X-15404137Y37545543D02*
X-15546994Y37616972D01*
X-15546994Y37616972D02*
X-15761279Y37616972D01*
X-15761279Y37616972D02*
X-15904137Y37688400D01*
X-15904137Y37688400D02*
X-15975565Y37831258D01*
X-15975565Y37831258D02*
X-15975565Y37902686D01*
X-15975565Y37902686D02*
X-15904137Y38045543D01*
X-15904137Y38045543D02*
X-15761279Y38116972D01*
X-15761279Y38116972D02*
X-15546994Y38116972D01*
X-15546994Y38116972D02*
X-15404137Y38045543D01*
X-14689851Y37259829D02*
X-14618422Y37188400D01*
X-14618422Y37188400D02*
X-14689851Y37116972D01*
X-14689851Y37116972D02*
X-14761279Y37188400D01*
X-14761279Y37188400D02*
X-14689851Y37259829D01*
X-14689851Y37259829D02*
X-14689851Y37116972D01*
X-14689851Y38045543D02*
X-14618422Y37974115D01*
X-14618422Y37974115D02*
X-14689851Y37902686D01*
X-14689851Y37902686D02*
X-14761279Y37974115D01*
X-14761279Y37974115D02*
X-14689851Y38045543D01*
X-14689851Y38045543D02*
X-14689851Y37902686D01*
X-818422Y46530972D02*
X-675565Y46530972D01*
X-675565Y46530972D02*
X-532708Y46459543D01*
X-532708Y46459543D02*
X-461279Y46388115D01*
X-461279Y46388115D02*
X-389851Y46245258D01*
X-389851Y46245258D02*
X-318422Y45959543D01*
X-318422Y45959543D02*
X-318422Y45602400D01*
X-318422Y45602400D02*
X-389851Y45316686D01*
X-389851Y45316686D02*
X-461279Y45173829D01*
X-461279Y45173829D02*
X-532708Y45102400D01*
X-532708Y45102400D02*
X-675565Y45030972D01*
X-675565Y45030972D02*
X-818422Y45030972D01*
X-818422Y45030972D02*
X-961279Y45102400D01*
X-961279Y45102400D02*
X-1032708Y45173829D01*
X-1032708Y45173829D02*
X-1104137Y45316686D01*
X-1104137Y45316686D02*
X-1175565Y45602400D01*
X-1175565Y45602400D02*
X-1175565Y45959543D01*
X-1175565Y45959543D02*
X-1104137Y46245258D01*
X-1104137Y46245258D02*
X-1032708Y46388115D01*
X-1032708Y46388115D02*
X-961279Y46459543D01*
X-961279Y46459543D02*
X-818422Y46530972D01*
X324434Y45173829D02*
X395863Y45102400D01*
X395863Y45102400D02*
X324434Y45030972D01*
X324434Y45030972D02*
X253006Y45102400D01*
X253006Y45102400D02*
X324434Y45173829D01*
X324434Y45173829D02*
X324434Y45030972D01*
X967292Y46388115D02*
X1038720Y46459543D01*
X1038720Y46459543D02*
X1181578Y46530972D01*
X1181578Y46530972D02*
X1538720Y46530972D01*
X1538720Y46530972D02*
X1681578Y46459543D01*
X1681578Y46459543D02*
X1753006Y46388115D01*
X1753006Y46388115D02*
X1824435Y46245258D01*
X1824435Y46245258D02*
X1824435Y46102400D01*
X1824435Y46102400D02*
X1753006Y45888115D01*
X1753006Y45888115D02*
X895863Y45030972D01*
X895863Y45030972D02*
X1824435Y45030972D01*
X3181577Y46530972D02*
X2467291Y46530972D01*
X2467291Y46530972D02*
X2395863Y45816686D01*
X2395863Y45816686D02*
X2467291Y45888115D01*
X2467291Y45888115D02*
X2610149Y45959543D01*
X2610149Y45959543D02*
X2967291Y45959543D01*
X2967291Y45959543D02*
X3110149Y45888115D01*
X3110149Y45888115D02*
X3181577Y45816686D01*
X3181577Y45816686D02*
X3253006Y45673829D01*
X3253006Y45673829D02*
X3253006Y45316686D01*
X3253006Y45316686D02*
X3181577Y45173829D01*
X3181577Y45173829D02*
X3110149Y45102400D01*
X3110149Y45102400D02*
X2967291Y45030972D01*
X2967291Y45030972D02*
X2610149Y45030972D01*
X2610149Y45030972D02*
X2467291Y45102400D01*
X2467291Y45102400D02*
X2395863Y45173829D01*
X4538720Y46030972D02*
X4538720Y45030972D01*
X4181577Y46602400D02*
X3824434Y45530972D01*
X3824434Y45530972D02*
X4753005Y45530972D01*
X5610148Y46530972D02*
X5753005Y46530972D01*
X5753005Y46530972D02*
X5895862Y46459543D01*
X5895862Y46459543D02*
X5967291Y46388115D01*
X5967291Y46388115D02*
X6038719Y46245258D01*
X6038719Y46245258D02*
X6110148Y45959543D01*
X6110148Y45959543D02*
X6110148Y45602400D01*
X6110148Y45602400D02*
X6038719Y45316686D01*
X6038719Y45316686D02*
X5967291Y45173829D01*
X5967291Y45173829D02*
X5895862Y45102400D01*
X5895862Y45102400D02*
X5753005Y45030972D01*
X5753005Y45030972D02*
X5610148Y45030972D01*
X5610148Y45030972D02*
X5467291Y45102400D01*
X5467291Y45102400D02*
X5395862Y45173829D01*
X5395862Y45173829D02*
X5324433Y45316686D01*
X5324433Y45316686D02*
X5253005Y45602400D01*
X5253005Y45602400D02*
X5253005Y45959543D01*
X5253005Y45959543D02*
X5324433Y46245258D01*
X5324433Y46245258D02*
X5395862Y46388115D01*
X5395862Y46388115D02*
X5467291Y46459543D01*
X5467291Y46459543D02*
X5610148Y46530972D01*
X7895861Y45030972D02*
X7895861Y46030972D01*
X7895861Y45888115D02*
X7967290Y45959543D01*
X7967290Y45959543D02*
X8110147Y46030972D01*
X8110147Y46030972D02*
X8324433Y46030972D01*
X8324433Y46030972D02*
X8467290Y45959543D01*
X8467290Y45959543D02*
X8538719Y45816686D01*
X8538719Y45816686D02*
X8538719Y45030972D01*
X8538719Y45816686D02*
X8610147Y45959543D01*
X8610147Y45959543D02*
X8753004Y46030972D01*
X8753004Y46030972D02*
X8967290Y46030972D01*
X8967290Y46030972D02*
X9110147Y45959543D01*
X9110147Y45959543D02*
X9181576Y45816686D01*
X9181576Y45816686D02*
X9181576Y45030972D01*
X9895861Y45030972D02*
X9895861Y46030972D01*
X9895861Y45888115D02*
X9967290Y45959543D01*
X9967290Y45959543D02*
X10110147Y46030972D01*
X10110147Y46030972D02*
X10324433Y46030972D01*
X10324433Y46030972D02*
X10467290Y45959543D01*
X10467290Y45959543D02*
X10538719Y45816686D01*
X10538719Y45816686D02*
X10538719Y45030972D01*
X10538719Y45816686D02*
X10610147Y45959543D01*
X10610147Y45959543D02*
X10753004Y46030972D01*
X10753004Y46030972D02*
X10967290Y46030972D01*
X10967290Y46030972D02*
X11110147Y45959543D01*
X11110147Y45959543D02*
X11181576Y45816686D01*
X11181576Y45816686D02*
X11181576Y45030972D01*
X14110147Y46602400D02*
X12824433Y44673829D01*
X16038719Y46530972D02*
X16181576Y46530972D01*
X16181576Y46530972D02*
X16324433Y46459543D01*
X16324433Y46459543D02*
X16395862Y46388115D01*
X16395862Y46388115D02*
X16467290Y46245258D01*
X16467290Y46245258D02*
X16538719Y45959543D01*
X16538719Y45959543D02*
X16538719Y45602400D01*
X16538719Y45602400D02*
X16467290Y45316686D01*
X16467290Y45316686D02*
X16395862Y45173829D01*
X16395862Y45173829D02*
X16324433Y45102400D01*
X16324433Y45102400D02*
X16181576Y45030972D01*
X16181576Y45030972D02*
X16038719Y45030972D01*
X16038719Y45030972D02*
X15895862Y45102400D01*
X15895862Y45102400D02*
X15824433Y45173829D01*
X15824433Y45173829D02*
X15753004Y45316686D01*
X15753004Y45316686D02*
X15681576Y45602400D01*
X15681576Y45602400D02*
X15681576Y45959543D01*
X15681576Y45959543D02*
X15753004Y46245258D01*
X15753004Y46245258D02*
X15824433Y46388115D01*
X15824433Y46388115D02*
X15895862Y46459543D01*
X15895862Y46459543D02*
X16038719Y46530972D01*
X17181575Y45173829D02*
X17253004Y45102400D01*
X17253004Y45102400D02*
X17181575Y45030972D01*
X17181575Y45030972D02*
X17110147Y45102400D01*
X17110147Y45102400D02*
X17181575Y45173829D01*
X17181575Y45173829D02*
X17181575Y45030972D01*
X17824433Y46388115D02*
X17895861Y46459543D01*
X17895861Y46459543D02*
X18038719Y46530972D01*
X18038719Y46530972D02*
X18395861Y46530972D01*
X18395861Y46530972D02*
X18538719Y46459543D01*
X18538719Y46459543D02*
X18610147Y46388115D01*
X18610147Y46388115D02*
X18681576Y46245258D01*
X18681576Y46245258D02*
X18681576Y46102400D01*
X18681576Y46102400D02*
X18610147Y45888115D01*
X18610147Y45888115D02*
X17753004Y45030972D01*
X17753004Y45030972D02*
X18681576Y45030972D01*
X20038718Y46530972D02*
X19324432Y46530972D01*
X19324432Y46530972D02*
X19253004Y45816686D01*
X19253004Y45816686D02*
X19324432Y45888115D01*
X19324432Y45888115D02*
X19467290Y45959543D01*
X19467290Y45959543D02*
X19824432Y45959543D01*
X19824432Y45959543D02*
X19967290Y45888115D01*
X19967290Y45888115D02*
X20038718Y45816686D01*
X20038718Y45816686D02*
X20110147Y45673829D01*
X20110147Y45673829D02*
X20110147Y45316686D01*
X20110147Y45316686D02*
X20038718Y45173829D01*
X20038718Y45173829D02*
X19967290Y45102400D01*
X19967290Y45102400D02*
X19824432Y45030972D01*
X19824432Y45030972D02*
X19467290Y45030972D01*
X19467290Y45030972D02*
X19324432Y45102400D01*
X19324432Y45102400D02*
X19253004Y45173829D01*
X21395861Y46030972D02*
X21395861Y45030972D01*
X21038718Y46602400D02*
X20681575Y45530972D01*
X20681575Y45530972D02*
X21610146Y45530972D01*
X22467289Y46530972D02*
X22610146Y46530972D01*
X22610146Y46530972D02*
X22753003Y46459543D01*
X22753003Y46459543D02*
X22824432Y46388115D01*
X22824432Y46388115D02*
X22895860Y46245258D01*
X22895860Y46245258D02*
X22967289Y45959543D01*
X22967289Y45959543D02*
X22967289Y45602400D01*
X22967289Y45602400D02*
X22895860Y45316686D01*
X22895860Y45316686D02*
X22824432Y45173829D01*
X22824432Y45173829D02*
X22753003Y45102400D01*
X22753003Y45102400D02*
X22610146Y45030972D01*
X22610146Y45030972D02*
X22467289Y45030972D01*
X22467289Y45030972D02*
X22324432Y45102400D01*
X22324432Y45102400D02*
X22253003Y45173829D01*
X22253003Y45173829D02*
X22181574Y45316686D01*
X22181574Y45316686D02*
X22110146Y45602400D01*
X22110146Y45602400D02*
X22110146Y45959543D01*
X22110146Y45959543D02*
X22181574Y46245258D01*
X22181574Y46245258D02*
X22253003Y46388115D01*
X22253003Y46388115D02*
X22324432Y46459543D01*
X22324432Y46459543D02*
X22467289Y46530972D01*
X24753002Y45030972D02*
X24753002Y46030972D01*
X24753002Y45888115D02*
X24824431Y45959543D01*
X24824431Y45959543D02*
X24967288Y46030972D01*
X24967288Y46030972D02*
X25181574Y46030972D01*
X25181574Y46030972D02*
X25324431Y45959543D01*
X25324431Y45959543D02*
X25395860Y45816686D01*
X25395860Y45816686D02*
X25395860Y45030972D01*
X25395860Y45816686D02*
X25467288Y45959543D01*
X25467288Y45959543D02*
X25610145Y46030972D01*
X25610145Y46030972D02*
X25824431Y46030972D01*
X25824431Y46030972D02*
X25967288Y45959543D01*
X25967288Y45959543D02*
X26038717Y45816686D01*
X26038717Y45816686D02*
X26038717Y45030972D01*
X26753002Y45030972D02*
X26753002Y46030972D01*
X26753002Y45888115D02*
X26824431Y45959543D01*
X26824431Y45959543D02*
X26967288Y46030972D01*
X26967288Y46030972D02*
X27181574Y46030972D01*
X27181574Y46030972D02*
X27324431Y45959543D01*
X27324431Y45959543D02*
X27395860Y45816686D01*
X27395860Y45816686D02*
X27395860Y45030972D01*
X27395860Y45816686D02*
X27467288Y45959543D01*
X27467288Y45959543D02*
X27610145Y46030972D01*
X27610145Y46030972D02*
X27824431Y46030972D01*
X27824431Y46030972D02*
X27967288Y45959543D01*
X27967288Y45959543D02*
X28038717Y45816686D01*
X28038717Y45816686D02*
X28038717Y45030972D01*
X-32904137Y41216829D02*
X-32975565Y41145400D01*
X-32975565Y41145400D02*
X-33189851Y41073972D01*
X-33189851Y41073972D02*
X-33332708Y41073972D01*
X-33332708Y41073972D02*
X-33546994Y41145400D01*
X-33546994Y41145400D02*
X-33689851Y41288258D01*
X-33689851Y41288258D02*
X-33761280Y41431115D01*
X-33761280Y41431115D02*
X-33832708Y41716829D01*
X-33832708Y41716829D02*
X-33832708Y41931115D01*
X-33832708Y41931115D02*
X-33761280Y42216829D01*
X-33761280Y42216829D02*
X-33689851Y42359686D01*
X-33689851Y42359686D02*
X-33546994Y42502543D01*
X-33546994Y42502543D02*
X-33332708Y42573972D01*
X-33332708Y42573972D02*
X-33189851Y42573972D01*
X-33189851Y42573972D02*
X-32975565Y42502543D01*
X-32975565Y42502543D02*
X-32904137Y42431115D01*
X-32046994Y41073972D02*
X-32189851Y41145400D01*
X-32189851Y41145400D02*
X-32261280Y41216829D01*
X-32261280Y41216829D02*
X-32332708Y41359686D01*
X-32332708Y41359686D02*
X-32332708Y41788258D01*
X-32332708Y41788258D02*
X-32261280Y41931115D01*
X-32261280Y41931115D02*
X-32189851Y42002543D01*
X-32189851Y42002543D02*
X-32046994Y42073972D01*
X-32046994Y42073972D02*
X-31832708Y42073972D01*
X-31832708Y42073972D02*
X-31689851Y42002543D01*
X-31689851Y42002543D02*
X-31618422Y41931115D01*
X-31618422Y41931115D02*
X-31546994Y41788258D01*
X-31546994Y41788258D02*
X-31546994Y41359686D01*
X-31546994Y41359686D02*
X-31618422Y41216829D01*
X-31618422Y41216829D02*
X-31689851Y41145400D01*
X-31689851Y41145400D02*
X-31832708Y41073972D01*
X-31832708Y41073972D02*
X-32046994Y41073972D01*
X-30904137Y42073972D02*
X-30904137Y40573972D01*
X-30904137Y42002543D02*
X-30761279Y42073972D01*
X-30761279Y42073972D02*
X-30475565Y42073972D01*
X-30475565Y42073972D02*
X-30332708Y42002543D01*
X-30332708Y42002543D02*
X-30261279Y41931115D01*
X-30261279Y41931115D02*
X-30189851Y41788258D01*
X-30189851Y41788258D02*
X-30189851Y41359686D01*
X-30189851Y41359686D02*
X-30261279Y41216829D01*
X-30261279Y41216829D02*
X-30332708Y41145400D01*
X-30332708Y41145400D02*
X-30475565Y41073972D01*
X-30475565Y41073972D02*
X-30761279Y41073972D01*
X-30761279Y41073972D02*
X-30904137Y41145400D01*
X-29546994Y42073972D02*
X-29546994Y40573972D01*
X-29546994Y42002543D02*
X-29404136Y42073972D01*
X-29404136Y42073972D02*
X-29118422Y42073972D01*
X-29118422Y42073972D02*
X-28975565Y42002543D01*
X-28975565Y42002543D02*
X-28904136Y41931115D01*
X-28904136Y41931115D02*
X-28832708Y41788258D01*
X-28832708Y41788258D02*
X-28832708Y41359686D01*
X-28832708Y41359686D02*
X-28904136Y41216829D01*
X-28904136Y41216829D02*
X-28975565Y41145400D01*
X-28975565Y41145400D02*
X-29118422Y41073972D01*
X-29118422Y41073972D02*
X-29404136Y41073972D01*
X-29404136Y41073972D02*
X-29546994Y41145400D01*
X-27618422Y41145400D02*
X-27761279Y41073972D01*
X-27761279Y41073972D02*
X-28046993Y41073972D01*
X-28046993Y41073972D02*
X-28189851Y41145400D01*
X-28189851Y41145400D02*
X-28261279Y41288258D01*
X-28261279Y41288258D02*
X-28261279Y41859686D01*
X-28261279Y41859686D02*
X-28189851Y42002543D01*
X-28189851Y42002543D02*
X-28046993Y42073972D01*
X-28046993Y42073972D02*
X-27761279Y42073972D01*
X-27761279Y42073972D02*
X-27618422Y42002543D01*
X-27618422Y42002543D02*
X-27546993Y41859686D01*
X-27546993Y41859686D02*
X-27546993Y41716829D01*
X-27546993Y41716829D02*
X-28261279Y41573972D01*
X-26904137Y41073972D02*
X-26904137Y42073972D01*
X-26904137Y41788258D02*
X-26832708Y41931115D01*
X-26832708Y41931115D02*
X-26761279Y42002543D01*
X-26761279Y42002543D02*
X-26618422Y42073972D01*
X-26618422Y42073972D02*
X-26475565Y42073972D01*
X-24332709Y41859686D02*
X-24832709Y41859686D01*
X-24832709Y41073972D02*
X-24832709Y42573972D01*
X-24832709Y42573972D02*
X-24118423Y42573972D01*
X-23546995Y41073972D02*
X-23546995Y42073972D01*
X-23546995Y42573972D02*
X-23618423Y42502543D01*
X-23618423Y42502543D02*
X-23546995Y42431115D01*
X-23546995Y42431115D02*
X-23475566Y42502543D01*
X-23475566Y42502543D02*
X-23546995Y42573972D01*
X-23546995Y42573972D02*
X-23546995Y42431115D01*
X-22832709Y42073972D02*
X-22832709Y41073972D01*
X-22832709Y41931115D02*
X-22761280Y42002543D01*
X-22761280Y42002543D02*
X-22618423Y42073972D01*
X-22618423Y42073972D02*
X-22404137Y42073972D01*
X-22404137Y42073972D02*
X-22261280Y42002543D01*
X-22261280Y42002543D02*
X-22189851Y41859686D01*
X-22189851Y41859686D02*
X-22189851Y41073972D01*
X-21475566Y41073972D02*
X-21475566Y42073972D01*
X-21475566Y42573972D02*
X-21546994Y42502543D01*
X-21546994Y42502543D02*
X-21475566Y42431115D01*
X-21475566Y42431115D02*
X-21404137Y42502543D01*
X-21404137Y42502543D02*
X-21475566Y42573972D01*
X-21475566Y42573972D02*
X-21475566Y42431115D01*
X-20832708Y41145400D02*
X-20689851Y41073972D01*
X-20689851Y41073972D02*
X-20404137Y41073972D01*
X-20404137Y41073972D02*
X-20261280Y41145400D01*
X-20261280Y41145400D02*
X-20189851Y41288258D01*
X-20189851Y41288258D02*
X-20189851Y41359686D01*
X-20189851Y41359686D02*
X-20261280Y41502543D01*
X-20261280Y41502543D02*
X-20404137Y41573972D01*
X-20404137Y41573972D02*
X-20618422Y41573972D01*
X-20618422Y41573972D02*
X-20761280Y41645400D01*
X-20761280Y41645400D02*
X-20832708Y41788258D01*
X-20832708Y41788258D02*
X-20832708Y41859686D01*
X-20832708Y41859686D02*
X-20761280Y42002543D01*
X-20761280Y42002543D02*
X-20618422Y42073972D01*
X-20618422Y42073972D02*
X-20404137Y42073972D01*
X-20404137Y42073972D02*
X-20261280Y42002543D01*
X-19546994Y41073972D02*
X-19546994Y42573972D01*
X-18904136Y41073972D02*
X-18904136Y41859686D01*
X-18904136Y41859686D02*
X-18975565Y42002543D01*
X-18975565Y42002543D02*
X-19118422Y42073972D01*
X-19118422Y42073972D02*
X-19332708Y42073972D01*
X-19332708Y42073972D02*
X-19475565Y42002543D01*
X-19475565Y42002543D02*
X-19546994Y41931115D01*
X-18189851Y41216829D02*
X-18118422Y41145400D01*
X-18118422Y41145400D02*
X-18189851Y41073972D01*
X-18189851Y41073972D02*
X-18261279Y41145400D01*
X-18261279Y41145400D02*
X-18189851Y41216829D01*
X-18189851Y41216829D02*
X-18189851Y41073972D01*
X-18189851Y42002543D02*
X-18118422Y41931115D01*
X-18118422Y41931115D02*
X-18189851Y41859686D01*
X-18189851Y41859686D02*
X-18261279Y41931115D01*
X-18261279Y41931115D02*
X-18189851Y42002543D01*
X-18189851Y42002543D02*
X-18189851Y41859686D01*
X-1104137Y33159972D02*
X-1104137Y34659972D01*
X-1104137Y34659972D02*
X-246994Y33159972D01*
X-246994Y33159972D02*
X-246994Y34659972D01*
X681578Y33159972D02*
X538721Y33231400D01*
X538721Y33231400D02*
X467292Y33302829D01*
X467292Y33302829D02*
X395864Y33445686D01*
X395864Y33445686D02*
X395864Y33874258D01*
X395864Y33874258D02*
X467292Y34017115D01*
X467292Y34017115D02*
X538721Y34088543D01*
X538721Y34088543D02*
X681578Y34159972D01*
X681578Y34159972D02*
X895864Y34159972D01*
X895864Y34159972D02*
X1038721Y34088543D01*
X1038721Y34088543D02*
X1110150Y34017115D01*
X1110150Y34017115D02*
X1181578Y33874258D01*
X1181578Y33874258D02*
X1181578Y33445686D01*
X1181578Y33445686D02*
X1110150Y33302829D01*
X1110150Y33302829D02*
X1038721Y33231400D01*
X1038721Y33231400D02*
X895864Y33159972D01*
X895864Y33159972D02*
X681578Y33159972D01*
X33553001Y53730686D02*
X33767287Y53659258D01*
X33767287Y53659258D02*
X33838716Y53587829D01*
X33838716Y53587829D02*
X33910144Y53444972D01*
X33910144Y53444972D02*
X33910144Y53230686D01*
X33910144Y53230686D02*
X33838716Y53087829D01*
X33838716Y53087829D02*
X33767287Y53016400D01*
X33767287Y53016400D02*
X33624430Y52944972D01*
X33624430Y52944972D02*
X33053001Y52944972D01*
X33053001Y52944972D02*
X33053001Y54444972D01*
X33053001Y54444972D02*
X33553001Y54444972D01*
X33553001Y54444972D02*
X33695859Y54373543D01*
X33695859Y54373543D02*
X33767287Y54302115D01*
X33767287Y54302115D02*
X33838716Y54159258D01*
X33838716Y54159258D02*
X33838716Y54016400D01*
X33838716Y54016400D02*
X33767287Y53873543D01*
X33767287Y53873543D02*
X33695859Y53802115D01*
X33695859Y53802115D02*
X33553001Y53730686D01*
X33553001Y53730686D02*
X33053001Y53730686D01*
X34767287Y52944972D02*
X34624430Y53016400D01*
X34624430Y53016400D02*
X34553001Y53087829D01*
X34553001Y53087829D02*
X34481573Y53230686D01*
X34481573Y53230686D02*
X34481573Y53659258D01*
X34481573Y53659258D02*
X34553001Y53802115D01*
X34553001Y53802115D02*
X34624430Y53873543D01*
X34624430Y53873543D02*
X34767287Y53944972D01*
X34767287Y53944972D02*
X34981573Y53944972D01*
X34981573Y53944972D02*
X35124430Y53873543D01*
X35124430Y53873543D02*
X35195859Y53802115D01*
X35195859Y53802115D02*
X35267287Y53659258D01*
X35267287Y53659258D02*
X35267287Y53230686D01*
X35267287Y53230686D02*
X35195859Y53087829D01*
X35195859Y53087829D02*
X35124430Y53016400D01*
X35124430Y53016400D02*
X34981573Y52944972D01*
X34981573Y52944972D02*
X34767287Y52944972D01*
X36553002Y52944972D02*
X36553002Y53730686D01*
X36553002Y53730686D02*
X36481573Y53873543D01*
X36481573Y53873543D02*
X36338716Y53944972D01*
X36338716Y53944972D02*
X36053002Y53944972D01*
X36053002Y53944972D02*
X35910144Y53873543D01*
X36553002Y53016400D02*
X36410144Y52944972D01*
X36410144Y52944972D02*
X36053002Y52944972D01*
X36053002Y52944972D02*
X35910144Y53016400D01*
X35910144Y53016400D02*
X35838716Y53159258D01*
X35838716Y53159258D02*
X35838716Y53302115D01*
X35838716Y53302115D02*
X35910144Y53444972D01*
X35910144Y53444972D02*
X36053002Y53516400D01*
X36053002Y53516400D02*
X36410144Y53516400D01*
X36410144Y53516400D02*
X36553002Y53587829D01*
X37267287Y52944972D02*
X37267287Y53944972D01*
X37267287Y53659258D02*
X37338716Y53802115D01*
X37338716Y53802115D02*
X37410145Y53873543D01*
X37410145Y53873543D02*
X37553002Y53944972D01*
X37553002Y53944972D02*
X37695859Y53944972D01*
X38838716Y52944972D02*
X38838716Y54444972D01*
X38838716Y53016400D02*
X38695858Y52944972D01*
X38695858Y52944972D02*
X38410144Y52944972D01*
X38410144Y52944972D02*
X38267287Y53016400D01*
X38267287Y53016400D02*
X38195858Y53087829D01*
X38195858Y53087829D02*
X38124430Y53230686D01*
X38124430Y53230686D02*
X38124430Y53659258D01*
X38124430Y53659258D02*
X38195858Y53802115D01*
X38195858Y53802115D02*
X38267287Y53873543D01*
X38267287Y53873543D02*
X38410144Y53944972D01*
X38410144Y53944972D02*
X38695858Y53944972D01*
X38695858Y53944972D02*
X38838716Y53873543D01*
X40481573Y54444972D02*
X41338716Y54444972D01*
X40910144Y52944972D02*
X40910144Y54444972D01*
X41838715Y52944972D02*
X41838715Y54444972D01*
X42481573Y52944972D02*
X42481573Y53730686D01*
X42481573Y53730686D02*
X42410144Y53873543D01*
X42410144Y53873543D02*
X42267287Y53944972D01*
X42267287Y53944972D02*
X42053001Y53944972D01*
X42053001Y53944972D02*
X41910144Y53873543D01*
X41910144Y53873543D02*
X41838715Y53802115D01*
X43195858Y52944972D02*
X43195858Y53944972D01*
X43195858Y54444972D02*
X43124430Y54373543D01*
X43124430Y54373543D02*
X43195858Y54302115D01*
X43195858Y54302115D02*
X43267287Y54373543D01*
X43267287Y54373543D02*
X43195858Y54444972D01*
X43195858Y54444972D02*
X43195858Y54302115D01*
X44553002Y53016400D02*
X44410144Y52944972D01*
X44410144Y52944972D02*
X44124430Y52944972D01*
X44124430Y52944972D02*
X43981573Y53016400D01*
X43981573Y53016400D02*
X43910144Y53087829D01*
X43910144Y53087829D02*
X43838716Y53230686D01*
X43838716Y53230686D02*
X43838716Y53659258D01*
X43838716Y53659258D02*
X43910144Y53802115D01*
X43910144Y53802115D02*
X43981573Y53873543D01*
X43981573Y53873543D02*
X44124430Y53944972D01*
X44124430Y53944972D02*
X44410144Y53944972D01*
X44410144Y53944972D02*
X44553002Y53873543D01*
X45195858Y52944972D02*
X45195858Y54444972D01*
X45338716Y53516400D02*
X45767287Y52944972D01*
X45767287Y53944972D02*
X45195858Y53373543D01*
X46410144Y53944972D02*
X46410144Y52944972D01*
X46410144Y53802115D02*
X46481573Y53873543D01*
X46481573Y53873543D02*
X46624430Y53944972D01*
X46624430Y53944972D02*
X46838716Y53944972D01*
X46838716Y53944972D02*
X46981573Y53873543D01*
X46981573Y53873543D02*
X47053002Y53730686D01*
X47053002Y53730686D02*
X47053002Y52944972D01*
X48338716Y53016400D02*
X48195859Y52944972D01*
X48195859Y52944972D02*
X47910145Y52944972D01*
X47910145Y52944972D02*
X47767287Y53016400D01*
X47767287Y53016400D02*
X47695859Y53159258D01*
X47695859Y53159258D02*
X47695859Y53730686D01*
X47695859Y53730686D02*
X47767287Y53873543D01*
X47767287Y53873543D02*
X47910145Y53944972D01*
X47910145Y53944972D02*
X48195859Y53944972D01*
X48195859Y53944972D02*
X48338716Y53873543D01*
X48338716Y53873543D02*
X48410145Y53730686D01*
X48410145Y53730686D02*
X48410145Y53587829D01*
X48410145Y53587829D02*
X47695859Y53444972D01*
X48981573Y53016400D02*
X49124430Y52944972D01*
X49124430Y52944972D02*
X49410144Y52944972D01*
X49410144Y52944972D02*
X49553001Y53016400D01*
X49553001Y53016400D02*
X49624430Y53159258D01*
X49624430Y53159258D02*
X49624430Y53230686D01*
X49624430Y53230686D02*
X49553001Y53373543D01*
X49553001Y53373543D02*
X49410144Y53444972D01*
X49410144Y53444972D02*
X49195859Y53444972D01*
X49195859Y53444972D02*
X49053001Y53516400D01*
X49053001Y53516400D02*
X48981573Y53659258D01*
X48981573Y53659258D02*
X48981573Y53730686D01*
X48981573Y53730686D02*
X49053001Y53873543D01*
X49053001Y53873543D02*
X49195859Y53944972D01*
X49195859Y53944972D02*
X49410144Y53944972D01*
X49410144Y53944972D02*
X49553001Y53873543D01*
X50195859Y53016400D02*
X50338716Y52944972D01*
X50338716Y52944972D02*
X50624430Y52944972D01*
X50624430Y52944972D02*
X50767287Y53016400D01*
X50767287Y53016400D02*
X50838716Y53159258D01*
X50838716Y53159258D02*
X50838716Y53230686D01*
X50838716Y53230686D02*
X50767287Y53373543D01*
X50767287Y53373543D02*
X50624430Y53444972D01*
X50624430Y53444972D02*
X50410145Y53444972D01*
X50410145Y53444972D02*
X50267287Y53516400D01*
X50267287Y53516400D02*
X50195859Y53659258D01*
X50195859Y53659258D02*
X50195859Y53730686D01*
X50195859Y53730686D02*
X50267287Y53873543D01*
X50267287Y53873543D02*
X50410145Y53944972D01*
X50410145Y53944972D02*
X50624430Y53944972D01*
X50624430Y53944972D02*
X50767287Y53873543D01*
X51481573Y53087829D02*
X51553002Y53016400D01*
X51553002Y53016400D02*
X51481573Y52944972D01*
X51481573Y52944972D02*
X51410145Y53016400D01*
X51410145Y53016400D02*
X51481573Y53087829D01*
X51481573Y53087829D02*
X51481573Y52944972D01*
X51481573Y53873543D02*
X51553002Y53802115D01*
X51553002Y53802115D02*
X51481573Y53730686D01*
X51481573Y53730686D02*
X51410145Y53802115D01*
X51410145Y53802115D02*
X51481573Y53873543D01*
X51481573Y53873543D02*
X51481573Y53730686D01*
X57995858Y41073972D02*
X57995858Y42573972D01*
X57995858Y42573972D02*
X58853001Y41073972D01*
X58853001Y41073972D02*
X58853001Y42573972D01*
X59781573Y41073972D02*
X59638716Y41145400D01*
X59638716Y41145400D02*
X59567287Y41216829D01*
X59567287Y41216829D02*
X59495859Y41359686D01*
X59495859Y41359686D02*
X59495859Y41788258D01*
X59495859Y41788258D02*
X59567287Y41931115D01*
X59567287Y41931115D02*
X59638716Y42002543D01*
X59638716Y42002543D02*
X59781573Y42073972D01*
X59781573Y42073972D02*
X59995859Y42073972D01*
X59995859Y42073972D02*
X60138716Y42002543D01*
X60138716Y42002543D02*
X60210145Y41931115D01*
X60210145Y41931115D02*
X60281573Y41788258D01*
X60281573Y41788258D02*
X60281573Y41359686D01*
X60281573Y41359686D02*
X60210145Y41216829D01*
X60210145Y41216829D02*
X60138716Y41145400D01*
X60138716Y41145400D02*
X59995859Y41073972D01*
X59995859Y41073972D02*
X59781573Y41073972D01*
X57995858Y37116972D02*
X57995858Y38616972D01*
X57995858Y38616972D02*
X58853001Y37116972D01*
X58853001Y37116972D02*
X58853001Y38616972D01*
X59781573Y37116972D02*
X59638716Y37188400D01*
X59638716Y37188400D02*
X59567287Y37259829D01*
X59567287Y37259829D02*
X59495859Y37402686D01*
X59495859Y37402686D02*
X59495859Y37831258D01*
X59495859Y37831258D02*
X59567287Y37974115D01*
X59567287Y37974115D02*
X59638716Y38045543D01*
X59638716Y38045543D02*
X59781573Y38116972D01*
X59781573Y38116972D02*
X59995859Y38116972D01*
X59995859Y38116972D02*
X60138716Y38045543D01*
X60138716Y38045543D02*
X60210145Y37974115D01*
X60210145Y37974115D02*
X60281573Y37831258D01*
X60281573Y37831258D02*
X60281573Y37402686D01*
X60281573Y37402686D02*
X60210145Y37259829D01*
X60210145Y37259829D02*
X60138716Y37188400D01*
X60138716Y37188400D02*
X59995859Y37116972D01*
X59995859Y37116972D02*
X59781573Y37116972D01*
X-1175565Y54302115D02*
X-1104137Y54373543D01*
X-1104137Y54373543D02*
X-961279Y54444972D01*
X-961279Y54444972D02*
X-604137Y54444972D01*
X-604137Y54444972D02*
X-461279Y54373543D01*
X-461279Y54373543D02*
X-389851Y54302115D01*
X-389851Y54302115D02*
X-318422Y54159258D01*
X-318422Y54159258D02*
X-318422Y54016400D01*
X-318422Y54016400D02*
X-389851Y53802115D01*
X-389851Y53802115D02*
X-1246994Y52944972D01*
X-1246994Y52944972D02*
X-318422Y52944972D01*
X-32904137Y53087829D02*
X-32975565Y53016400D01*
X-32975565Y53016400D02*
X-33189851Y52944972D01*
X-33189851Y52944972D02*
X-33332708Y52944972D01*
X-33332708Y52944972D02*
X-33546994Y53016400D01*
X-33546994Y53016400D02*
X-33689851Y53159258D01*
X-33689851Y53159258D02*
X-33761280Y53302115D01*
X-33761280Y53302115D02*
X-33832708Y53587829D01*
X-33832708Y53587829D02*
X-33832708Y53802115D01*
X-33832708Y53802115D02*
X-33761280Y54087829D01*
X-33761280Y54087829D02*
X-33689851Y54230686D01*
X-33689851Y54230686D02*
X-33546994Y54373543D01*
X-33546994Y54373543D02*
X-33332708Y54444972D01*
X-33332708Y54444972D02*
X-33189851Y54444972D01*
X-33189851Y54444972D02*
X-32975565Y54373543D01*
X-32975565Y54373543D02*
X-32904137Y54302115D01*
X-32046994Y52944972D02*
X-32189851Y53016400D01*
X-32189851Y53016400D02*
X-32261280Y53087829D01*
X-32261280Y53087829D02*
X-32332708Y53230686D01*
X-32332708Y53230686D02*
X-32332708Y53659258D01*
X-32332708Y53659258D02*
X-32261280Y53802115D01*
X-32261280Y53802115D02*
X-32189851Y53873543D01*
X-32189851Y53873543D02*
X-32046994Y53944972D01*
X-32046994Y53944972D02*
X-31832708Y53944972D01*
X-31832708Y53944972D02*
X-31689851Y53873543D01*
X-31689851Y53873543D02*
X-31618422Y53802115D01*
X-31618422Y53802115D02*
X-31546994Y53659258D01*
X-31546994Y53659258D02*
X-31546994Y53230686D01*
X-31546994Y53230686D02*
X-31618422Y53087829D01*
X-31618422Y53087829D02*
X-31689851Y53016400D01*
X-31689851Y53016400D02*
X-31832708Y52944972D01*
X-31832708Y52944972D02*
X-32046994Y52944972D01*
X-30904137Y53944972D02*
X-30904137Y52444972D01*
X-30904137Y53873543D02*
X-30761279Y53944972D01*
X-30761279Y53944972D02*
X-30475565Y53944972D01*
X-30475565Y53944972D02*
X-30332708Y53873543D01*
X-30332708Y53873543D02*
X-30261279Y53802115D01*
X-30261279Y53802115D02*
X-30189851Y53659258D01*
X-30189851Y53659258D02*
X-30189851Y53230686D01*
X-30189851Y53230686D02*
X-30261279Y53087829D01*
X-30261279Y53087829D02*
X-30332708Y53016400D01*
X-30332708Y53016400D02*
X-30475565Y52944972D01*
X-30475565Y52944972D02*
X-30761279Y52944972D01*
X-30761279Y52944972D02*
X-30904137Y53016400D01*
X-29546994Y53944972D02*
X-29546994Y52444972D01*
X-29546994Y53873543D02*
X-29404136Y53944972D01*
X-29404136Y53944972D02*
X-29118422Y53944972D01*
X-29118422Y53944972D02*
X-28975565Y53873543D01*
X-28975565Y53873543D02*
X-28904136Y53802115D01*
X-28904136Y53802115D02*
X-28832708Y53659258D01*
X-28832708Y53659258D02*
X-28832708Y53230686D01*
X-28832708Y53230686D02*
X-28904136Y53087829D01*
X-28904136Y53087829D02*
X-28975565Y53016400D01*
X-28975565Y53016400D02*
X-29118422Y52944972D01*
X-29118422Y52944972D02*
X-29404136Y52944972D01*
X-29404136Y52944972D02*
X-29546994Y53016400D01*
X-27618422Y53016400D02*
X-27761279Y52944972D01*
X-27761279Y52944972D02*
X-28046993Y52944972D01*
X-28046993Y52944972D02*
X-28189851Y53016400D01*
X-28189851Y53016400D02*
X-28261279Y53159258D01*
X-28261279Y53159258D02*
X-28261279Y53730686D01*
X-28261279Y53730686D02*
X-28189851Y53873543D01*
X-28189851Y53873543D02*
X-28046993Y53944972D01*
X-28046993Y53944972D02*
X-27761279Y53944972D01*
X-27761279Y53944972D02*
X-27618422Y53873543D01*
X-27618422Y53873543D02*
X-27546993Y53730686D01*
X-27546993Y53730686D02*
X-27546993Y53587829D01*
X-27546993Y53587829D02*
X-28261279Y53444972D01*
X-26904137Y52944972D02*
X-26904137Y53944972D01*
X-26904137Y53659258D02*
X-26832708Y53802115D01*
X-26832708Y53802115D02*
X-26761279Y53873543D01*
X-26761279Y53873543D02*
X-26618422Y53944972D01*
X-26618422Y53944972D02*
X-26475565Y53944972D01*
X-24118423Y52944972D02*
X-24832709Y52944972D01*
X-24832709Y52944972D02*
X-24832709Y54444972D01*
X-22975565Y52944972D02*
X-22975565Y53730686D01*
X-22975565Y53730686D02*
X-23046994Y53873543D01*
X-23046994Y53873543D02*
X-23189851Y53944972D01*
X-23189851Y53944972D02*
X-23475565Y53944972D01*
X-23475565Y53944972D02*
X-23618423Y53873543D01*
X-22975565Y53016400D02*
X-23118423Y52944972D01*
X-23118423Y52944972D02*
X-23475565Y52944972D01*
X-23475565Y52944972D02*
X-23618423Y53016400D01*
X-23618423Y53016400D02*
X-23689851Y53159258D01*
X-23689851Y53159258D02*
X-23689851Y53302115D01*
X-23689851Y53302115D02*
X-23618423Y53444972D01*
X-23618423Y53444972D02*
X-23475565Y53516400D01*
X-23475565Y53516400D02*
X-23118423Y53516400D01*
X-23118423Y53516400D02*
X-22975565Y53587829D01*
X-22404137Y53944972D02*
X-22046994Y52944972D01*
X-21689851Y53944972D02*
X-22046994Y52944972D01*
X-22046994Y52944972D02*
X-22189851Y52587829D01*
X-22189851Y52587829D02*
X-22261280Y52516400D01*
X-22261280Y52516400D02*
X-22404137Y52444972D01*
X-20546994Y53016400D02*
X-20689851Y52944972D01*
X-20689851Y52944972D02*
X-20975565Y52944972D01*
X-20975565Y52944972D02*
X-21118423Y53016400D01*
X-21118423Y53016400D02*
X-21189851Y53159258D01*
X-21189851Y53159258D02*
X-21189851Y53730686D01*
X-21189851Y53730686D02*
X-21118423Y53873543D01*
X-21118423Y53873543D02*
X-20975565Y53944972D01*
X-20975565Y53944972D02*
X-20689851Y53944972D01*
X-20689851Y53944972D02*
X-20546994Y53873543D01*
X-20546994Y53873543D02*
X-20475565Y53730686D01*
X-20475565Y53730686D02*
X-20475565Y53587829D01*
X-20475565Y53587829D02*
X-21189851Y53444972D01*
X-19832709Y52944972D02*
X-19832709Y53944972D01*
X-19832709Y53659258D02*
X-19761280Y53802115D01*
X-19761280Y53802115D02*
X-19689851Y53873543D01*
X-19689851Y53873543D02*
X-19546994Y53944972D01*
X-19546994Y53944972D02*
X-19404137Y53944972D01*
X-16904138Y53087829D02*
X-16975566Y53016400D01*
X-16975566Y53016400D02*
X-17189852Y52944972D01*
X-17189852Y52944972D02*
X-17332709Y52944972D01*
X-17332709Y52944972D02*
X-17546995Y53016400D01*
X-17546995Y53016400D02*
X-17689852Y53159258D01*
X-17689852Y53159258D02*
X-17761281Y53302115D01*
X-17761281Y53302115D02*
X-17832709Y53587829D01*
X-17832709Y53587829D02*
X-17832709Y53802115D01*
X-17832709Y53802115D02*
X-17761281Y54087829D01*
X-17761281Y54087829D02*
X-17689852Y54230686D01*
X-17689852Y54230686D02*
X-17546995Y54373543D01*
X-17546995Y54373543D02*
X-17332709Y54444972D01*
X-17332709Y54444972D02*
X-17189852Y54444972D01*
X-17189852Y54444972D02*
X-16975566Y54373543D01*
X-16975566Y54373543D02*
X-16904138Y54302115D01*
X-16046995Y52944972D02*
X-16189852Y53016400D01*
X-16189852Y53016400D02*
X-16261281Y53087829D01*
X-16261281Y53087829D02*
X-16332709Y53230686D01*
X-16332709Y53230686D02*
X-16332709Y53659258D01*
X-16332709Y53659258D02*
X-16261281Y53802115D01*
X-16261281Y53802115D02*
X-16189852Y53873543D01*
X-16189852Y53873543D02*
X-16046995Y53944972D01*
X-16046995Y53944972D02*
X-15832709Y53944972D01*
X-15832709Y53944972D02*
X-15689852Y53873543D01*
X-15689852Y53873543D02*
X-15618423Y53802115D01*
X-15618423Y53802115D02*
X-15546995Y53659258D01*
X-15546995Y53659258D02*
X-15546995Y53230686D01*
X-15546995Y53230686D02*
X-15618423Y53087829D01*
X-15618423Y53087829D02*
X-15689852Y53016400D01*
X-15689852Y53016400D02*
X-15832709Y52944972D01*
X-15832709Y52944972D02*
X-16046995Y52944972D01*
X-14261280Y53944972D02*
X-14261280Y52944972D01*
X-14904138Y53944972D02*
X-14904138Y53159258D01*
X-14904138Y53159258D02*
X-14832709Y53016400D01*
X-14832709Y53016400D02*
X-14689852Y52944972D01*
X-14689852Y52944972D02*
X-14475566Y52944972D01*
X-14475566Y52944972D02*
X-14332709Y53016400D01*
X-14332709Y53016400D02*
X-14261280Y53087829D01*
X-13546995Y53944972D02*
X-13546995Y52944972D01*
X-13546995Y53802115D02*
X-13475566Y53873543D01*
X-13475566Y53873543D02*
X-13332709Y53944972D01*
X-13332709Y53944972D02*
X-13118423Y53944972D01*
X-13118423Y53944972D02*
X-12975566Y53873543D01*
X-12975566Y53873543D02*
X-12904137Y53730686D01*
X-12904137Y53730686D02*
X-12904137Y52944972D01*
X-12404137Y53944972D02*
X-11832709Y53944972D01*
X-12189852Y54444972D02*
X-12189852Y53159258D01*
X-12189852Y53159258D02*
X-12118423Y53016400D01*
X-12118423Y53016400D02*
X-11975566Y52944972D01*
X-11975566Y52944972D02*
X-11832709Y52944972D01*
X-11332709Y53087829D02*
X-11261280Y53016400D01*
X-11261280Y53016400D02*
X-11332709Y52944972D01*
X-11332709Y52944972D02*
X-11404137Y53016400D01*
X-11404137Y53016400D02*
X-11332709Y53087829D01*
X-11332709Y53087829D02*
X-11332709Y52944972D01*
X-11332709Y53873543D02*
X-11261280Y53802115D01*
X-11261280Y53802115D02*
X-11332709Y53730686D01*
X-11332709Y53730686D02*
X-11404137Y53802115D01*
X-11404137Y53802115D02*
X-11332709Y53873543D01*
X-11332709Y53873543D02*
X-11332709Y53730686D01*
X33053001Y45030972D02*
X33053001Y46530972D01*
X33053001Y46530972D02*
X33553001Y45459543D01*
X33553001Y45459543D02*
X34053001Y46530972D01*
X34053001Y46530972D02*
X34053001Y45030972D01*
X34767287Y45030972D02*
X34767287Y46030972D01*
X34767287Y46530972D02*
X34695859Y46459543D01*
X34695859Y46459543D02*
X34767287Y46388115D01*
X34767287Y46388115D02*
X34838716Y46459543D01*
X34838716Y46459543D02*
X34767287Y46530972D01*
X34767287Y46530972D02*
X34767287Y46388115D01*
X35481573Y46030972D02*
X35481573Y45030972D01*
X35481573Y45888115D02*
X35553002Y45959543D01*
X35553002Y45959543D02*
X35695859Y46030972D01*
X35695859Y46030972D02*
X35910145Y46030972D01*
X35910145Y46030972D02*
X36053002Y45959543D01*
X36053002Y45959543D02*
X36124431Y45816686D01*
X36124431Y45816686D02*
X36124431Y45030972D01*
X37981573Y45030972D02*
X37981573Y46530972D01*
X38624431Y45030972D02*
X38624431Y45816686D01*
X38624431Y45816686D02*
X38553002Y45959543D01*
X38553002Y45959543D02*
X38410145Y46030972D01*
X38410145Y46030972D02*
X38195859Y46030972D01*
X38195859Y46030972D02*
X38053002Y45959543D01*
X38053002Y45959543D02*
X37981573Y45888115D01*
X39553002Y45030972D02*
X39410145Y45102400D01*
X39410145Y45102400D02*
X39338716Y45173829D01*
X39338716Y45173829D02*
X39267288Y45316686D01*
X39267288Y45316686D02*
X39267288Y45745258D01*
X39267288Y45745258D02*
X39338716Y45888115D01*
X39338716Y45888115D02*
X39410145Y45959543D01*
X39410145Y45959543D02*
X39553002Y46030972D01*
X39553002Y46030972D02*
X39767288Y46030972D01*
X39767288Y46030972D02*
X39910145Y45959543D01*
X39910145Y45959543D02*
X39981574Y45888115D01*
X39981574Y45888115D02*
X40053002Y45745258D01*
X40053002Y45745258D02*
X40053002Y45316686D01*
X40053002Y45316686D02*
X39981574Y45173829D01*
X39981574Y45173829D02*
X39910145Y45102400D01*
X39910145Y45102400D02*
X39767288Y45030972D01*
X39767288Y45030972D02*
X39553002Y45030972D01*
X40910145Y45030972D02*
X40767288Y45102400D01*
X40767288Y45102400D02*
X40695859Y45245258D01*
X40695859Y45245258D02*
X40695859Y46530972D01*
X42053002Y45102400D02*
X41910145Y45030972D01*
X41910145Y45030972D02*
X41624431Y45030972D01*
X41624431Y45030972D02*
X41481573Y45102400D01*
X41481573Y45102400D02*
X41410145Y45245258D01*
X41410145Y45245258D02*
X41410145Y45816686D01*
X41410145Y45816686D02*
X41481573Y45959543D01*
X41481573Y45959543D02*
X41624431Y46030972D01*
X41624431Y46030972D02*
X41910145Y46030972D01*
X41910145Y46030972D02*
X42053002Y45959543D01*
X42053002Y45959543D02*
X42124431Y45816686D01*
X42124431Y45816686D02*
X42124431Y45673829D01*
X42124431Y45673829D02*
X41410145Y45530972D01*
X44553002Y45030972D02*
X44553002Y46530972D01*
X44553002Y45102400D02*
X44410144Y45030972D01*
X44410144Y45030972D02*
X44124430Y45030972D01*
X44124430Y45030972D02*
X43981573Y45102400D01*
X43981573Y45102400D02*
X43910144Y45173829D01*
X43910144Y45173829D02*
X43838716Y45316686D01*
X43838716Y45316686D02*
X43838716Y45745258D01*
X43838716Y45745258D02*
X43910144Y45888115D01*
X43910144Y45888115D02*
X43981573Y45959543D01*
X43981573Y45959543D02*
X44124430Y46030972D01*
X44124430Y46030972D02*
X44410144Y46030972D01*
X44410144Y46030972D02*
X44553002Y45959543D01*
X45267287Y45030972D02*
X45267287Y46030972D01*
X45267287Y46530972D02*
X45195859Y46459543D01*
X45195859Y46459543D02*
X45267287Y46388115D01*
X45267287Y46388115D02*
X45338716Y46459543D01*
X45338716Y46459543D02*
X45267287Y46530972D01*
X45267287Y46530972D02*
X45267287Y46388115D01*
X46624431Y45030972D02*
X46624431Y45816686D01*
X46624431Y45816686D02*
X46553002Y45959543D01*
X46553002Y45959543D02*
X46410145Y46030972D01*
X46410145Y46030972D02*
X46124431Y46030972D01*
X46124431Y46030972D02*
X45981573Y45959543D01*
X46624431Y45102400D02*
X46481573Y45030972D01*
X46481573Y45030972D02*
X46124431Y45030972D01*
X46124431Y45030972D02*
X45981573Y45102400D01*
X45981573Y45102400D02*
X45910145Y45245258D01*
X45910145Y45245258D02*
X45910145Y45388115D01*
X45910145Y45388115D02*
X45981573Y45530972D01*
X45981573Y45530972D02*
X46124431Y45602400D01*
X46124431Y45602400D02*
X46481573Y45602400D01*
X46481573Y45602400D02*
X46624431Y45673829D01*
X47338716Y45030972D02*
X47338716Y46030972D01*
X47338716Y45888115D02*
X47410145Y45959543D01*
X47410145Y45959543D02*
X47553002Y46030972D01*
X47553002Y46030972D02*
X47767288Y46030972D01*
X47767288Y46030972D02*
X47910145Y45959543D01*
X47910145Y45959543D02*
X47981574Y45816686D01*
X47981574Y45816686D02*
X47981574Y45030972D01*
X47981574Y45816686D02*
X48053002Y45959543D01*
X48053002Y45959543D02*
X48195859Y46030972D01*
X48195859Y46030972D02*
X48410145Y46030972D01*
X48410145Y46030972D02*
X48553002Y45959543D01*
X48553002Y45959543D02*
X48624431Y45816686D01*
X48624431Y45816686D02*
X48624431Y45030972D01*
X49910145Y45102400D02*
X49767288Y45030972D01*
X49767288Y45030972D02*
X49481574Y45030972D01*
X49481574Y45030972D02*
X49338716Y45102400D01*
X49338716Y45102400D02*
X49267288Y45245258D01*
X49267288Y45245258D02*
X49267288Y45816686D01*
X49267288Y45816686D02*
X49338716Y45959543D01*
X49338716Y45959543D02*
X49481574Y46030972D01*
X49481574Y46030972D02*
X49767288Y46030972D01*
X49767288Y46030972D02*
X49910145Y45959543D01*
X49910145Y45959543D02*
X49981574Y45816686D01*
X49981574Y45816686D02*
X49981574Y45673829D01*
X49981574Y45673829D02*
X49267288Y45530972D01*
X50410145Y46030972D02*
X50981573Y46030972D01*
X50624430Y46530972D02*
X50624430Y45245258D01*
X50624430Y45245258D02*
X50695859Y45102400D01*
X50695859Y45102400D02*
X50838716Y45030972D01*
X50838716Y45030972D02*
X50981573Y45030972D01*
X52053002Y45102400D02*
X51910145Y45030972D01*
X51910145Y45030972D02*
X51624431Y45030972D01*
X51624431Y45030972D02*
X51481573Y45102400D01*
X51481573Y45102400D02*
X51410145Y45245258D01*
X51410145Y45245258D02*
X51410145Y45816686D01*
X51410145Y45816686D02*
X51481573Y45959543D01*
X51481573Y45959543D02*
X51624431Y46030972D01*
X51624431Y46030972D02*
X51910145Y46030972D01*
X51910145Y46030972D02*
X52053002Y45959543D01*
X52053002Y45959543D02*
X52124431Y45816686D01*
X52124431Y45816686D02*
X52124431Y45673829D01*
X52124431Y45673829D02*
X51410145Y45530972D01*
X52767287Y45030972D02*
X52767287Y46030972D01*
X52767287Y45745258D02*
X52838716Y45888115D01*
X52838716Y45888115D02*
X52910145Y45959543D01*
X52910145Y45959543D02*
X53053002Y46030972D01*
X53053002Y46030972D02*
X53195859Y46030972D01*
X53695858Y45173829D02*
X53767287Y45102400D01*
X53767287Y45102400D02*
X53695858Y45030972D01*
X53695858Y45030972D02*
X53624430Y45102400D01*
X53624430Y45102400D02*
X53695858Y45173829D01*
X53695858Y45173829D02*
X53695858Y45030972D01*
X53695858Y45959543D02*
X53767287Y45888115D01*
X53767287Y45888115D02*
X53695858Y45816686D01*
X53695858Y45816686D02*
X53624430Y45888115D01*
X53624430Y45888115D02*
X53695858Y45959543D01*
X53695858Y45959543D02*
X53695858Y45816686D01*
X-1246994Y50487972D02*
X-318422Y50487972D01*
X-318422Y50487972D02*
X-818422Y49916543D01*
X-818422Y49916543D02*
X-604137Y49916543D01*
X-604137Y49916543D02*
X-461279Y49845115D01*
X-461279Y49845115D02*
X-389851Y49773686D01*
X-389851Y49773686D02*
X-318422Y49630829D01*
X-318422Y49630829D02*
X-318422Y49273686D01*
X-318422Y49273686D02*
X-389851Y49130829D01*
X-389851Y49130829D02*
X-461279Y49059400D01*
X-461279Y49059400D02*
X-604137Y48987972D01*
X-604137Y48987972D02*
X-1032708Y48987972D01*
X-1032708Y48987972D02*
X-1175565Y49059400D01*
X-1175565Y49059400D02*
X-1246994Y49130829D01*
X253006Y50345115D02*
X324434Y50416543D01*
X324434Y50416543D02*
X467292Y50487972D01*
X467292Y50487972D02*
X824434Y50487972D01*
X824434Y50487972D02*
X967292Y50416543D01*
X967292Y50416543D02*
X1038720Y50345115D01*
X1038720Y50345115D02*
X1110149Y50202258D01*
X1110149Y50202258D02*
X1110149Y50059400D01*
X1110149Y50059400D02*
X1038720Y49845115D01*
X1038720Y49845115D02*
X181577Y48987972D01*
X181577Y48987972D02*
X1110149Y48987972D01*
X1753005Y49130829D02*
X1824434Y49059400D01*
X1824434Y49059400D02*
X1753005Y48987972D01*
X1753005Y48987972D02*
X1681577Y49059400D01*
X1681577Y49059400D02*
X1753005Y49130829D01*
X1753005Y49130829D02*
X1753005Y48987972D01*
X2753006Y50487972D02*
X2895863Y50487972D01*
X2895863Y50487972D02*
X3038720Y50416543D01*
X3038720Y50416543D02*
X3110149Y50345115D01*
X3110149Y50345115D02*
X3181577Y50202258D01*
X3181577Y50202258D02*
X3253006Y49916543D01*
X3253006Y49916543D02*
X3253006Y49559400D01*
X3253006Y49559400D02*
X3181577Y49273686D01*
X3181577Y49273686D02*
X3110149Y49130829D01*
X3110149Y49130829D02*
X3038720Y49059400D01*
X3038720Y49059400D02*
X2895863Y48987972D01*
X2895863Y48987972D02*
X2753006Y48987972D01*
X2753006Y48987972D02*
X2610149Y49059400D01*
X2610149Y49059400D02*
X2538720Y49130829D01*
X2538720Y49130829D02*
X2467291Y49273686D01*
X2467291Y49273686D02*
X2395863Y49559400D01*
X2395863Y49559400D02*
X2395863Y49916543D01*
X2395863Y49916543D02*
X2467291Y50202258D01*
X2467291Y50202258D02*
X2538720Y50345115D01*
X2538720Y50345115D02*
X2610149Y50416543D01*
X2610149Y50416543D02*
X2753006Y50487972D01*
X4181577Y50487972D02*
X4324434Y50487972D01*
X4324434Y50487972D02*
X4467291Y50416543D01*
X4467291Y50416543D02*
X4538720Y50345115D01*
X4538720Y50345115D02*
X4610148Y50202258D01*
X4610148Y50202258D02*
X4681577Y49916543D01*
X4681577Y49916543D02*
X4681577Y49559400D01*
X4681577Y49559400D02*
X4610148Y49273686D01*
X4610148Y49273686D02*
X4538720Y49130829D01*
X4538720Y49130829D02*
X4467291Y49059400D01*
X4467291Y49059400D02*
X4324434Y48987972D01*
X4324434Y48987972D02*
X4181577Y48987972D01*
X4181577Y48987972D02*
X4038720Y49059400D01*
X4038720Y49059400D02*
X3967291Y49130829D01*
X3967291Y49130829D02*
X3895862Y49273686D01*
X3895862Y49273686D02*
X3824434Y49559400D01*
X3824434Y49559400D02*
X3824434Y49916543D01*
X3824434Y49916543D02*
X3895862Y50202258D01*
X3895862Y50202258D02*
X3967291Y50345115D01*
X3967291Y50345115D02*
X4038720Y50416543D01*
X4038720Y50416543D02*
X4181577Y50487972D01*
X5610148Y50487972D02*
X5753005Y50487972D01*
X5753005Y50487972D02*
X5895862Y50416543D01*
X5895862Y50416543D02*
X5967291Y50345115D01*
X5967291Y50345115D02*
X6038719Y50202258D01*
X6038719Y50202258D02*
X6110148Y49916543D01*
X6110148Y49916543D02*
X6110148Y49559400D01*
X6110148Y49559400D02*
X6038719Y49273686D01*
X6038719Y49273686D02*
X5967291Y49130829D01*
X5967291Y49130829D02*
X5895862Y49059400D01*
X5895862Y49059400D02*
X5753005Y48987972D01*
X5753005Y48987972D02*
X5610148Y48987972D01*
X5610148Y48987972D02*
X5467291Y49059400D01*
X5467291Y49059400D02*
X5395862Y49130829D01*
X5395862Y49130829D02*
X5324433Y49273686D01*
X5324433Y49273686D02*
X5253005Y49559400D01*
X5253005Y49559400D02*
X5253005Y49916543D01*
X5253005Y49916543D02*
X5324433Y50202258D01*
X5324433Y50202258D02*
X5395862Y50345115D01*
X5395862Y50345115D02*
X5467291Y50416543D01*
X5467291Y50416543D02*
X5610148Y50487972D01*
X7038719Y50487972D02*
X7181576Y50487972D01*
X7181576Y50487972D02*
X7324433Y50416543D01*
X7324433Y50416543D02*
X7395862Y50345115D01*
X7395862Y50345115D02*
X7467290Y50202258D01*
X7467290Y50202258D02*
X7538719Y49916543D01*
X7538719Y49916543D02*
X7538719Y49559400D01*
X7538719Y49559400D02*
X7467290Y49273686D01*
X7467290Y49273686D02*
X7395862Y49130829D01*
X7395862Y49130829D02*
X7324433Y49059400D01*
X7324433Y49059400D02*
X7181576Y48987972D01*
X7181576Y48987972D02*
X7038719Y48987972D01*
X7038719Y48987972D02*
X6895862Y49059400D01*
X6895862Y49059400D02*
X6824433Y49130829D01*
X6824433Y49130829D02*
X6753004Y49273686D01*
X6753004Y49273686D02*
X6681576Y49559400D01*
X6681576Y49559400D02*
X6681576Y49916543D01*
X6681576Y49916543D02*
X6753004Y50202258D01*
X6753004Y50202258D02*
X6824433Y50345115D01*
X6824433Y50345115D02*
X6895862Y50416543D01*
X6895862Y50416543D02*
X7038719Y50487972D01*
X9324432Y48987972D02*
X9324432Y49987972D01*
X9324432Y49845115D02*
X9395861Y49916543D01*
X9395861Y49916543D02*
X9538718Y49987972D01*
X9538718Y49987972D02*
X9753004Y49987972D01*
X9753004Y49987972D02*
X9895861Y49916543D01*
X9895861Y49916543D02*
X9967290Y49773686D01*
X9967290Y49773686D02*
X9967290Y48987972D01*
X9967290Y49773686D02*
X10038718Y49916543D01*
X10038718Y49916543D02*
X10181575Y49987972D01*
X10181575Y49987972D02*
X10395861Y49987972D01*
X10395861Y49987972D02*
X10538718Y49916543D01*
X10538718Y49916543D02*
X10610147Y49773686D01*
X10610147Y49773686D02*
X10610147Y48987972D01*
X11324432Y48987972D02*
X11324432Y49987972D01*
X11324432Y49845115D02*
X11395861Y49916543D01*
X11395861Y49916543D02*
X11538718Y49987972D01*
X11538718Y49987972D02*
X11753004Y49987972D01*
X11753004Y49987972D02*
X11895861Y49916543D01*
X11895861Y49916543D02*
X11967290Y49773686D01*
X11967290Y49773686D02*
X11967290Y48987972D01*
X11967290Y49773686D02*
X12038718Y49916543D01*
X12038718Y49916543D02*
X12181575Y49987972D01*
X12181575Y49987972D02*
X12395861Y49987972D01*
X12395861Y49987972D02*
X12538718Y49916543D01*
X12538718Y49916543D02*
X12610147Y49773686D01*
X12610147Y49773686D02*
X12610147Y48987972D01*
X14324432Y48987972D02*
X15110147Y49987972D01*
X14324432Y49987972D02*
X15110147Y48987972D01*
X16753004Y50345115D02*
X16824432Y50416543D01*
X16824432Y50416543D02*
X16967290Y50487972D01*
X16967290Y50487972D02*
X17324432Y50487972D01*
X17324432Y50487972D02*
X17467290Y50416543D01*
X17467290Y50416543D02*
X17538718Y50345115D01*
X17538718Y50345115D02*
X17610147Y50202258D01*
X17610147Y50202258D02*
X17610147Y50059400D01*
X17610147Y50059400D02*
X17538718Y49845115D01*
X17538718Y49845115D02*
X16681575Y48987972D01*
X16681575Y48987972D02*
X17610147Y48987972D01*
X18538718Y50487972D02*
X18681575Y50487972D01*
X18681575Y50487972D02*
X18824432Y50416543D01*
X18824432Y50416543D02*
X18895861Y50345115D01*
X18895861Y50345115D02*
X18967289Y50202258D01*
X18967289Y50202258D02*
X19038718Y49916543D01*
X19038718Y49916543D02*
X19038718Y49559400D01*
X19038718Y49559400D02*
X18967289Y49273686D01*
X18967289Y49273686D02*
X18895861Y49130829D01*
X18895861Y49130829D02*
X18824432Y49059400D01*
X18824432Y49059400D02*
X18681575Y48987972D01*
X18681575Y48987972D02*
X18538718Y48987972D01*
X18538718Y48987972D02*
X18395861Y49059400D01*
X18395861Y49059400D02*
X18324432Y49130829D01*
X18324432Y49130829D02*
X18253003Y49273686D01*
X18253003Y49273686D02*
X18181575Y49559400D01*
X18181575Y49559400D02*
X18181575Y49916543D01*
X18181575Y49916543D02*
X18253003Y50202258D01*
X18253003Y50202258D02*
X18324432Y50345115D01*
X18324432Y50345115D02*
X18395861Y50416543D01*
X18395861Y50416543D02*
X18538718Y50487972D01*
X19681574Y49130829D02*
X19753003Y49059400D01*
X19753003Y49059400D02*
X19681574Y48987972D01*
X19681574Y48987972D02*
X19610146Y49059400D01*
X19610146Y49059400D02*
X19681574Y49130829D01*
X19681574Y49130829D02*
X19681574Y48987972D01*
X20681575Y50487972D02*
X20824432Y50487972D01*
X20824432Y50487972D02*
X20967289Y50416543D01*
X20967289Y50416543D02*
X21038718Y50345115D01*
X21038718Y50345115D02*
X21110146Y50202258D01*
X21110146Y50202258D02*
X21181575Y49916543D01*
X21181575Y49916543D02*
X21181575Y49559400D01*
X21181575Y49559400D02*
X21110146Y49273686D01*
X21110146Y49273686D02*
X21038718Y49130829D01*
X21038718Y49130829D02*
X20967289Y49059400D01*
X20967289Y49059400D02*
X20824432Y48987972D01*
X20824432Y48987972D02*
X20681575Y48987972D01*
X20681575Y48987972D02*
X20538718Y49059400D01*
X20538718Y49059400D02*
X20467289Y49130829D01*
X20467289Y49130829D02*
X20395860Y49273686D01*
X20395860Y49273686D02*
X20324432Y49559400D01*
X20324432Y49559400D02*
X20324432Y49916543D01*
X20324432Y49916543D02*
X20395860Y50202258D01*
X20395860Y50202258D02*
X20467289Y50345115D01*
X20467289Y50345115D02*
X20538718Y50416543D01*
X20538718Y50416543D02*
X20681575Y50487972D01*
X22110146Y50487972D02*
X22253003Y50487972D01*
X22253003Y50487972D02*
X22395860Y50416543D01*
X22395860Y50416543D02*
X22467289Y50345115D01*
X22467289Y50345115D02*
X22538717Y50202258D01*
X22538717Y50202258D02*
X22610146Y49916543D01*
X22610146Y49916543D02*
X22610146Y49559400D01*
X22610146Y49559400D02*
X22538717Y49273686D01*
X22538717Y49273686D02*
X22467289Y49130829D01*
X22467289Y49130829D02*
X22395860Y49059400D01*
X22395860Y49059400D02*
X22253003Y48987972D01*
X22253003Y48987972D02*
X22110146Y48987972D01*
X22110146Y48987972D02*
X21967289Y49059400D01*
X21967289Y49059400D02*
X21895860Y49130829D01*
X21895860Y49130829D02*
X21824431Y49273686D01*
X21824431Y49273686D02*
X21753003Y49559400D01*
X21753003Y49559400D02*
X21753003Y49916543D01*
X21753003Y49916543D02*
X21824431Y50202258D01*
X21824431Y50202258D02*
X21895860Y50345115D01*
X21895860Y50345115D02*
X21967289Y50416543D01*
X21967289Y50416543D02*
X22110146Y50487972D01*
X23538717Y50487972D02*
X23681574Y50487972D01*
X23681574Y50487972D02*
X23824431Y50416543D01*
X23824431Y50416543D02*
X23895860Y50345115D01*
X23895860Y50345115D02*
X23967288Y50202258D01*
X23967288Y50202258D02*
X24038717Y49916543D01*
X24038717Y49916543D02*
X24038717Y49559400D01*
X24038717Y49559400D02*
X23967288Y49273686D01*
X23967288Y49273686D02*
X23895860Y49130829D01*
X23895860Y49130829D02*
X23824431Y49059400D01*
X23824431Y49059400D02*
X23681574Y48987972D01*
X23681574Y48987972D02*
X23538717Y48987972D01*
X23538717Y48987972D02*
X23395860Y49059400D01*
X23395860Y49059400D02*
X23324431Y49130829D01*
X23324431Y49130829D02*
X23253002Y49273686D01*
X23253002Y49273686D02*
X23181574Y49559400D01*
X23181574Y49559400D02*
X23181574Y49916543D01*
X23181574Y49916543D02*
X23253002Y50202258D01*
X23253002Y50202258D02*
X23324431Y50345115D01*
X23324431Y50345115D02*
X23395860Y50416543D01*
X23395860Y50416543D02*
X23538717Y50487972D01*
X24967288Y50487972D02*
X25110145Y50487972D01*
X25110145Y50487972D02*
X25253002Y50416543D01*
X25253002Y50416543D02*
X25324431Y50345115D01*
X25324431Y50345115D02*
X25395859Y50202258D01*
X25395859Y50202258D02*
X25467288Y49916543D01*
X25467288Y49916543D02*
X25467288Y49559400D01*
X25467288Y49559400D02*
X25395859Y49273686D01*
X25395859Y49273686D02*
X25324431Y49130829D01*
X25324431Y49130829D02*
X25253002Y49059400D01*
X25253002Y49059400D02*
X25110145Y48987972D01*
X25110145Y48987972D02*
X24967288Y48987972D01*
X24967288Y48987972D02*
X24824431Y49059400D01*
X24824431Y49059400D02*
X24753002Y49130829D01*
X24753002Y49130829D02*
X24681573Y49273686D01*
X24681573Y49273686D02*
X24610145Y49559400D01*
X24610145Y49559400D02*
X24610145Y49916543D01*
X24610145Y49916543D02*
X24681573Y50202258D01*
X24681573Y50202258D02*
X24753002Y50345115D01*
X24753002Y50345115D02*
X24824431Y50416543D01*
X24824431Y50416543D02*
X24967288Y50487972D01*
X27253001Y48987972D02*
X27253001Y49987972D01*
X27253001Y49845115D02*
X27324430Y49916543D01*
X27324430Y49916543D02*
X27467287Y49987972D01*
X27467287Y49987972D02*
X27681573Y49987972D01*
X27681573Y49987972D02*
X27824430Y49916543D01*
X27824430Y49916543D02*
X27895859Y49773686D01*
X27895859Y49773686D02*
X27895859Y48987972D01*
X27895859Y49773686D02*
X27967287Y49916543D01*
X27967287Y49916543D02*
X28110144Y49987972D01*
X28110144Y49987972D02*
X28324430Y49987972D01*
X28324430Y49987972D02*
X28467287Y49916543D01*
X28467287Y49916543D02*
X28538716Y49773686D01*
X28538716Y49773686D02*
X28538716Y48987972D01*
X29253001Y48987972D02*
X29253001Y49987972D01*
X29253001Y49845115D02*
X29324430Y49916543D01*
X29324430Y49916543D02*
X29467287Y49987972D01*
X29467287Y49987972D02*
X29681573Y49987972D01*
X29681573Y49987972D02*
X29824430Y49916543D01*
X29824430Y49916543D02*
X29895859Y49773686D01*
X29895859Y49773686D02*
X29895859Y48987972D01*
X29895859Y49773686D02*
X29967287Y49916543D01*
X29967287Y49916543D02*
X30110144Y49987972D01*
X30110144Y49987972D02*
X30324430Y49987972D01*
X30324430Y49987972D02*
X30467287Y49916543D01*
X30467287Y49916543D02*
X30538716Y49773686D01*
X30538716Y49773686D02*
X30538716Y48987972D01*
X-33261280Y49773686D02*
X-33046994Y49702258D01*
X-33046994Y49702258D02*
X-32975565Y49630829D01*
X-32975565Y49630829D02*
X-32904137Y49487972D01*
X-32904137Y49487972D02*
X-32904137Y49273686D01*
X-32904137Y49273686D02*
X-32975565Y49130829D01*
X-32975565Y49130829D02*
X-33046994Y49059400D01*
X-33046994Y49059400D02*
X-33189851Y48987972D01*
X-33189851Y48987972D02*
X-33761280Y48987972D01*
X-33761280Y48987972D02*
X-33761280Y50487972D01*
X-33761280Y50487972D02*
X-33261280Y50487972D01*
X-33261280Y50487972D02*
X-33118422Y50416543D01*
X-33118422Y50416543D02*
X-33046994Y50345115D01*
X-33046994Y50345115D02*
X-32975565Y50202258D01*
X-32975565Y50202258D02*
X-32975565Y50059400D01*
X-32975565Y50059400D02*
X-33046994Y49916543D01*
X-33046994Y49916543D02*
X-33118422Y49845115D01*
X-33118422Y49845115D02*
X-33261280Y49773686D01*
X-33261280Y49773686D02*
X-33761280Y49773686D01*
X-32046994Y48987972D02*
X-32189851Y49059400D01*
X-32189851Y49059400D02*
X-32261280Y49130829D01*
X-32261280Y49130829D02*
X-32332708Y49273686D01*
X-32332708Y49273686D02*
X-32332708Y49702258D01*
X-32332708Y49702258D02*
X-32261280Y49845115D01*
X-32261280Y49845115D02*
X-32189851Y49916543D01*
X-32189851Y49916543D02*
X-32046994Y49987972D01*
X-32046994Y49987972D02*
X-31832708Y49987972D01*
X-31832708Y49987972D02*
X-31689851Y49916543D01*
X-31689851Y49916543D02*
X-31618422Y49845115D01*
X-31618422Y49845115D02*
X-31546994Y49702258D01*
X-31546994Y49702258D02*
X-31546994Y49273686D01*
X-31546994Y49273686D02*
X-31618422Y49130829D01*
X-31618422Y49130829D02*
X-31689851Y49059400D01*
X-31689851Y49059400D02*
X-31832708Y48987972D01*
X-31832708Y48987972D02*
X-32046994Y48987972D01*
X-30261279Y48987972D02*
X-30261279Y49773686D01*
X-30261279Y49773686D02*
X-30332708Y49916543D01*
X-30332708Y49916543D02*
X-30475565Y49987972D01*
X-30475565Y49987972D02*
X-30761279Y49987972D01*
X-30761279Y49987972D02*
X-30904137Y49916543D01*
X-30261279Y49059400D02*
X-30404137Y48987972D01*
X-30404137Y48987972D02*
X-30761279Y48987972D01*
X-30761279Y48987972D02*
X-30904137Y49059400D01*
X-30904137Y49059400D02*
X-30975565Y49202258D01*
X-30975565Y49202258D02*
X-30975565Y49345115D01*
X-30975565Y49345115D02*
X-30904137Y49487972D01*
X-30904137Y49487972D02*
X-30761279Y49559400D01*
X-30761279Y49559400D02*
X-30404137Y49559400D01*
X-30404137Y49559400D02*
X-30261279Y49630829D01*
X-29546994Y48987972D02*
X-29546994Y49987972D01*
X-29546994Y49702258D02*
X-29475565Y49845115D01*
X-29475565Y49845115D02*
X-29404136Y49916543D01*
X-29404136Y49916543D02*
X-29261279Y49987972D01*
X-29261279Y49987972D02*
X-29118422Y49987972D01*
X-27975565Y48987972D02*
X-27975565Y50487972D01*
X-27975565Y49059400D02*
X-28118423Y48987972D01*
X-28118423Y48987972D02*
X-28404137Y48987972D01*
X-28404137Y48987972D02*
X-28546994Y49059400D01*
X-28546994Y49059400D02*
X-28618423Y49130829D01*
X-28618423Y49130829D02*
X-28689851Y49273686D01*
X-28689851Y49273686D02*
X-28689851Y49702258D01*
X-28689851Y49702258D02*
X-28618423Y49845115D01*
X-28618423Y49845115D02*
X-28546994Y49916543D01*
X-28546994Y49916543D02*
X-28404137Y49987972D01*
X-28404137Y49987972D02*
X-28118423Y49987972D01*
X-28118423Y49987972D02*
X-27975565Y49916543D01*
X-25904137Y48987972D02*
X-26046994Y49059400D01*
X-26046994Y49059400D02*
X-26118423Y49130829D01*
X-26118423Y49130829D02*
X-26189851Y49273686D01*
X-26189851Y49273686D02*
X-26189851Y49702258D01*
X-26189851Y49702258D02*
X-26118423Y49845115D01*
X-26118423Y49845115D02*
X-26046994Y49916543D01*
X-26046994Y49916543D02*
X-25904137Y49987972D01*
X-25904137Y49987972D02*
X-25689851Y49987972D01*
X-25689851Y49987972D02*
X-25546994Y49916543D01*
X-25546994Y49916543D02*
X-25475565Y49845115D01*
X-25475565Y49845115D02*
X-25404137Y49702258D01*
X-25404137Y49702258D02*
X-25404137Y49273686D01*
X-25404137Y49273686D02*
X-25475565Y49130829D01*
X-25475565Y49130829D02*
X-25546994Y49059400D01*
X-25546994Y49059400D02*
X-25689851Y48987972D01*
X-25689851Y48987972D02*
X-25904137Y48987972D01*
X-24904137Y49987972D02*
X-24546994Y48987972D01*
X-24546994Y48987972D02*
X-24189851Y49987972D01*
X-23046994Y49059400D02*
X-23189851Y48987972D01*
X-23189851Y48987972D02*
X-23475565Y48987972D01*
X-23475565Y48987972D02*
X-23618423Y49059400D01*
X-23618423Y49059400D02*
X-23689851Y49202258D01*
X-23689851Y49202258D02*
X-23689851Y49773686D01*
X-23689851Y49773686D02*
X-23618423Y49916543D01*
X-23618423Y49916543D02*
X-23475565Y49987972D01*
X-23475565Y49987972D02*
X-23189851Y49987972D01*
X-23189851Y49987972D02*
X-23046994Y49916543D01*
X-23046994Y49916543D02*
X-22975565Y49773686D01*
X-22975565Y49773686D02*
X-22975565Y49630829D01*
X-22975565Y49630829D02*
X-23689851Y49487972D01*
X-22332709Y48987972D02*
X-22332709Y49987972D01*
X-22332709Y49702258D02*
X-22261280Y49845115D01*
X-22261280Y49845115D02*
X-22189851Y49916543D01*
X-22189851Y49916543D02*
X-22046994Y49987972D01*
X-22046994Y49987972D02*
X-21904137Y49987972D01*
X-20761280Y48987972D02*
X-20761280Y49773686D01*
X-20761280Y49773686D02*
X-20832709Y49916543D01*
X-20832709Y49916543D02*
X-20975566Y49987972D01*
X-20975566Y49987972D02*
X-21261280Y49987972D01*
X-21261280Y49987972D02*
X-21404138Y49916543D01*
X-20761280Y49059400D02*
X-20904138Y48987972D01*
X-20904138Y48987972D02*
X-21261280Y48987972D01*
X-21261280Y48987972D02*
X-21404138Y49059400D01*
X-21404138Y49059400D02*
X-21475566Y49202258D01*
X-21475566Y49202258D02*
X-21475566Y49345115D01*
X-21475566Y49345115D02*
X-21404138Y49487972D01*
X-21404138Y49487972D02*
X-21261280Y49559400D01*
X-21261280Y49559400D02*
X-20904138Y49559400D01*
X-20904138Y49559400D02*
X-20761280Y49630829D01*
X-19832709Y48987972D02*
X-19975566Y49059400D01*
X-19975566Y49059400D02*
X-20046995Y49202258D01*
X-20046995Y49202258D02*
X-20046995Y50487972D01*
X-19046995Y48987972D02*
X-19189852Y49059400D01*
X-19189852Y49059400D02*
X-19261281Y49202258D01*
X-19261281Y49202258D02*
X-19261281Y50487972D01*
X-16689852Y48987972D02*
X-16689852Y50487972D01*
X-16689852Y49059400D02*
X-16832710Y48987972D01*
X-16832710Y48987972D02*
X-17118424Y48987972D01*
X-17118424Y48987972D02*
X-17261281Y49059400D01*
X-17261281Y49059400D02*
X-17332710Y49130829D01*
X-17332710Y49130829D02*
X-17404138Y49273686D01*
X-17404138Y49273686D02*
X-17404138Y49702258D01*
X-17404138Y49702258D02*
X-17332710Y49845115D01*
X-17332710Y49845115D02*
X-17261281Y49916543D01*
X-17261281Y49916543D02*
X-17118424Y49987972D01*
X-17118424Y49987972D02*
X-16832710Y49987972D01*
X-16832710Y49987972D02*
X-16689852Y49916543D01*
X-15975567Y48987972D02*
X-15975567Y49987972D01*
X-15975567Y50487972D02*
X-16046995Y50416543D01*
X-16046995Y50416543D02*
X-15975567Y50345115D01*
X-15975567Y50345115D02*
X-15904138Y50416543D01*
X-15904138Y50416543D02*
X-15975567Y50487972D01*
X-15975567Y50487972D02*
X-15975567Y50345115D01*
X-15261281Y48987972D02*
X-15261281Y49987972D01*
X-15261281Y49845115D02*
X-15189852Y49916543D01*
X-15189852Y49916543D02*
X-15046995Y49987972D01*
X-15046995Y49987972D02*
X-14832709Y49987972D01*
X-14832709Y49987972D02*
X-14689852Y49916543D01*
X-14689852Y49916543D02*
X-14618423Y49773686D01*
X-14618423Y49773686D02*
X-14618423Y48987972D01*
X-14618423Y49773686D02*
X-14546995Y49916543D01*
X-14546995Y49916543D02*
X-14404138Y49987972D01*
X-14404138Y49987972D02*
X-14189852Y49987972D01*
X-14189852Y49987972D02*
X-14046995Y49916543D01*
X-14046995Y49916543D02*
X-13975566Y49773686D01*
X-13975566Y49773686D02*
X-13975566Y48987972D01*
X-12689852Y49059400D02*
X-12832709Y48987972D01*
X-12832709Y48987972D02*
X-13118423Y48987972D01*
X-13118423Y48987972D02*
X-13261281Y49059400D01*
X-13261281Y49059400D02*
X-13332709Y49202258D01*
X-13332709Y49202258D02*
X-13332709Y49773686D01*
X-13332709Y49773686D02*
X-13261281Y49916543D01*
X-13261281Y49916543D02*
X-13118423Y49987972D01*
X-13118423Y49987972D02*
X-12832709Y49987972D01*
X-12832709Y49987972D02*
X-12689852Y49916543D01*
X-12689852Y49916543D02*
X-12618423Y49773686D01*
X-12618423Y49773686D02*
X-12618423Y49630829D01*
X-12618423Y49630829D02*
X-13332709Y49487972D01*
X-11975567Y49987972D02*
X-11975567Y48987972D01*
X-11975567Y49845115D02*
X-11904138Y49916543D01*
X-11904138Y49916543D02*
X-11761281Y49987972D01*
X-11761281Y49987972D02*
X-11546995Y49987972D01*
X-11546995Y49987972D02*
X-11404138Y49916543D01*
X-11404138Y49916543D02*
X-11332709Y49773686D01*
X-11332709Y49773686D02*
X-11332709Y48987972D01*
X-10689852Y49059400D02*
X-10546995Y48987972D01*
X-10546995Y48987972D02*
X-10261281Y48987972D01*
X-10261281Y48987972D02*
X-10118424Y49059400D01*
X-10118424Y49059400D02*
X-10046995Y49202258D01*
X-10046995Y49202258D02*
X-10046995Y49273686D01*
X-10046995Y49273686D02*
X-10118424Y49416543D01*
X-10118424Y49416543D02*
X-10261281Y49487972D01*
X-10261281Y49487972D02*
X-10475566Y49487972D01*
X-10475566Y49487972D02*
X-10618424Y49559400D01*
X-10618424Y49559400D02*
X-10689852Y49702258D01*
X-10689852Y49702258D02*
X-10689852Y49773686D01*
X-10689852Y49773686D02*
X-10618424Y49916543D01*
X-10618424Y49916543D02*
X-10475566Y49987972D01*
X-10475566Y49987972D02*
X-10261281Y49987972D01*
X-10261281Y49987972D02*
X-10118424Y49916543D01*
X-9404138Y48987972D02*
X-9404138Y49987972D01*
X-9404138Y50487972D02*
X-9475566Y50416543D01*
X-9475566Y50416543D02*
X-9404138Y50345115D01*
X-9404138Y50345115D02*
X-9332709Y50416543D01*
X-9332709Y50416543D02*
X-9404138Y50487972D01*
X-9404138Y50487972D02*
X-9404138Y50345115D01*
X-8475566Y48987972D02*
X-8618423Y49059400D01*
X-8618423Y49059400D02*
X-8689852Y49130829D01*
X-8689852Y49130829D02*
X-8761280Y49273686D01*
X-8761280Y49273686D02*
X-8761280Y49702258D01*
X-8761280Y49702258D02*
X-8689852Y49845115D01*
X-8689852Y49845115D02*
X-8618423Y49916543D01*
X-8618423Y49916543D02*
X-8475566Y49987972D01*
X-8475566Y49987972D02*
X-8261280Y49987972D01*
X-8261280Y49987972D02*
X-8118423Y49916543D01*
X-8118423Y49916543D02*
X-8046994Y49845115D01*
X-8046994Y49845115D02*
X-7975566Y49702258D01*
X-7975566Y49702258D02*
X-7975566Y49273686D01*
X-7975566Y49273686D02*
X-8046994Y49130829D01*
X-8046994Y49130829D02*
X-8118423Y49059400D01*
X-8118423Y49059400D02*
X-8261280Y48987972D01*
X-8261280Y48987972D02*
X-8475566Y48987972D01*
X-7332709Y49987972D02*
X-7332709Y48987972D01*
X-7332709Y49845115D02*
X-7261280Y49916543D01*
X-7261280Y49916543D02*
X-7118423Y49987972D01*
X-7118423Y49987972D02*
X-6904137Y49987972D01*
X-6904137Y49987972D02*
X-6761280Y49916543D01*
X-6761280Y49916543D02*
X-6689851Y49773686D01*
X-6689851Y49773686D02*
X-6689851Y48987972D01*
X-6046994Y49059400D02*
X-5904137Y48987972D01*
X-5904137Y48987972D02*
X-5618423Y48987972D01*
X-5618423Y48987972D02*
X-5475566Y49059400D01*
X-5475566Y49059400D02*
X-5404137Y49202258D01*
X-5404137Y49202258D02*
X-5404137Y49273686D01*
X-5404137Y49273686D02*
X-5475566Y49416543D01*
X-5475566Y49416543D02*
X-5618423Y49487972D01*
X-5618423Y49487972D02*
X-5832708Y49487972D01*
X-5832708Y49487972D02*
X-5975566Y49559400D01*
X-5975566Y49559400D02*
X-6046994Y49702258D01*
X-6046994Y49702258D02*
X-6046994Y49773686D01*
X-6046994Y49773686D02*
X-5975566Y49916543D01*
X-5975566Y49916543D02*
X-5832708Y49987972D01*
X-5832708Y49987972D02*
X-5618423Y49987972D01*
X-5618423Y49987972D02*
X-5475566Y49916543D01*
X-4761280Y49130829D02*
X-4689851Y49059400D01*
X-4689851Y49059400D02*
X-4761280Y48987972D01*
X-4761280Y48987972D02*
X-4832708Y49059400D01*
X-4832708Y49059400D02*
X-4761280Y49130829D01*
X-4761280Y49130829D02*
X-4761280Y48987972D01*
X-4761280Y49916543D02*
X-4689851Y49845115D01*
X-4689851Y49845115D02*
X-4761280Y49773686D01*
X-4761280Y49773686D02*
X-4832708Y49845115D01*
X-4832708Y49845115D02*
X-4761280Y49916543D01*
X-4761280Y49916543D02*
X-4761280Y49773686D01*
X-33761280Y45030972D02*
X-33761280Y46530972D01*
X-33761280Y46530972D02*
X-33261280Y45459543D01*
X-33261280Y45459543D02*
X-32761280Y46530972D01*
X-32761280Y46530972D02*
X-32761280Y45030972D01*
X-32046994Y45030972D02*
X-32046994Y46030972D01*
X-32046994Y46530972D02*
X-32118422Y46459543D01*
X-32118422Y46459543D02*
X-32046994Y46388115D01*
X-32046994Y46388115D02*
X-31975565Y46459543D01*
X-31975565Y46459543D02*
X-32046994Y46530972D01*
X-32046994Y46530972D02*
X-32046994Y46388115D01*
X-31332708Y46030972D02*
X-31332708Y45030972D01*
X-31332708Y45888115D02*
X-31261279Y45959543D01*
X-31261279Y45959543D02*
X-31118422Y46030972D01*
X-31118422Y46030972D02*
X-30904136Y46030972D01*
X-30904136Y46030972D02*
X-30761279Y45959543D01*
X-30761279Y45959543D02*
X-30689850Y45816686D01*
X-30689850Y45816686D02*
X-30689850Y45030972D01*
X-29046993Y46030972D02*
X-28475565Y46030972D01*
X-28832708Y46530972D02*
X-28832708Y45245258D01*
X-28832708Y45245258D02*
X-28761279Y45102400D01*
X-28761279Y45102400D02*
X-28618422Y45030972D01*
X-28618422Y45030972D02*
X-28475565Y45030972D01*
X-27975565Y45030972D02*
X-27975565Y46030972D01*
X-27975565Y45745258D02*
X-27904136Y45888115D01*
X-27904136Y45888115D02*
X-27832707Y45959543D01*
X-27832707Y45959543D02*
X-27689850Y46030972D01*
X-27689850Y46030972D02*
X-27546993Y46030972D01*
X-26404136Y45030972D02*
X-26404136Y45816686D01*
X-26404136Y45816686D02*
X-26475565Y45959543D01*
X-26475565Y45959543D02*
X-26618422Y46030972D01*
X-26618422Y46030972D02*
X-26904136Y46030972D01*
X-26904136Y46030972D02*
X-27046994Y45959543D01*
X-26404136Y45102400D02*
X-26546994Y45030972D01*
X-26546994Y45030972D02*
X-26904136Y45030972D01*
X-26904136Y45030972D02*
X-27046994Y45102400D01*
X-27046994Y45102400D02*
X-27118422Y45245258D01*
X-27118422Y45245258D02*
X-27118422Y45388115D01*
X-27118422Y45388115D02*
X-27046994Y45530972D01*
X-27046994Y45530972D02*
X-26904136Y45602400D01*
X-26904136Y45602400D02*
X-26546994Y45602400D01*
X-26546994Y45602400D02*
X-26404136Y45673829D01*
X-25046993Y45102400D02*
X-25189851Y45030972D01*
X-25189851Y45030972D02*
X-25475565Y45030972D01*
X-25475565Y45030972D02*
X-25618422Y45102400D01*
X-25618422Y45102400D02*
X-25689851Y45173829D01*
X-25689851Y45173829D02*
X-25761279Y45316686D01*
X-25761279Y45316686D02*
X-25761279Y45745258D01*
X-25761279Y45745258D02*
X-25689851Y45888115D01*
X-25689851Y45888115D02*
X-25618422Y45959543D01*
X-25618422Y45959543D02*
X-25475565Y46030972D01*
X-25475565Y46030972D02*
X-25189851Y46030972D01*
X-25189851Y46030972D02*
X-25046993Y45959543D01*
X-24404137Y45030972D02*
X-24404137Y46530972D01*
X-24261279Y45602400D02*
X-23832708Y45030972D01*
X-23832708Y46030972D02*
X-24404137Y45459543D01*
X-22118422Y46602400D02*
X-23404136Y44673829D01*
X-21689850Y45102400D02*
X-21546993Y45030972D01*
X-21546993Y45030972D02*
X-21261279Y45030972D01*
X-21261279Y45030972D02*
X-21118422Y45102400D01*
X-21118422Y45102400D02*
X-21046993Y45245258D01*
X-21046993Y45245258D02*
X-21046993Y45316686D01*
X-21046993Y45316686D02*
X-21118422Y45459543D01*
X-21118422Y45459543D02*
X-21261279Y45530972D01*
X-21261279Y45530972D02*
X-21475564Y45530972D01*
X-21475564Y45530972D02*
X-21618422Y45602400D01*
X-21618422Y45602400D02*
X-21689850Y45745258D01*
X-21689850Y45745258D02*
X-21689850Y45816686D01*
X-21689850Y45816686D02*
X-21618422Y45959543D01*
X-21618422Y45959543D02*
X-21475564Y46030972D01*
X-21475564Y46030972D02*
X-21261279Y46030972D01*
X-21261279Y46030972D02*
X-21118422Y45959543D01*
X-20404136Y46030972D02*
X-20404136Y44530972D01*
X-20404136Y45959543D02*
X-20261278Y46030972D01*
X-20261278Y46030972D02*
X-19975564Y46030972D01*
X-19975564Y46030972D02*
X-19832707Y45959543D01*
X-19832707Y45959543D02*
X-19761278Y45888115D01*
X-19761278Y45888115D02*
X-19689850Y45745258D01*
X-19689850Y45745258D02*
X-19689850Y45316686D01*
X-19689850Y45316686D02*
X-19761278Y45173829D01*
X-19761278Y45173829D02*
X-19832707Y45102400D01*
X-19832707Y45102400D02*
X-19975564Y45030972D01*
X-19975564Y45030972D02*
X-20261278Y45030972D01*
X-20261278Y45030972D02*
X-20404136Y45102400D01*
X-18404135Y45030972D02*
X-18404135Y45816686D01*
X-18404135Y45816686D02*
X-18475564Y45959543D01*
X-18475564Y45959543D02*
X-18618421Y46030972D01*
X-18618421Y46030972D02*
X-18904135Y46030972D01*
X-18904135Y46030972D02*
X-19046993Y45959543D01*
X-18404135Y45102400D02*
X-18546993Y45030972D01*
X-18546993Y45030972D02*
X-18904135Y45030972D01*
X-18904135Y45030972D02*
X-19046993Y45102400D01*
X-19046993Y45102400D02*
X-19118421Y45245258D01*
X-19118421Y45245258D02*
X-19118421Y45388115D01*
X-19118421Y45388115D02*
X-19046993Y45530972D01*
X-19046993Y45530972D02*
X-18904135Y45602400D01*
X-18904135Y45602400D02*
X-18546993Y45602400D01*
X-18546993Y45602400D02*
X-18404135Y45673829D01*
X-17046992Y45102400D02*
X-17189850Y45030972D01*
X-17189850Y45030972D02*
X-17475564Y45030972D01*
X-17475564Y45030972D02*
X-17618421Y45102400D01*
X-17618421Y45102400D02*
X-17689850Y45173829D01*
X-17689850Y45173829D02*
X-17761278Y45316686D01*
X-17761278Y45316686D02*
X-17761278Y45745258D01*
X-17761278Y45745258D02*
X-17689850Y45888115D01*
X-17689850Y45888115D02*
X-17618421Y45959543D01*
X-17618421Y45959543D02*
X-17475564Y46030972D01*
X-17475564Y46030972D02*
X-17189850Y46030972D01*
X-17189850Y46030972D02*
X-17046992Y45959543D01*
X-16404136Y45030972D02*
X-16404136Y46030972D01*
X-16404136Y46530972D02*
X-16475564Y46459543D01*
X-16475564Y46459543D02*
X-16404136Y46388115D01*
X-16404136Y46388115D02*
X-16332707Y46459543D01*
X-16332707Y46459543D02*
X-16404136Y46530972D01*
X-16404136Y46530972D02*
X-16404136Y46388115D01*
X-15689850Y46030972D02*
X-15689850Y45030972D01*
X-15689850Y45888115D02*
X-15618421Y45959543D01*
X-15618421Y45959543D02*
X-15475564Y46030972D01*
X-15475564Y46030972D02*
X-15261278Y46030972D01*
X-15261278Y46030972D02*
X-15118421Y45959543D01*
X-15118421Y45959543D02*
X-15046992Y45816686D01*
X-15046992Y45816686D02*
X-15046992Y45030972D01*
X-13689849Y46030972D02*
X-13689849Y44816686D01*
X-13689849Y44816686D02*
X-13761278Y44673829D01*
X-13761278Y44673829D02*
X-13832707Y44602400D01*
X-13832707Y44602400D02*
X-13975564Y44530972D01*
X-13975564Y44530972D02*
X-14189849Y44530972D01*
X-14189849Y44530972D02*
X-14332707Y44602400D01*
X-13689849Y45102400D02*
X-13832707Y45030972D01*
X-13832707Y45030972D02*
X-14118421Y45030972D01*
X-14118421Y45030972D02*
X-14261278Y45102400D01*
X-14261278Y45102400D02*
X-14332707Y45173829D01*
X-14332707Y45173829D02*
X-14404135Y45316686D01*
X-14404135Y45316686D02*
X-14404135Y45745258D01*
X-14404135Y45745258D02*
X-14332707Y45888115D01*
X-14332707Y45888115D02*
X-14261278Y45959543D01*
X-14261278Y45959543D02*
X-14118421Y46030972D01*
X-14118421Y46030972D02*
X-13832707Y46030972D01*
X-13832707Y46030972D02*
X-13689849Y45959543D01*
X-12975564Y45173829D02*
X-12904135Y45102400D01*
X-12904135Y45102400D02*
X-12975564Y45030972D01*
X-12975564Y45030972D02*
X-13046992Y45102400D01*
X-13046992Y45102400D02*
X-12975564Y45173829D01*
X-12975564Y45173829D02*
X-12975564Y45030972D01*
X-12975564Y45959543D02*
X-12904135Y45888115D01*
X-12904135Y45888115D02*
X-12975564Y45816686D01*
X-12975564Y45816686D02*
X-13046992Y45888115D01*
X-13046992Y45888115D02*
X-12975564Y45959543D01*
X-12975564Y45959543D02*
X-12975564Y45816686D01*
X-1104137Y41073972D02*
X-1104137Y42573972D01*
X-1104137Y41859686D02*
X-246994Y41859686D01*
X-246994Y41073972D02*
X-246994Y42573972D01*
X395864Y41502543D02*
X1110150Y41502543D01*
X253007Y41073972D02*
X753007Y42573972D01*
X753007Y42573972D02*
X1253007Y41073972D01*
X2467292Y41073972D02*
X1753006Y41073972D01*
X1753006Y41073972D02*
X1753006Y42573972D01*
X4324435Y41073972D02*
X4181578Y41145400D01*
X4181578Y41145400D02*
X4110149Y41288258D01*
X4110149Y41288258D02*
X4110149Y42573972D01*
X5467292Y41145400D02*
X5324435Y41073972D01*
X5324435Y41073972D02*
X5038721Y41073972D01*
X5038721Y41073972D02*
X4895863Y41145400D01*
X4895863Y41145400D02*
X4824435Y41288258D01*
X4824435Y41288258D02*
X4824435Y41859686D01*
X4824435Y41859686D02*
X4895863Y42002543D01*
X4895863Y42002543D02*
X5038721Y42073972D01*
X5038721Y42073972D02*
X5324435Y42073972D01*
X5324435Y42073972D02*
X5467292Y42002543D01*
X5467292Y42002543D02*
X5538721Y41859686D01*
X5538721Y41859686D02*
X5538721Y41716829D01*
X5538721Y41716829D02*
X4824435Y41573972D01*
X6824435Y41073972D02*
X6824435Y41859686D01*
X6824435Y41859686D02*
X6753006Y42002543D01*
X6753006Y42002543D02*
X6610149Y42073972D01*
X6610149Y42073972D02*
X6324435Y42073972D01*
X6324435Y42073972D02*
X6181577Y42002543D01*
X6824435Y41145400D02*
X6681577Y41073972D01*
X6681577Y41073972D02*
X6324435Y41073972D01*
X6324435Y41073972D02*
X6181577Y41145400D01*
X6181577Y41145400D02*
X6110149Y41288258D01*
X6110149Y41288258D02*
X6110149Y41431115D01*
X6110149Y41431115D02*
X6181577Y41573972D01*
X6181577Y41573972D02*
X6324435Y41645400D01*
X6324435Y41645400D02*
X6681577Y41645400D01*
X6681577Y41645400D02*
X6824435Y41716829D01*
X8181578Y41073972D02*
X8181578Y42573972D01*
X8181578Y41145400D02*
X8038720Y41073972D01*
X8038720Y41073972D02*
X7753006Y41073972D01*
X7753006Y41073972D02*
X7610149Y41145400D01*
X7610149Y41145400D02*
X7538720Y41216829D01*
X7538720Y41216829D02*
X7467292Y41359686D01*
X7467292Y41359686D02*
X7467292Y41788258D01*
X7467292Y41788258D02*
X7538720Y41931115D01*
X7538720Y41931115D02*
X7610149Y42002543D01*
X7610149Y42002543D02*
X7753006Y42073972D01*
X7753006Y42073972D02*
X8038720Y42073972D01*
X8038720Y42073972D02*
X8181578Y42002543D01*
X8895863Y41645400D02*
X10038721Y41645400D01*
X10538721Y42073972D02*
X11110149Y42073972D01*
X10753006Y41073972D02*
X10753006Y42359686D01*
X10753006Y42359686D02*
X10824435Y42502543D01*
X10824435Y42502543D02*
X10967292Y42573972D01*
X10967292Y42573972D02*
X11110149Y42573972D01*
X11610149Y41073972D02*
X11610149Y42073972D01*
X11610149Y41788258D02*
X11681578Y41931115D01*
X11681578Y41931115D02*
X11753007Y42002543D01*
X11753007Y42002543D02*
X11895864Y42073972D01*
X11895864Y42073972D02*
X12038721Y42073972D01*
X13110149Y41145400D02*
X12967292Y41073972D01*
X12967292Y41073972D02*
X12681578Y41073972D01*
X12681578Y41073972D02*
X12538720Y41145400D01*
X12538720Y41145400D02*
X12467292Y41288258D01*
X12467292Y41288258D02*
X12467292Y41859686D01*
X12467292Y41859686D02*
X12538720Y42002543D01*
X12538720Y42002543D02*
X12681578Y42073972D01*
X12681578Y42073972D02*
X12967292Y42073972D01*
X12967292Y42073972D02*
X13110149Y42002543D01*
X13110149Y42002543D02*
X13181578Y41859686D01*
X13181578Y41859686D02*
X13181578Y41716829D01*
X13181578Y41716829D02*
X12467292Y41573972D01*
X14395863Y41145400D02*
X14253006Y41073972D01*
X14253006Y41073972D02*
X13967292Y41073972D01*
X13967292Y41073972D02*
X13824434Y41145400D01*
X13824434Y41145400D02*
X13753006Y41288258D01*
X13753006Y41288258D02*
X13753006Y41859686D01*
X13753006Y41859686D02*
X13824434Y42002543D01*
X13824434Y42002543D02*
X13967292Y42073972D01*
X13967292Y42073972D02*
X14253006Y42073972D01*
X14253006Y42073972D02*
X14395863Y42002543D01*
X14395863Y42002543D02*
X14467292Y41859686D01*
X14467292Y41859686D02*
X14467292Y41716829D01*
X14467292Y41716829D02*
X13753006Y41573972D01*
M02*
